<svg width="23" height="23" viewBox="0 0 23 23" fill="none" xmlns="http://www.w3.org/2000/svg">
<path fill-rule="evenodd" clip-rule="evenodd" d="M21.3947 13.0376L20.9676 13.2842C19.1954 12.1777 17.7137 10.6461 16.6677 8.83426L15.1321 6.17456C13.8753 3.99767 11.4462 2.91059 9.09793 3.2486L8.39844 2.03704C7.78821 0.980093 6.43185 0.616659 5.3749 1.22689C4.31795 1.83712 3.95452 3.19348 4.56475 4.25042L5.26424 5.46198C3.79738 7.32664 3.52427 9.97377 4.78112 12.1507L6.3167 14.8104C7.36272 16.6222 7.94832 18.6712 8.02046 20.7592L7.59339 21.0058C7.27581 21.1891 7.16699 21.5953 7.35034 21.9128C7.5337 22.2304 7.93982 22.3392 8.2574 22.1559L11.9512 20.0232C13.1032 21.3893 15.1068 21.7795 16.7074 20.8554C18.308 19.9313 18.9718 18.001 18.3649 16.3203L22.0587 14.1877C22.3763 14.0043 22.4851 13.5982 22.3017 13.2806C22.1184 12.9631 21.7123 12.8542 21.3947 13.0376ZM5.71485 3.58641C5.47076 3.16363 5.61614 2.62109 6.03892 2.37699C6.46169 2.1329 7.00424 2.27828 7.24833 2.70106L7.76812 3.60136C7.4963 3.70851 7.22903 3.83674 6.96854 3.98714C6.70804 4.13754 6.46335 4.30488 6.23464 4.48671L5.71485 3.58641ZM5.93123 11.4867C4.64974 9.26708 5.41296 6.41873 7.63255 5.13725C9.85214 3.85577 12.7005 4.61898 13.982 6.83857L15.5176 9.49827C16.007 10.3459 16.5827 11.138 17.2326 11.8624L8.65668 16.8138C8.35428 15.8888 7.9562 14.994 7.4668 14.1464L5.93123 11.4867ZM9.01933 18.1379L18.198 12.8385C18.6647 13.2668 19.1602 13.6641 19.6816 14.0267L9.30651 20.0167C9.25314 19.3839 9.15689 18.7561 9.01933 18.1379ZM16.0434 19.7053C15.0801 20.2614 13.8912 20.0818 13.1299 19.3428L17.1862 17.0008C17.4455 18.0297 17.0067 19.1491 16.0434 19.7053ZM18.0346 3.20828C17.6804 3.11334 17.3163 3.32357 17.2213 3.67781C17.1264 4.03205 17.3366 4.39613 17.6909 4.49105C18.5459 4.72014 19.2613 5.26982 19.7053 6.03886C20.1493 6.8079 20.2676 7.70229 20.0385 8.55729C19.9436 8.91153 20.1538 9.27561 20.508 9.37053C20.6852 9.41799 20.8647 9.3892 21.0119 9.30423C21.159 9.21928 21.2738 9.07812 21.3212 8.90103C21.6422 7.70336 21.4767 6.45108 20.8554 5.37485C20.234 4.29862 19.2323 3.52916 18.0346 3.20828ZM17.0035 7.05663C16.6492 6.96171 16.439 6.59762 16.534 6.24339C16.6289 5.88915 16.993 5.67892 17.3472 5.77388C18.4082 6.05818 19.0401 7.15266 18.7558 8.21365C18.7084 8.39078 18.5935 8.5319 18.4464 8.61685C18.2993 8.7018 18.1197 8.73061 17.9425 8.68315C17.5883 8.58823 17.3781 8.22414 17.473 7.86991C17.5189 7.69855 17.4954 7.51963 17.4067 7.36601C17.318 7.2124 17.1748 7.10253 17.0035 7.05663ZM1.57424 12.7117C1.22007 12.6168 0.85596 12.827 0.761004 13.1812C0.440064 14.3789 0.605548 15.6312 1.22691 16.7074C1.84827 17.7836 2.85004 18.5531 4.0477 18.874C4.22482 18.9214 4.40442 18.8926 4.55156 18.8077C4.69869 18.7227 4.8135 18.5816 4.8609 18.4045C4.95582 18.0502 4.74561 17.6861 4.39138 17.5912C3.53642 17.3621 2.82102 16.8124 2.37702 16.0434C1.93301 15.2743 1.81467 14.38 2.04377 13.525C2.13869 13.1707 1.92848 12.8066 1.57424 12.7117ZM5.54835 15.8389C5.50095 16.016 5.38618 16.1571 5.23901 16.2421C5.09183 16.327 4.91225 16.3559 4.73511 16.3084C3.67409 16.0241 3.0422 14.9296 3.32652 13.8686C3.42144 13.5144 3.78556 13.3042 4.13976 13.3991C4.494 13.494 4.7042 13.8581 4.60928 14.2123C4.5634 14.3837 4.58691 14.5626 4.6756 14.7162C4.76429 14.8699 4.90752 14.9797 5.07883 15.0256C5.43307 15.1205 5.64327 15.4846 5.54835 15.8389Z" fill="url(#paint0_linear)"/>
<defs>
<linearGradient id="paint0_linear" x1="-11.4257" y1="-4.5815" x2="22.2632" y2="-6.79296" gradientUnits="userSpaceOnUse">
<stop stop-color="#FFE177"/>
<stop offset="1" stop-color="#FE860A"/>
</linearGradient>
</defs>
</svg>
