<svg width="27" height="27" viewBox="0 0 27 27" fill="none" xmlns="http://www.w3.org/2000/svg">
<path d="M8.69911 17.4553H8.70035C8.70138 17.4553 8.70241 17.4551 8.70344 17.4551H23.0449C23.398 17.4551 23.7084 17.2209 23.8055 16.8814L26.9695 5.80717C27.0377 5.56842 26.9899 5.31175 26.8406 5.11359C26.691 4.91542 26.4572 4.79883 26.209 4.79883H6.87483L6.30938 2.25419C6.22884 1.89226 5.9079 1.63477 5.53711 1.63477H0.791016C0.354103 1.63477 0 1.98887 0 2.42578C0 2.86269 0.354103 3.2168 0.791016 3.2168H4.90265C5.00276 3.66772 7.60858 15.3941 7.75855 16.0687C6.91789 16.4342 6.32813 17.2724 6.32813 18.2461C6.32813 19.5546 7.3927 20.6191 8.70117 20.6191H23.0449C23.4818 20.6191 23.8359 20.265 23.8359 19.8281C23.8359 19.3912 23.4818 19.0371 23.0449 19.0371H8.70117C8.26508 19.0371 7.91016 18.6822 7.91016 18.2461C7.91016 17.8106 8.26385 17.4563 8.69911 17.4553ZM25.1603 6.38086L22.4482 15.873H9.33563L7.22626 6.38086H25.1603Z" fill="#425F60"/>
<path d="M7.91016 22.9922C7.91016 24.3007 8.97473 25.3652 10.2832 25.3652C11.5917 25.3652 12.6562 24.3007 12.6562 22.9922C12.6562 21.6837 11.5917 20.6191 10.2832 20.6191C8.97473 20.6191 7.91016 21.6837 7.91016 22.9922ZM10.2832 22.2012C10.7193 22.2012 11.0742 22.5561 11.0742 22.9922C11.0742 23.4283 10.7193 23.7832 10.2832 23.7832C9.84711 23.7832 9.49219 23.4283 9.49219 22.9922C9.49219 22.5561 9.84711 22.2012 10.2832 22.2012Z" fill="#425F60"/>
<path d="M19.0898 22.9922C19.0898 24.3007 20.1544 25.3652 21.4629 25.3652C22.7714 25.3652 23.8359 24.3007 23.8359 22.9922C23.8359 21.6837 22.7714 20.6191 21.4629 20.6191C20.1544 20.6191 19.0898 21.6837 19.0898 22.9922ZM21.4629 22.2012C21.899 22.2012 22.2539 22.5561 22.2539 22.9922C22.2539 23.4283 21.899 23.7832 21.4629 23.7832C21.0268 23.7832 20.6719 23.4283 20.6719 22.9922C20.6719 22.5561 21.0268 22.2012 21.4629 22.2012Z" fill="#425F60"/>
</svg>
