<svg width="14" height="24" viewBox="0 0 14 24" fill="none" xmlns="http://www.w3.org/2000/svg">
<path d="M10.9315 23.0528C11.5129 23.6429 12.4627 23.6499 13.0528 23.0685C13.6429 22.4871 13.6499 21.5373 13.0685 20.9472L10.9315 23.0528ZM2 11.8507L0.917245 10.8127C0.355425 11.3986 0.361748 12.3253 0.931512 12.9035L2 11.8507ZM12.5272 3.0381C13.1005 2.44011 13.0805 1.49057 12.4825 0.917245C11.8846 0.343921 10.935 0.363916 10.3617 0.961904L12.5272 3.0381ZM13.0685 20.9472L3.06849 10.798L0.931512 12.9035L10.9315 23.0528L13.0685 20.9472ZM3.08275 12.8888L12.5272 3.0381L10.3617 0.961904L0.917245 10.8127L3.08275 12.8888Z" fill="#425F60"/>
</svg>
