<svg width="14" height="24" viewBox="0 0 14 24" fill="none" xmlns="http://www.w3.org/2000/svg">
<path d="M3.06849 0.947225C2.48706 0.357116 1.53733 0.350081 0.947225 0.931512C0.357116 1.51294 0.35008 2.46266 0.931512 3.05277L3.06849 0.947225ZM12 12.1493L13.0828 13.1873C13.6446 12.6014 13.6383 11.6747 13.0685 11.0965L12 12.1493ZM1.4728 20.9619C0.899475 21.5599 0.91947 22.5094 1.51746 23.0828C2.11545 23.6561 3.06498 23.6361 3.63831 23.0381L1.4728 20.9619ZM0.931512 3.05277L10.9315 13.202L13.0685 11.0965L3.06849 0.947225L0.931512 3.05277ZM10.9172 11.1112L1.4728 20.9619L3.63831 23.0381L13.0828 13.1873L10.9172 11.1112Z" fill="#425F60"/>
</svg>
