<svg width="13" height="8" viewBox="0 0 13 8" fill="none" xmlns="http://www.w3.org/2000/svg">
<path d="M12.4393 1.40869C12.665 1.16608 12.6513 0.786428 12.4087 0.560714C12.1661 0.335001 11.7864 0.3487 11.5607 0.591311L12.4393 1.40869ZM6.41791 7L5.98423 7.41464C6.09841 7.53406 6.25678 7.60111 6.422 7.59999C6.58722 7.59886 6.74466 7.52965 6.8572 7.40869L6.41791 7ZM1.43368 0.918695C1.20468 0.679182 0.824874 0.670659 0.585361 0.899657C0.345849 1.12866 0.337325 1.50846 0.566324 1.74797L1.43368 0.918695ZM11.5607 0.591311L5.97862 6.59131L6.8572 7.40869L12.4393 1.40869L11.5607 0.591311ZM6.85159 6.58536L1.43368 0.918695L0.566324 1.74797L5.98423 7.41464L6.85159 6.58536Z" fill="#425F60"/>
</svg>
