<svg width="13" height="13" viewBox="0 0 13 13" fill="none" xmlns="http://www.w3.org/2000/svg">
<g clip-path="url(#clip0)">
<path d="M9.19141 9.95312V10.9688C9.19141 12.0888 8.28022 13 7.16016 13H2.05664C0.936577 13 0.0253906 12.0888 0.0253906 10.9688V2.03125C0.0253906 0.911186 0.936577 0 2.05664 0H7.16016C8.28022 0 9.19141 0.911186 9.19141 2.03125V3.04688C9.19141 3.32736 8.96408 3.55469 8.68359 3.55469C8.40311 3.55469 8.17578 3.32736 8.17578 3.04688V2.03125C8.17578 1.47127 7.72014 1.01562 7.16016 1.01562H2.05664C1.49666 1.01562 1.04102 1.47127 1.04102 2.03125V10.9688C1.04102 11.5287 1.49666 11.9844 2.05664 11.9844H7.16016C7.72014 11.9844 8.17578 11.5287 8.17578 10.9688V9.95312C8.17578 9.67264 8.40311 9.44531 8.68359 9.44531C8.96408 9.44531 9.19141 9.67264 9.19141 9.95312ZM12.6536 5.62769L11.5164 4.49057C11.3181 4.29221 10.9965 4.29221 10.7983 4.49057C10.5999 4.68884 10.5999 5.01038 10.7983 5.20865L11.6071 6.01758H5.50977C5.22928 6.01758 5.00195 6.2449 5.00195 6.52539C5.00195 6.80588 5.22928 7.0332 5.50977 7.0332H11.6071L10.7983 7.84213C10.5999 8.0404 10.5999 8.36195 10.7983 8.56021C10.8974 8.65939 11.0274 8.70898 11.1573 8.70898C11.2873 8.70898 11.4173 8.65939 11.5164 8.56021L12.6536 7.42309C13.1486 6.92807 13.1486 6.12271 12.6536 5.62769Z" fill="#EF4255"/>
</g>
<defs>
<clipPath id="clip0">
<rect width="13" height="13" fill="white"/>
</clipPath>
</defs>
</svg>
