<svg width="32" height="30" viewBox="0 0 32 30" fill="none" xmlns="http://www.w3.org/2000/svg">
<path d="M16 11.28C15.2152 11.28 14.448 11.4982 13.7955 11.9069C13.143 12.3157 12.6344 12.8967 12.334 13.5764C12.0337 14.2562 11.9551 15.0041 12.1082 15.7257C12.2614 16.4473 12.6393 17.1102 13.1942 17.6304C13.7491 18.1507 14.4562 18.505 15.2259 18.6485C15.9956 18.7921 16.7934 18.7184 17.5185 18.4368C18.2435 18.1553 18.8633 17.6785 19.2993 17.0667C19.7353 16.455 19.968 15.7357 19.968 15C19.968 14.5115 19.8654 14.0277 19.666 13.5764C19.4665 13.1251 19.1743 12.715 18.8058 12.3696C18.4373 12.0241 17.9999 11.7501 17.5185 11.5632C17.0371 11.3762 16.5211 11.28 16 11.28ZM31.888 7.605C31.8796 6.44664 31.6521 5.29886 31.216 4.215C30.8949 3.42189 30.398 2.70164 29.7581 2.10178C29.1182 1.50192 28.35 1.03608 27.504 0.735C26.3479 0.326196 25.1236 0.112891 23.888 0.105C21.824 -1.00583e-07 21.216 0 16 0C10.784 0 10.176 -1.00583e-07 8.112 0.105C6.87641 0.112891 5.65211 0.326196 4.496 0.735C3.65002 1.03608 2.88175 1.50192 2.2419 2.10178C1.60204 2.70164 1.10515 3.42189 0.784 4.215C0.347942 5.29886 0.120417 6.44664 0.112 7.605C-1.07288e-07 9.54 0 10.11 0 15C0 19.89 -1.07288e-07 20.46 0.112 22.395C0.129222 23.5574 0.356439 24.7087 0.784 25.8C1.10372 26.5895 1.60021 27.3056 2.24 27.9C2.87711 28.5035 3.64702 28.9693 4.496 29.265C5.65211 29.6738 6.87641 29.8871 8.112 29.895C10.176 30 10.784 30 16 30C21.216 30 21.824 30 23.888 29.895C25.1236 29.8871 26.3479 29.6738 27.504 29.265C28.353 28.9693 29.1229 28.5035 29.76 27.9C30.3998 27.3056 30.8963 26.5895 31.216 25.8C31.6516 24.7108 31.8791 23.5582 31.888 22.395C32 20.46 32 19.89 32 15C32 10.11 32 9.54 31.888 7.605ZM27.824 19.605C27.7727 20.5307 27.5619 21.4424 27.2 22.305C26.8894 23.0245 26.4276 23.6782 25.8422 24.227C25.2567 24.7759 24.5595 25.2088 23.792 25.5C22.8632 25.8204 21.8852 25.9977 20.896 26.025H11.104C10.1148 25.9977 9.13678 25.8204 8.208 25.5C7.41457 25.2236 6.69804 24.7826 6.112 24.21C5.53227 23.6719 5.08455 23.0218 4.8 22.305C4.45689 21.4352 4.27297 20.5173 4.256 19.59V15V10.41C4.27297 9.48274 4.45689 8.56483 4.8 7.695C5.09485 6.95115 5.56524 6.27942 6.176 5.73C6.75253 5.18944 7.44522 4.77014 8.208 4.5C9.13678 4.17961 10.1148 4.00231 11.104 3.975H20.896C21.8852 4.00231 22.8632 4.17961 23.792 4.5C24.5854 4.77642 25.302 5.21741 25.888 5.79C26.4677 6.32812 26.9154 6.9782 27.2 7.695C27.5418 8.56573 27.7309 9.4826 27.76 10.41V15C27.76 18.09 27.872 18.405 27.824 19.59V19.605ZM25.264 8.445C25.0735 7.96048 24.7731 7.52046 24.3837 7.15532C23.9942 6.79018 23.5248 6.50859 23.008 6.33C22.2984 6.09939 21.551 5.98769 20.8 6H11.2C10.4452 6.00692 9.69771 6.13895 8.992 6.39C8.48309 6.56048 8.01871 6.83057 7.62973 7.1823C7.24076 7.53403 6.9361 7.95936 6.736 8.43C6.50364 9.09805 6.39013 9.79739 6.4 10.5V19.5C6.41586 20.2068 6.55643 20.9062 6.816 21.57C7.0065 22.0545 7.30686 22.4945 7.69634 22.8597C8.08583 23.2248 8.55517 23.5064 9.072 23.685C9.75467 23.9204 10.473 24.052 11.2 24.075H20.8C21.5548 24.0681 22.3023 23.9361 23.008 23.685C23.5248 23.5064 23.9942 23.2248 24.3837 22.8597C24.7731 22.4945 25.0735 22.0545 25.264 21.57C25.5318 20.9084 25.6726 20.2076 25.68 19.5V15V10.5C25.6805 9.7917 25.5394 9.08958 25.264 8.43V8.445ZM16 20.73C15.1981 20.73 14.4041 20.5817 13.6635 20.2935C12.9228 20.0054 12.2501 19.5831 11.6838 19.0508C11.1175 18.5185 10.6688 17.8868 10.3634 17.1916C10.058 16.4965 9.90189 15.7518 9.904 15C9.904 13.8661 10.2629 12.7576 10.9352 11.815C11.6075 10.8724 12.563 10.138 13.6807 9.70475C14.7985 9.2715 16.0282 9.15891 17.2143 9.38122C18.4003 9.60353 19.4894 10.1508 20.3435 10.9536C21.1976 11.7565 21.7785 12.7789 22.0125 13.8914C22.2465 15.0039 22.1232 16.1564 21.6581 17.2032C21.1931 18.2499 20.4072 19.1438 19.4 19.7716C18.3928 20.3994 17.2095 20.733 16 20.73ZM22.4 10.395C22.0463 10.3599 21.719 10.2033 21.4811 9.95546C21.2432 9.70758 21.1116 9.38594 21.1116 9.0525C21.1116 8.71906 21.2432 8.39742 21.4811 8.14954C21.719 7.90167 22.0463 7.7451 22.4 7.71C22.7537 7.7451 23.081 7.90167 23.3189 8.14954C23.5568 8.39742 23.6884 8.71906 23.6884 9.0525C23.6884 9.38594 23.5568 9.70758 23.3189 9.95546C23.081 10.2033 22.7537 10.3599 22.4 10.395Z" fill="url(#paint0_linear)"/>
<path d="M16 11.28C15.2152 11.28 14.448 11.4982 13.7955 11.9069C13.143 12.3157 12.6344 12.8967 12.334 13.5764C12.0337 14.2562 11.9551 15.0041 12.1082 15.7257C12.2614 16.4473 12.6393 17.1102 13.1942 17.6304C13.7491 18.1507 14.4562 18.505 15.2259 18.6485C15.9956 18.7921 16.7934 18.7184 17.5185 18.4368C18.2435 18.1553 18.8633 17.6785 19.2993 17.0667C19.7353 16.455 19.968 15.7357 19.968 15C19.968 14.5115 19.8654 14.0277 19.666 13.5764C19.4665 13.1251 19.1743 12.715 18.8058 12.3696C18.4373 12.0241 17.9999 11.7501 17.5185 11.5632C17.0371 11.3762 16.5211 11.28 16 11.28ZM31.888 7.605C31.8796 6.44664 31.6521 5.29886 31.216 4.215C30.8949 3.42189 30.398 2.70164 29.7581 2.10178C29.1182 1.50192 28.35 1.03608 27.504 0.735C26.3479 0.326196 25.1236 0.112891 23.888 0.105C21.824 -1.00583e-07 21.216 0 16 0C10.784 0 10.176 -1.00583e-07 8.112 0.105C6.87641 0.112891 5.65211 0.326196 4.496 0.735C3.65002 1.03608 2.88175 1.50192 2.2419 2.10178C1.60204 2.70164 1.10515 3.42189 0.784 4.215C0.347942 5.29886 0.120417 6.44664 0.112 7.605C-1.07288e-07 9.54 0 10.11 0 15C0 19.89 -1.07288e-07 20.46 0.112 22.395C0.129222 23.5574 0.356439 24.7087 0.784 25.8C1.10372 26.5895 1.60021 27.3056 2.24 27.9C2.87711 28.5035 3.64702 28.9693 4.496 29.265C5.65211 29.6738 6.87641 29.8871 8.112 29.895C10.176 30 10.784 30 16 30C21.216 30 21.824 30 23.888 29.895C25.1236 29.8871 26.3479 29.6738 27.504 29.265C28.353 28.9693 29.1229 28.5035 29.76 27.9C30.3998 27.3056 30.8963 26.5895 31.216 25.8C31.6516 24.7108 31.8791 23.5582 31.888 22.395C32 20.46 32 19.89 32 15C32 10.11 32 9.54 31.888 7.605ZM27.824 19.605C27.7727 20.5307 27.5619 21.4424 27.2 22.305C26.8894 23.0245 26.4276 23.6782 25.8422 24.227C25.2567 24.7759 24.5595 25.2088 23.792 25.5C22.8632 25.8204 21.8852 25.9977 20.896 26.025H11.104C10.1148 25.9977 9.13678 25.8204 8.208 25.5C7.41457 25.2236 6.69804 24.7826 6.112 24.21C5.53227 23.6719 5.08455 23.0218 4.8 22.305C4.45689 21.4352 4.27297 20.5173 4.256 19.59V15V10.41C4.27297 9.48274 4.45689 8.56483 4.8 7.695C5.09485 6.95115 5.56524 6.27942 6.176 5.73C6.75253 5.18944 7.44522 4.77014 8.208 4.5C9.13678 4.17961 10.1148 4.00231 11.104 3.975H20.896C21.8852 4.00231 22.8632 4.17961 23.792 4.5C24.5854 4.77642 25.302 5.21741 25.888 5.79C26.4677 6.32812 26.9154 6.9782 27.2 7.695C27.5418 8.56573 27.7309 9.4826 27.76 10.41V15C27.76 18.09 27.872 18.405 27.824 19.59V19.605ZM25.264 8.445C25.0735 7.96048 24.7731 7.52046 24.3837 7.15532C23.9942 6.79018 23.5248 6.50859 23.008 6.33C22.2984 6.09939 21.551 5.98769 20.8 6H11.2C10.4452 6.00692 9.69771 6.13895 8.992 6.39C8.48309 6.56048 8.01871 6.83057 7.62973 7.1823C7.24076 7.53403 6.9361 7.95936 6.736 8.43C6.50364 9.09805 6.39013 9.79739 6.4 10.5V19.5C6.41586 20.2068 6.55643 20.9062 6.816 21.57C7.0065 22.0545 7.30686 22.4945 7.69634 22.8597C8.08583 23.2248 8.55517 23.5064 9.072 23.685C9.75467 23.9204 10.473 24.052 11.2 24.075H20.8C21.5548 24.0681 22.3023 23.9361 23.008 23.685C23.5248 23.5064 23.9942 23.2248 24.3837 22.8597C24.7731 22.4945 25.0735 22.0545 25.264 21.57C25.5318 20.9084 25.6726 20.2076 25.68 19.5V15V10.5C25.6805 9.7917 25.5394 9.08958 25.264 8.43V8.445ZM16 20.73C15.1981 20.73 14.4041 20.5817 13.6635 20.2935C12.9228 20.0054 12.2501 19.5831 11.6838 19.0508C11.1175 18.5185 10.6688 17.8868 10.3634 17.1916C10.058 16.4965 9.90189 15.7518 9.904 15C9.904 13.8661 10.2629 12.7576 10.9352 11.815C11.6075 10.8724 12.563 10.138 13.6807 9.70475C14.7985 9.2715 16.0282 9.15891 17.2143 9.38122C18.4003 9.60353 19.4894 10.1508 20.3435 10.9536C21.1976 11.7565 21.7785 12.7789 22.0125 13.8914C22.2465 15.0039 22.1232 16.1564 21.6581 17.2032C21.1931 18.2499 20.4072 19.1438 19.4 19.7716C18.3928 20.3994 17.2095 20.733 16 20.73ZM22.4 10.395C22.0463 10.3599 21.719 10.2033 21.4811 9.95546C21.2432 9.70758 21.1116 9.38594 21.1116 9.0525C21.1116 8.71906 21.2432 8.39742 21.4811 8.14954C21.719 7.90167 22.0463 7.7451 22.4 7.71C22.7537 7.7451 23.081 7.90167 23.3189 8.14954C23.5568 8.39742 23.6884 8.71906 23.6884 9.0525C23.6884 9.38594 23.5568 9.70758 23.3189 9.95546C23.081 10.2033 22.7537 10.3599 22.4 10.395Z" fill="#E45363"/>
<path d="M16 11.28C15.2152 11.28 14.448 11.4982 13.7955 11.9069C13.143 12.3157 12.6344 12.8967 12.334 13.5764C12.0337 14.2562 11.9551 15.0041 12.1082 15.7257C12.2614 16.4473 12.6393 17.1102 13.1942 17.6304C13.7491 18.1507 14.4562 18.505 15.2259 18.6485C15.9956 18.7921 16.7934 18.7184 17.5185 18.4368C18.2435 18.1553 18.8633 17.6785 19.2993 17.0667C19.7353 16.455 19.968 15.7357 19.968 15C19.968 14.5115 19.8654 14.0277 19.666 13.5764C19.4665 13.1251 19.1743 12.715 18.8058 12.3696C18.4373 12.0241 17.9999 11.7501 17.5185 11.5632C17.0371 11.3762 16.5211 11.28 16 11.28ZM31.888 7.605C31.8796 6.44664 31.6521 5.29886 31.216 4.215C30.8949 3.42189 30.398 2.70164 29.7581 2.10178C29.1182 1.50192 28.35 1.03608 27.504 0.735C26.3479 0.326196 25.1236 0.112891 23.888 0.105C21.824 -1.00583e-07 21.216 0 16 0C10.784 0 10.176 -1.00583e-07 8.112 0.105C6.87641 0.112891 5.65211 0.326196 4.496 0.735C3.65002 1.03608 2.88175 1.50192 2.2419 2.10178C1.60204 2.70164 1.10515 3.42189 0.784 4.215C0.347942 5.29886 0.120417 6.44664 0.112 7.605C-1.07288e-07 9.54 0 10.11 0 15C0 19.89 -1.07288e-07 20.46 0.112 22.395C0.129222 23.5574 0.356439 24.7087 0.784 25.8C1.10372 26.5895 1.60021 27.3056 2.24 27.9C2.87711 28.5035 3.64702 28.9693 4.496 29.265C5.65211 29.6738 6.87641 29.8871 8.112 29.895C10.176 30 10.784 30 16 30C21.216 30 21.824 30 23.888 29.895C25.1236 29.8871 26.3479 29.6738 27.504 29.265C28.353 28.9693 29.1229 28.5035 29.76 27.9C30.3998 27.3056 30.8963 26.5895 31.216 25.8C31.6516 24.7108 31.8791 23.5582 31.888 22.395C32 20.46 32 19.89 32 15C32 10.11 32 9.54 31.888 7.605ZM27.824 19.605C27.7727 20.5307 27.5619 21.4424 27.2 22.305C26.8894 23.0245 26.4276 23.6782 25.8422 24.227C25.2567 24.7759 24.5595 25.2088 23.792 25.5C22.8632 25.8204 21.8852 25.9977 20.896 26.025H11.104C10.1148 25.9977 9.13678 25.8204 8.208 25.5C7.41457 25.2236 6.69804 24.7826 6.112 24.21C5.53227 23.6719 5.08455 23.0218 4.8 22.305C4.45689 21.4352 4.27297 20.5173 4.256 19.59V15V10.41C4.27297 9.48274 4.45689 8.56483 4.8 7.695C5.09485 6.95115 5.56524 6.27942 6.176 5.73C6.75253 5.18944 7.44522 4.77014 8.208 4.5C9.13678 4.17961 10.1148 4.00231 11.104 3.975H20.896C21.8852 4.00231 22.8632 4.17961 23.792 4.5C24.5854 4.77642 25.302 5.21741 25.888 5.79C26.4677 6.32812 26.9154 6.9782 27.2 7.695C27.5418 8.56573 27.7309 9.4826 27.76 10.41V15C27.76 18.09 27.872 18.405 27.824 19.59V19.605ZM25.264 8.445C25.0735 7.96048 24.7731 7.52046 24.3837 7.15532C23.9942 6.79018 23.5248 6.50859 23.008 6.33C22.2984 6.09939 21.551 5.98769 20.8 6H11.2C10.4452 6.00692 9.69771 6.13895 8.992 6.39C8.48309 6.56048 8.01871 6.83057 7.62973 7.1823C7.24076 7.53403 6.9361 7.95936 6.736 8.43C6.50364 9.09805 6.39013 9.79739 6.4 10.5V19.5C6.41586 20.2068 6.55643 20.9062 6.816 21.57C7.0065 22.0545 7.30686 22.4945 7.69634 22.8597C8.08583 23.2248 8.55517 23.5064 9.072 23.685C9.75467 23.9204 10.473 24.052 11.2 24.075H20.8C21.5548 24.0681 22.3023 23.9361 23.008 23.685C23.5248 23.5064 23.9942 23.2248 24.3837 22.8597C24.7731 22.4945 25.0735 22.0545 25.264 21.57C25.5318 20.9084 25.6726 20.2076 25.68 19.5V15V10.5C25.6805 9.7917 25.5394 9.08958 25.264 8.43V8.445ZM16 20.73C15.1981 20.73 14.4041 20.5817 13.6635 20.2935C12.9228 20.0054 12.2501 19.5831 11.6838 19.0508C11.1175 18.5185 10.6688 17.8868 10.3634 17.1916C10.058 16.4965 9.90189 15.7518 9.904 15C9.904 13.8661 10.2629 12.7576 10.9352 11.815C11.6075 10.8724 12.563 10.138 13.6807 9.70475C14.7985 9.2715 16.0282 9.15891 17.2143 9.38122C18.4003 9.60353 19.4894 10.1508 20.3435 10.9536C21.1976 11.7565 21.7785 12.7789 22.0125 13.8914C22.2465 15.0039 22.1232 16.1564 21.6581 17.2032C21.1931 18.2499 20.4072 19.1438 19.4 19.7716C18.3928 20.3994 17.2095 20.733 16 20.73ZM22.4 10.395C22.0463 10.3599 21.719 10.2033 21.4811 9.95546C21.2432 9.70758 21.1116 9.38594 21.1116 9.0525C21.1116 8.71906 21.2432 8.39742 21.4811 8.14954C21.719 7.90167 22.0463 7.7451 22.4 7.71C22.7537 7.7451 23.081 7.90167 23.3189 8.14954C23.5568 8.39742 23.6884 8.71906 23.6884 9.0525C23.6884 9.38594 23.5568 9.70758 23.3189 9.95546C23.081 10.2033 22.7537 10.3599 22.4 10.395Z" fill="#344445"/>
<defs>
<linearGradient id="paint0_linear" x1="0" y1="0" x2="34.8943" y2="8.82472" gradientUnits="userSpaceOnUse">
<stop stop-color="#FF785A"/>
<stop offset="1" stop-color="#DA4453"/>
</linearGradient>
</defs>
</svg>
