<svg width="60" height="60" viewBox="0 0 60 60" fill="none" xmlns="http://www.w3.org/2000/svg">
<g clip-path="url(#clip0)">
<path d="M41.7812 44.2881C41.7811 44.2879 28.6146 31.1215 28.6144 31.1211C28.5195 31.0258 28.5932 30.879 28.7145 30.879H50.4731C51.5772 30.879 52.4754 29.9826 52.4754 28.881C52.4754 28.8503 52.4746 28.8195 52.4732 28.7896C51.8436 14.9242 40.416 3.74976 26.2505 3.74976C26.2498 3.74976 26.2492 3.74976 26.2486 3.74976C25.4093 3.74976 24.5622 3.78995 23.7308 3.86917C23.2475 3.91522 22.8932 4.34425 22.9392 4.82753C22.9853 5.31081 23.4163 5.66565 23.8975 5.61913C24.6737 5.54518 25.4646 5.50768 26.2486 5.50768H26.2505C39.3752 5.50768 50.1224 15.7693 50.7177 28.8811C50.7177 29.0135 50.608 29.1213 50.4733 29.1213H48.1685C47.7054 17.4312 38.0522 8.06307 26.2505 8.06307C14.1543 8.06307 4.31332 17.9041 4.31332 30.0002C4.31332 42.0963 14.1544 51.9374 26.2505 51.9374C31.7642 51.9374 37.0713 49.8695 41.1278 46.1205L42.7567 47.7494C42.8584 47.8511 42.8474 48.0129 42.7433 48.1077C42.6594 48.1842 42.5749 48.2601 42.49 48.3355C37.9164 52.3893 31.9975 54.5831 25.8729 54.4899C12.5757 54.2897 1.75781 43.3034 1.75781 29.9997V29.9706C1.77082 18.861 9.27457 9.13171 20.0052 6.31065C20.4747 6.18726 20.7551 5.70667 20.6318 5.23722C20.5083 4.76776 20.0284 4.48733 19.5582 4.61062C8.05664 7.6344 0.0139453 18.062 0 29.9696V29.9997C0 44.3092 11.5359 56.032 25.8463 56.2474C32.411 56.3448 38.8917 53.9959 43.9273 49.4067C44.7649 48.6436 44.8172 47.3242 43.9996 46.5063L41.7812 44.2881ZM26.2504 50.1795C15.1234 50.1795 6.07102 41.127 6.07102 30.0002C6.07102 18.8734 15.1234 9.82077 26.2504 9.82077C37.0826 9.82077 45.9488 18.4008 46.4108 29.1212C27.4906 29.1212 28.6029 29.103 28.3205 29.1629C26.869 29.4683 26.2929 31.2856 27.3717 32.3645L29.6421 34.635L39.8842 44.877C36.1968 48.2624 31.3442 50.1795 26.2504 50.1795Z" fill="#EF4255"/>
<path d="M29.7193 18.3768C31.7507 18.3768 33.4034 16.724 33.4034 14.6926C33.4034 12.6611 31.7506 11.0084 29.7193 11.0084C27.688 11.0084 26.0352 12.6611 26.0352 14.6926C26.0352 16.724 27.688 18.3768 29.7193 18.3768ZM29.7193 12.7661C30.7815 12.7661 31.6456 13.6303 31.6456 14.6924C31.6456 15.7546 30.7815 16.6189 29.7193 16.6189C28.6571 16.6189 27.793 15.7546 27.793 14.6924C27.793 13.6303 28.6571 12.7661 29.7193 12.7661Z" fill="#EF4255"/>
<path d="M39.5772 25.6985C41.5818 25.6985 43.2127 24.0676 43.2127 22.063C43.2127 20.0584 41.5818 18.4275 39.5772 18.4275C37.5725 18.4275 35.9417 20.0584 35.9417 22.063C35.9417 24.0676 37.5724 25.6985 39.5772 25.6985ZM39.5772 20.1852C40.6125 20.1852 41.4548 21.0275 41.4548 22.0629C41.4548 23.0982 40.6125 23.9406 39.5772 23.9406C38.5418 23.9406 37.6995 23.0982 37.6995 22.0629C37.6995 21.0275 38.5418 20.1852 39.5772 20.1852Z" fill="#EF4255"/>
<path d="M57.9978 32.0616C34.7668 32.0616 36.0549 31.9782 35.501 32.2113C34.2825 32.7241 33.926 34.3345 34.8964 35.3049C35.4325 35.8411 49.4224 49.8309 50.281 50.6896C51.0932 51.5018 52.41 51.4631 53.1713 50.6286C54.3364 49.3517 55.3791 47.955 56.2701 46.4773C56.5208 46.0617 56.3869 45.5214 55.9713 45.2709C55.5556 45.0201 55.0155 45.1539 54.7647 45.5696C53.9332 46.9486 52.9603 48.252 51.8728 49.4438C51.779 49.5465 51.619 49.5418 51.5239 49.4466L49.8911 47.8139C53.4501 43.9668 55.4859 39.0561 55.6928 33.8195H57.9977C58.1324 33.8195 58.2421 33.9273 58.2418 34.0713C58.1171 36.8163 57.5397 39.4938 56.5258 42.0295C56.3456 42.4802 56.5648 42.9917 57.0156 43.172C57.4665 43.3522 57.9779 43.1329 58.158 42.6822C59.245 39.9635 59.8641 37.0932 59.9977 34.1522C59.9991 34.1212 59.9999 34.0905 59.9999 34.0598C60.0001 32.9579 59.1018 32.0616 57.9978 32.0616ZM48.6485 46.571L36.1395 34.0619C36.1394 34.0618 36.1392 34.0616 36.1391 34.0614C36.0915 34.0138 36.0802 33.9581 36.1174 33.8895C36.1426 33.842 36.1848 33.8193 36.2393 33.8193H53.9353C53.7305 38.587 51.8772 43.0572 48.6485 46.571Z" fill="#EF4255"/>
<path d="M47.658 41.7211C49.5944 41.7211 51.17 40.1457 51.17 38.2091C51.17 36.2727 49.5945 34.6973 47.658 34.6973C45.7215 34.6973 44.146 36.2727 44.146 38.2091C44.146 40.1457 45.7215 41.7211 47.658 41.7211ZM47.658 36.4551C48.6253 36.4551 49.4122 37.242 49.4122 38.2091C49.4122 39.1764 48.6253 39.9633 47.658 39.9633C46.6907 39.9633 45.9038 39.1764 45.9038 38.2091C45.9038 37.242 46.6907 36.4551 47.658 36.4551Z" fill="#EF4255"/>
<path d="M29.3889 25.8644C29.3889 27.2214 30.4929 28.3253 31.8499 28.3253C33.2068 28.3253 34.3108 27.2214 34.3108 25.8644C34.3108 24.5073 33.2068 23.4034 31.8499 23.4034C30.4929 23.4034 29.3889 24.5073 29.3889 25.8644ZM32.553 25.8644C32.553 26.2522 32.2376 26.5675 31.8499 26.5675C31.4621 26.5675 31.1467 26.2522 31.1467 25.8644C31.1467 25.4766 31.4621 25.1613 31.8499 25.1613C32.2376 25.1613 32.553 25.4766 32.553 25.8644Z" fill="#EF4255"/>
<path d="M25.0923 24.4652C26.417 24.4652 27.4946 23.3875 27.4946 22.0629C27.4946 20.7382 26.417 19.6605 25.0923 19.6605C23.7676 19.6605 22.6899 20.7382 22.6899 22.0629C22.6899 23.3875 23.7676 24.4652 25.0923 24.4652ZM25.0923 21.4183C25.4477 21.4183 25.7368 21.7074 25.7368 22.0629C25.7368 22.4183 25.4477 22.7074 25.0923 22.7074C24.7369 22.7074 24.4478 22.4183 24.4478 22.0629C24.4478 21.7074 24.7369 21.4183 25.0923 21.4183Z" fill="#EF4255"/>
<path d="M15.4248 24.7871C17.4294 24.7871 19.0603 23.1562 19.0603 21.1516C19.0603 19.147 17.4294 17.5161 15.4248 17.5161C13.4202 17.5161 11.7893 19.147 11.7893 21.1516C11.7893 23.1562 13.4202 24.7871 15.4248 24.7871ZM15.4248 19.2738C16.4602 19.2738 17.3025 20.1162 17.3025 21.1515C17.3025 22.1869 16.4602 23.0292 15.4248 23.0292C14.3895 23.0292 13.5471 22.1869 13.5471 21.1515C13.5471 20.1162 14.3895 19.2738 15.4248 19.2738Z" fill="#EF4255"/>
<path d="M22.2385 30.0001C22.2385 27.9955 20.6076 26.3646 18.603 26.3646C16.5984 26.3646 14.9675 27.9955 14.9675 30.0001C14.9675 32.0048 16.5984 33.6357 18.603 33.6357C20.6076 33.6357 22.2385 32.0049 22.2385 30.0001ZM18.6029 31.878C17.5676 31.878 16.7252 31.0356 16.7252 30.0003C16.7252 28.9649 17.5676 28.1226 18.6029 28.1226C19.6383 28.1226 20.4806 28.9649 20.4806 30.0003C20.4806 31.0356 19.6383 31.878 18.6029 31.878Z" fill="#EF4255"/>
<path d="M14.771 35.381C12.7664 35.381 11.1355 37.0119 11.1355 39.0165C11.1355 41.0211 12.7664 42.652 14.771 42.652C16.7756 42.652 18.4065 41.0211 18.4065 39.0165C18.4065 37.0119 16.7756 35.381 14.771 35.381ZM14.771 40.8943C13.7356 40.8943 12.8933 40.052 12.8933 39.0166C12.8933 37.9813 13.7356 37.1389 14.771 37.1389C15.8064 37.1389 16.6487 37.9813 16.6487 39.0166C16.6487 40.052 15.8064 40.8943 14.771 40.8943Z" fill="#EF4255"/>
<path d="M26.7849 43.8007C26.7849 45.8053 28.4158 47.4362 30.4204 47.4362C32.425 47.4362 34.0559 45.8053 34.0559 43.8007C34.0559 41.7961 32.425 40.1652 30.4204 40.1652C28.4158 40.1652 26.7849 41.7959 26.7849 43.8007ZM30.4205 41.9229C31.4559 41.9229 32.2982 42.7652 32.2982 43.8006C32.2982 44.8359 31.4559 45.6783 30.4205 45.6783C29.3852 45.6783 28.5428 44.8359 28.5428 43.8006C28.5428 42.7652 29.3852 41.9229 30.4205 41.9229Z" fill="#EF4255"/>
<path d="M27.6648 36.2599C27.6648 34.9352 26.5871 33.8575 25.2625 33.8575C23.9378 33.8575 22.8601 34.9352 22.8601 36.2599C22.8601 37.5846 23.9378 38.6622 25.2625 38.6622C26.5871 38.6622 27.6648 37.5845 27.6648 36.2599ZM25.2625 36.9044C24.907 36.9044 24.6179 36.6153 24.6179 36.2599C24.6179 35.9045 24.907 35.6154 25.2625 35.6154C25.6179 35.6154 25.907 35.9045 25.907 36.2599C25.907 36.6153 25.6179 36.9044 25.2625 36.9044Z" fill="#EF4255"/>
<path d="M12.3435 30.0001C12.3435 28.6754 11.2658 27.5978 9.94116 27.5978C8.61647 27.5978 7.53882 28.6754 7.53882 30.0001C7.53882 31.3248 8.61647 32.4024 9.94116 32.4024C11.2658 32.4024 12.3435 31.3248 12.3435 30.0001ZM9.94116 30.6446C9.58573 30.6446 9.29663 30.3555 9.29663 30.0001C9.29663 29.6447 9.58573 29.3556 9.94116 29.3556C10.2966 29.3556 10.5857 29.6447 10.5857 30.0001C10.5857 30.3555 10.2966 30.6446 9.94116 30.6446Z" fill="#EF4255"/>
<path d="M21.0493 41.3984C19.7246 41.3984 18.647 42.4761 18.647 43.8008C18.647 45.1255 19.7246 46.2031 21.0493 46.2031C22.374 46.2031 23.4517 45.1255 23.4517 43.8008C23.4517 42.4761 22.374 41.3984 21.0493 41.3984ZM21.0493 44.4453C20.6939 44.4453 20.4048 44.1562 20.4048 43.8008C20.4048 43.4454 20.6939 43.1562 21.0493 43.1562C21.4047 43.1562 21.6938 43.4454 21.6938 43.8008C21.6938 44.1562 21.4047 44.4453 21.0493 44.4453Z" fill="#EF4255"/>
<path d="M20.032 17.1898C21.3567 17.1898 22.4343 16.1122 22.4343 14.7875C22.4343 13.4628 21.3567 12.3851 20.032 12.3851C18.7073 12.3851 17.6296 13.4628 17.6296 14.7875C17.6296 16.1122 18.7074 17.1898 20.032 17.1898ZM20.032 14.1429C20.3874 14.1429 20.6765 14.432 20.6765 14.7875C20.6765 15.1429 20.3874 15.432 20.032 15.432C19.6766 15.432 19.3875 15.1429 19.3875 14.7875C19.3875 14.432 19.6766 14.1429 20.032 14.1429Z" fill="#EF4255"/>
</g>
<defs>
<clipPath id="clip0">
<rect width="60" height="60" fill="white"/>
</clipPath>
</defs>
</svg>
