<svg width="60" height="60" viewBox="0 0 60 60" fill="none" xmlns="http://www.w3.org/2000/svg">
<g clip-path="url(#clip0)">
<path d="M58.1377 53.998H45.0193C46.6985 52.6014 47.7695 50.4975 47.7695 48.1479C47.7695 47.6175 47.7134 47.0915 47.6047 46.5759C48.5112 45.9804 49.1115 44.9551 49.1115 43.7918V36.7515C49.1115 34.9157 47.6179 33.4221 45.782 33.4221C44.6212 33.4221 15.7518 33.4221 14.1592 33.4221C12.3234 33.4221 10.8298 34.9157 10.8298 36.7515V37.9753C10.8298 38.4607 11.2233 38.8542 11.7087 38.8542C12.1941 38.8542 12.5876 38.4607 12.5876 37.9753V36.7515C12.5876 35.8849 13.2926 35.1799 14.1592 35.1799H25.784V45.3633H14.1592C13.3059 45.3633 12.5876 44.6671 12.5876 43.7917V42.0768C12.5876 41.5914 12.1941 41.1979 11.7087 41.1979C11.2233 41.1979 10.8298 41.5914 10.8298 42.0768V43.7917C10.8298 44.955 11.43 45.9803 12.3365 46.5758C12.2279 47.0913 12.1716 47.6174 12.1716 48.1478C12.1716 50.4974 13.2427 52.6013 14.9219 53.9979H1.80368C1.21891 53.9979 0.681371 54.2897 0.365667 54.7784C0.053597 55.2614 0.00824542 55.8626 0.244495 56.3865L1.07782 58.2345C1.56145 59.307 2.64098 60 3.82809 60H56.1132C57.3004 60 58.3799 59.307 58.8636 58.2346L59.6968 56.3868C59.9331 55.8629 59.8879 55.2618 59.5758 54.7786C59.2601 54.2898 58.7225 53.998 58.1377 53.998ZM34.1573 35.1799H45.782C46.6487 35.1799 47.3536 35.8849 47.3536 36.7515V43.7918C47.3536 44.6727 46.6293 45.3634 45.782 45.3634H34.1573V35.1799ZM34.1573 47.1212H45.782C45.8285 47.1212 45.8747 47.1203 45.921 47.1183C45.9814 47.4571 46.0117 47.8014 46.0117 48.148C46.0117 51.3738 43.3873 53.9981 40.1615 53.9981H34.1573V47.1212ZM27.5418 35.1799H32.3995V53.998H27.5418C27.5418 53.164 27.5418 35.985 27.5418 35.1799ZM13.9295 48.1479C13.9295 47.8013 13.9599 47.457 14.0202 47.1182C14.1276 47.1229 13.3387 47.1211 25.7839 47.1211V53.998H19.7797C16.554 53.998 13.9295 51.3737 13.9295 48.1479ZM57.2612 57.512C57.0611 57.9556 56.6105 58.2422 56.1132 58.2422H3.82809C3.33075 58.2422 2.88028 57.9556 2.68024 57.512L1.88829 55.7559H58.053L57.2612 57.512Z" fill="#425F60" fill-opacity="0.3"/>
<path d="M47.4576 9.31945V9.28172H58.5596C59.3015 9.28172 59.9051 8.67809 59.9051 7.93605V4.93394C59.9051 4.18207 59.2892 3.57164 58.5299 3.58863L46.592 3.85102C45.329 1.49355 42.8664 0 40.1608 0H16.4728C12.4494 0 9.17603 3.2734 9.17603 7.29691V9.31945C9.17603 10.6855 9.80497 11.9072 10.7883 12.711C10.6089 13.3646 10.5179 14.0396 10.5179 14.7258C10.5179 18.9209 13.9309 22.3337 18.1259 22.3337H33.0966C33.5821 22.3337 33.9755 21.9402 33.9755 21.4548C33.9755 20.9694 33.5821 20.5759 33.0966 20.5759H18.1259C14.9001 20.5759 12.2758 17.9515 12.2758 14.7258C12.2758 14.3261 12.3156 13.9315 12.3948 13.5455C13.2838 13.7774 13.8532 13.6992 16.935 13.6992C45.4097 13.6991 43.4167 13.7673 44.2372 13.5429C44.9816 17.1411 42.2325 20.576 38.5077 20.576H37.1981C36.7126 20.576 36.3192 20.9695 36.3192 21.4549C36.3192 21.9403 36.7126 22.3338 37.1981 22.3338H38.5077C40.853 22.3338 42.9531 21.2666 44.3499 19.5929H58.5597C59.3016 19.5929 59.9052 18.9893 59.9052 18.2473V15.2449C59.9052 14.4798 59.2726 13.8807 58.5301 13.8996C58.5301 13.8996 58.5301 13.8996 58.53 13.8996L46.094 14.173C46.0581 13.6781 45.9757 13.1897 45.8442 12.7119C46.828 11.9081 47.4576 10.6861 47.4576 9.31945ZM43.078 11.9412C11.1915 11.9412 13.1242 12.0783 12.3019 11.6214C11.4874 11.1761 10.9337 10.3112 10.9337 9.31933V7.29691C10.9337 4.24266 13.4186 1.75781 16.4728 1.75781H40.1609C41.8956 1.75781 43.4991 2.56652 44.5335 3.89625L21.7144 4.39769C20.3984 4.42664 19.3258 5.52668 19.3258 6.83941C19.3258 8.18613 20.4215 9.28172 21.7681 9.28172H45.6997C45.6997 10.825 44.4771 11.9412 43.078 11.9412ZM46.0201 15.9328L58.1473 15.6663V17.835H45.4526C45.7266 17.2246 45.9191 16.5659 46.0201 15.9328ZM21.7681 7.52391C21.3906 7.52391 21.0836 7.21687 21.0836 6.83941C21.0836 6.4759 21.3786 6.16324 21.7529 6.15504C22.251 6.14414 56.9965 5.38043 58.1473 5.35512V7.52379C56.917 7.52391 23.5824 7.52391 21.7681 7.52391Z" fill="#425F60" fill-opacity="0.3"/>
</g>
<defs>
<clipPath id="clip0">
<rect width="60" height="60" fill="white"/>
</clipPath>
</defs>
</svg>
