<svg width="60" height="60" viewBox="0 0 60 60" fill="none" xmlns="http://www.w3.org/2000/svg">
<path d="M30 0C29.9995 0 30 0 29.9995 0C22.3805 0 15.1164 2.86008 9.54668 8.05301C9.1916 8.38395 9.17215 8.94012 9.50309 9.2952C9.83426 9.65039 10.3902 9.66973 10.7453 9.33867C15.9888 4.44996 22.827 1.7577 30 1.75781C45.5728 1.75781 58.2422 14.4272 58.2422 30C58.2422 45.5728 45.5728 58.2422 30 58.2422C14.4272 58.2422 1.75781 45.5728 1.75781 30C1.75781 23.5525 3.98707 17.2472 8.03496 12.2457C8.34023 11.8683 8.28199 11.315 7.90465 11.0095C7.52742 10.7043 6.97406 10.7625 6.66855 11.1397C2.36824 16.4532 0 23.1513 0 30C0 46.581 13.4176 60 30 60C46.581 60 60 46.5824 60 30C60 13.419 46.5824 0 30 0Z" fill="#425F60" fill-opacity="0.3"/>
<path d="M30.8613 35.5274C27.3322 36.6166 25.4782 40.308 26.5316 43.7215C27.3847 46.4864 29.9005 48.344 32.7916 48.344C36.3479 48.344 39.3482 45.4926 39.3482 41.7912C39.3482 37.3981 35.1104 34.216 30.8613 35.5274ZM32.7916 46.5862C30.6763 46.5862 28.8356 45.2267 28.2112 43.2033V43.2032C27.4401 40.7046 28.7966 38.0043 31.3796 37.2071C34.4806 36.2499 37.5903 38.5668 37.5903 41.7912C37.5903 44.5061 35.3864 46.5862 32.7916 46.5862Z" fill="#425F60" fill-opacity="0.3"/>
<path d="M30.9578 18.5871L34.1395 15.4055C34.4827 15.0623 34.4827 14.5058 34.1395 14.1626C33.7963 13.8193 33.2398 13.8194 32.8966 14.1625L29.7149 17.3441C29.3717 17.6873 29.3717 18.2438 29.7149 18.5869C30.0581 18.9303 30.6145 18.9303 30.9578 18.5871Z" fill="#425F60" fill-opacity="0.3"/>
<path d="M32.6422 21.5143C32.9856 21.8575 33.542 21.8574 33.8851 21.5143L37.0667 18.3326C37.4099 17.9893 37.4099 17.4329 37.0667 17.0896C36.7235 16.7465 36.1669 16.7465 35.8238 17.0896L32.6422 20.2713C32.299 20.6145 32.299 21.1709 32.6422 21.5143Z" fill="#425F60" fill-opacity="0.3"/>
<path d="M35.569 24.4413C35.9123 24.7845 36.4687 24.7844 36.8118 24.4413L39.9935 21.2596C40.3367 20.9163 40.3367 20.3599 39.9935 20.0166C39.6502 19.6735 39.0937 19.6735 38.7506 20.0166L35.569 23.1983C35.2257 23.5416 35.2257 24.098 35.569 24.4413Z" fill="#425F60" fill-opacity="0.3"/>
<path d="M38.8811 52.3966C42.2473 50.5562 42.4729 49.1007 45.2687 46.2591C45.9515 45.565 46.4686 44.7503 46.8038 43.8648C50.0243 39.9676 51.7968 35.0514 51.7968 30C51.7968 19.6019 44.3899 10.5989 34.1769 8.60674L29.2673 3.82221C28.0198 2.60639 25.9161 3.49163 25.9161 5.23573V8.58905C24.6889 8.82295 23.4814 9.16373 22.3125 9.60565C19.6514 8.41959 16.7997 10.3637 14.8088 12.5091C9.99172 17.6998 6.59808 27.5122 7.1805 34.5721C7.43011 37.5974 8.54457 40.9745 11.52 41.5409C12.4048 42.9528 13.4479 44.2604 14.6309 45.438C14.3626 46.442 14.362 47.5321 14.6901 48.5947C15.5888 51.5074 18.2391 53.4646 21.285 53.4646C23.1802 53.4646 23.6435 52.7776 25.8369 52.7776C28.9317 52.7776 30.2374 54.5205 34.7352 53.8172C35.2148 53.7421 35.5427 53.2925 35.4677 52.813C35.3927 52.3335 34.9425 52.005 34.4636 52.0805C30.3658 52.7216 29.3871 51.0198 25.837 51.0198C23.377 51.0198 22.8571 51.7067 21.2851 51.7067C19.0152 51.7067 17.0398 50.2479 16.3699 48.0764C16.1124 47.2423 16.1395 46.3631 16.4422 45.5478C16.4476 45.5355 16.454 45.5239 16.4589 45.5114C16.8952 44.3818 17.8114 43.5289 18.9602 43.1746C20.4779 42.7061 21.3222 41.168 20.997 39.6832C20.9267 39.3629 20.5674 38.4724 20.7593 37.1627C20.9894 35.6266 21.9263 34.1905 23.3966 33.3967C23.3967 33.3967 23.3967 33.3966 23.3968 33.3966C24.0758 33.0302 24.3284 33.0057 29.6803 31.3545C30.7006 31.0396 31.7566 30.8791 32.8175 30.8791C36.0089 30.8791 39.1305 32.3646 41.1489 34.8797C42.5813 36.6646 43.6162 37.4048 44.0157 37.8105C45.9747 39.8004 45.9916 43.0184 44.0159 45.0266C41.0832 48.0077 41.0503 49.2083 38.0384 50.8544C37.6125 51.0873 37.4559 51.6213 37.6887 52.0473C37.9212 52.4729 38.4552 52.6295 38.8811 52.3966ZM48.6853 22.7458L36.7702 11.1341C42.2915 13.1084 46.6086 17.3933 48.6853 22.7458ZM27.6739 9.32744V5.23561C27.6739 5.04799 27.8977 4.94182 28.0405 5.08104L49.3423 25.8407C49.4839 25.9787 49.3855 26.2111 49.1916 26.2111H27.8899C27.7708 26.2111 27.674 26.1143 27.674 25.9952V9.32744H27.6739ZM8.93234 34.4272C8.39047 27.8585 11.6148 18.5346 16.0973 13.7045C17.7223 11.9534 19.3271 11.0104 20.6316 11.0104C20.9061 11.0104 21.1674 11.0521 21.4127 11.1369C22.8611 11.6371 23.3816 13.4037 22.5158 14.6521C21.8598 15.5983 21.2348 16.6622 20.6854 17.6918C19.5534 17.3004 18.8144 16.9013 17.802 17.3933C16.6816 17.9379 16.2155 19.2856 16.7604 20.406C17.0236 20.9475 17.482 21.3542 18.0509 21.5508L18.7436 21.7903C18.4961 22.3756 18.2541 22.9745 18.0189 23.5841L16.2984 22.9892C15.1238 22.5831 13.8377 23.2085 13.4316 24.383C13.2349 24.952 13.2716 25.5636 13.5348 26.105C13.798 26.6466 14.2564 27.0532 14.8253 27.2499L16.5468 27.8452C16.3553 28.4697 16.1748 29.0903 16.008 29.7032L15.3151 29.4635C14.1407 29.0577 12.8545 29.6829 12.4483 30.8574C12.2516 31.4264 12.2882 32.038 12.5514 32.5794C12.8146 33.1209 13.2731 33.5276 13.842 33.7242L15.0043 34.1261C14.7792 35.3954 14.6287 36.5836 14.5654 37.6467V37.6473C14.403 40.3612 9.54359 41.8372 8.93234 34.4272ZM19.8796 19.2731C19.7363 19.5689 19.5941 19.8702 19.4534 20.1757L18.6254 19.8894C18.0186 19.6799 18.3165 18.7335 18.9498 18.9516L19.8796 19.2731ZM17.4085 25.2328C17.3001 25.5381 17.1868 25.8663 17.0841 26.1708L15.3996 25.5883C15.1399 25.4986 15.0034 25.2158 15.0928 24.9572C15.1818 24.6995 15.464 24.5608 15.7239 24.6503L17.4085 25.2328ZM15.5688 31.4109C15.4906 31.7382 15.4164 32.063 15.3465 32.3842L14.4165 32.0626C14.1567 31.9729 14.0203 31.6902 14.1098 31.4316C14.199 31.1735 14.4814 31.0352 14.7409 31.1247L15.5688 31.4109ZM42.5195 33.7792C40.2331 30.9302 36.7735 29.1987 33.055 29.1246C31.7777 29.1 30.4736 29.2696 29.1616 29.6743C23.417 31.4469 23.3592 31.4203 22.5634 31.8479C22.561 31.8491 22.5587 31.8503 22.5564 31.8516C20.735 32.833 19.4586 34.5732 19.0702 36.6057C19.0686 36.6143 19.0672 36.6229 19.0655 36.6314C18.7009 38.5804 19.2714 39.8668 19.3032 40.2081C19.3553 40.7786 19.0005 41.3222 18.4416 41.4944C17.2405 41.8651 16.1566 42.6301 15.4132 43.7243C14.7301 42.9989 14.1021 42.2246 13.5343 41.4076C15.0676 40.8935 16.2179 39.4668 16.3202 37.7511C16.7034 31.3222 20.2889 20.9493 23.9605 15.6537C24.9348 14.2486 24.9561 12.3528 23.9175 10.9051C24.5741 10.6956 25.2417 10.5201 25.9162 10.3797C25.9162 27.2986 25.8982 26.1086 25.9564 26.3926C26.1407 27.2911 26.9376 27.969 27.89 27.969C50.8476 27.969 49.4237 28.0287 49.9227 27.83C49.9996 28.5441 50.039 29.2677 50.039 30C50.039 33.6502 49.0326 37.224 47.1637 40.3263C46.6119 36.8783 44.8232 36.6499 42.5195 33.7792Z" fill="#425F60" fill-opacity="0.3"/>
</svg>
