<svg width="60" height="60" viewBox="0 0 60 60" fill="none" xmlns="http://www.w3.org/2000/svg">
<path d="M30 0C29.9995 0 30 0 29.9995 0C22.3805 0 15.1164 2.86008 9.54668 8.05301C9.1916 8.38395 9.17215 8.94012 9.50309 9.2952C9.83426 9.65039 10.3903 9.66961 10.7453 9.33867C15.9888 4.44996 22.827 1.7577 30 1.75781C45.5728 1.75781 58.2422 14.4272 58.2422 30C58.2422 45.5728 45.5728 58.2422 30 58.2422C14.4272 58.2422 1.75781 45.5728 1.75781 30C1.75781 23.5525 3.98707 17.2472 8.03496 12.2457C8.34023 11.8683 8.28199 11.315 7.90465 11.0095C7.52742 10.7043 6.97406 10.7625 6.66855 11.1397C2.36824 16.4532 0 23.1513 0 30C0 38.0133 3.12059 45.547 8.78672 51.2133C14.4531 56.8794 21.9867 60 30 60C46.581 60 60 46.5824 60 30C60 13.419 46.5824 0 30 0Z" fill="#425F60" fill-opacity="0.3"/>
<path d="M46.5889 33.3299C46.5869 33.3286 46.585 33.3271 46.583 33.3258C45.5244 32.6138 44.2564 32.2049 42.9112 32.2049C41.6625 32.2049 41.0748 32.5714 38.9675 32.5714C35.3843 32.5715 31.882 31.2639 29.1059 28.8894C24.8336 25.2358 18.2535 25.1689 13.9152 29.3965C11.7381 31.5181 10.5246 34.3486 10.4982 37.3665C10.4577 42.0151 13.2114 46.1555 17.5136 47.9145C21.3718 49.4925 34.5241 52.6729 46.6956 44.2042C50.4342 41.6032 50.4596 35.9397 46.5889 33.3299ZM15.1419 30.6556C16.9799 28.8645 19.3942 27.902 21.935 27.9454C22.3942 27.9528 22.8499 27.9954 23.2995 28.0682L12.3773 38.9903C12.2937 38.4652 12.2511 37.9279 12.2558 37.3819C12.2782 34.8364 13.3031 32.4475 15.1419 30.6556ZM12.9069 40.9469L25.2518 28.602C27.2252 29.3748 27.8252 30.2276 29.2958 31.2559L15.7241 44.8276C14.4626 43.7942 13.4957 42.4576 12.9069 40.9469ZM17.2104 45.8274L30.8265 32.2114C32.3638 33.0618 34.0175 33.6682 35.7274 34.0084L22.2911 47.4445C20.6786 47.1292 18.6466 46.6094 17.2104 45.8274ZM24.4304 47.7912L37.9261 34.2957C41.7077 34.5345 42.4757 33.4534 44.6371 34.2826L30.93 47.9896C28.6881 48.1503 26.5499 48.066 24.4304 47.7912ZM45.6915 42.7613C42.0395 45.3022 38.0392 46.9395 33.7505 47.6549L46.1727 35.2327C48.4645 37.3336 48.193 41.0212 45.6915 42.7613Z" fill="#425F60" fill-opacity="0.3"/>
<path d="M8.26062 31.555C7.42484 33.4684 7.05078 35.4408 7.04199 37.4679C7.04199 43.7527 11.0114 49.1155 16.2192 51.1185C23.6439 54.0131 33.9501 54.2502 42.7789 50.357C43.223 50.1612 43.4244 49.6423 43.2284 49.1981C43.0325 48.754 42.5136 48.5529 42.0697 48.7486C33.7069 52.4361 23.8742 52.2161 16.8645 49.4835C11.9649 47.4777 8.79969 42.7619 8.79969 37.468C8.83039 30.5492 14.1256 25.2307 20.6116 24.5463C23.7728 24.2478 26.8936 25.1107 29.463 27.0073C30.3727 27.683 33.6178 31.0146 39.3297 30.8566C41.677 30.7908 42.5975 30.1086 45.1237 30.809C51.91 32.6911 53.3539 41.64 47.6653 45.5981C46.9977 46.0628 46.3085 46.5069 45.6169 46.9184C45.1998 47.1666 45.0628 47.706 45.3111 48.123C45.5593 48.5401 46.0986 48.6773 46.5158 48.4289C47.2429 47.9963 47.9675 47.5293 48.6692 47.0409C51.3521 45.1741 52.9539 42.1023 52.9539 38.8239C52.9539 37.024 52.4859 35.2145 51.4996 33.5876C51.6963 32.4055 51.7969 31.2006 51.7969 30C51.7969 28.9707 51.7216 27.9354 51.5751 26.9119C52.0089 26.6294 52.2971 26.1411 52.2971 25.5859V23.8867H52.8244C53.6968 23.8867 54.4065 23.177 54.4065 22.3046V20.4296C54.4065 19.5573 53.6968 18.8476 52.8244 18.8476H48.7163C47.0227 16.0168 44.694 13.5868 41.9395 11.7758C41.8962 11.4719 41.8221 11.1705 41.7121 10.8773C41.2809 9.72736 40.3944 8.85373 39.2682 8.43455C39.2231 6.44435 37.8317 4.66064 35.8346 4.18814C33.8831 3.72712 31.9039 4.62021 30.9383 6.30513C30.277 6.07966 29.5743 6.02798 28.8775 6.15525C27.8211 4.45064 25.7243 3.63958 23.7593 4.25212C22.5712 4.62243 21.6071 5.47275 21.0752 6.56822C20.3596 6.35763 19.578 6.3499 18.8187 6.58662C17.1412 7.10974 16.0487 8.69705 16.0872 10.3959C15.173 10.8394 14.4866 11.6376 14.1897 12.6369C13.9618 13.4041 13.9924 14.2142 14.2502 14.9484C10.3462 19.0267 8.2032 24.3473 8.2032 30C8.2032 30.5096 8.22324 31.0315 8.26062 31.555ZM50.5393 25.4101H38.8205V23.8867H50.5393V25.4101ZM52.6487 22.1288C51.2739 22.1288 42.2872 22.1288 40.9299 22.1288V20.6054H52.6487V22.1288ZM46.6371 18.8476H40.7541C39.8818 18.8476 39.1721 19.5573 39.1721 20.4296V22.1288H38.6448C37.7724 22.1288 37.0627 22.8385 37.0627 23.7109V25.5859C37.0627 26.4582 37.7724 27.1679 38.6448 27.1679H49.8373C49.9713 28.1067 50.0391 29.0563 50.0391 30C50.0391 30.5503 50.0164 31.1018 49.9712 31.6512C48.7023 30.3949 47.0887 29.4756 45.2927 29.0367C42.9901 28.4747 41.3299 28.895 40.5432 28.9985C36.6283 29.5134 33.9914 28.3721 30.9844 25.9594C27.7505 23.3579 23.8668 22.3472 20.0414 22.8399C16.1047 23.3218 12.5264 25.2962 10.0101 28.5876C10.3243 24.0597 12.1457 19.8276 15.2348 16.4668C15.6645 16.9349 16.4111 17.7254 18.0014 19.4278C18.5616 20.0277 19.3621 20.3958 20.2466 20.3958C21.3222 20.39 23.5146 20.3781 24.6128 20.3723C25.8803 21.9076 28.1125 22.1758 29.7103 21.0112C31.3252 22.1896 33.6062 21.8951 34.8679 20.3007L35.1696 20.2991C36.2105 20.2933 37.1835 19.8265 37.839 19.0181L41.0325 15.0801C41.33 14.7132 41.5858 14.2677 41.7535 13.7811C43.6612 15.1688 45.3194 16.8895 46.6371 18.8476ZM29.4914 17.7871C29.6021 18.9636 28.6721 19.9727 27.5037 19.9727C26.4031 19.9727 25.5066 19.0765 25.5066 17.9756C25.5066 16.8745 26.4025 15.9786 27.5037 15.9786C28.5152 15.9787 29.393 16.754 29.4914 17.7871ZM33.0304 16.3165C33.037 16.3208 33.0432 16.3256 33.0498 16.3301C34.023 17 34.2091 18.3622 33.4447 19.2634C32.803 20.0216 31.7019 20.1964 30.8575 19.6636C31.3879 18.6088 31.3953 17.3566 30.8572 16.2872C31.5438 15.854 32.395 15.8901 33.0304 16.3165ZM32.2634 7.61236C32.7285 6.31849 34.0896 5.58115 35.4298 5.89884C36.7999 6.22298 37.6996 7.5649 37.4782 8.9538C37.4025 9.42853 37.7221 9.87595 38.1958 9.95822C39.0758 10.111 39.7576 10.671 40.0664 11.4944C40.374 12.3149 40.2501 13.2544 39.6673 13.9728C36.2768 18.1536 36.312 18.2651 35.6434 18.4663C35.8236 17.1036 35.2343 15.7154 34.0773 14.9018C34.4192 14.0203 34.4042 13.0407 34.0573 12.1693C33.6836 11.2308 32.9541 10.5091 32.0364 10.1397C32.0054 9.48162 31.7923 8.82138 31.4595 8.28127C31.8195 8.22349 32.1325 7.97669 32.2634 7.61236ZM24.2823 5.93025C25.2677 5.62263 26.3077 5.90634 26.9997 6.59787C26.0771 6.8831 25.3105 7.49927 24.8328 8.27869C24.3113 8.11896 23.7459 8.08638 23.2316 8.16666C23.0705 7.92044 22.8553 7.65959 22.6086 7.4333C22.9196 6.72103 23.527 6.1658 24.2823 5.93025ZM15.8745 13.1375C16.0708 12.4767 16.5731 12.0017 17.2527 11.834C17.7193 11.7191 18.007 11.2503 17.8982 10.7819C17.6473 9.70099 18.2814 8.59533 19.3419 8.26474C20.3859 7.93884 21.4931 8.45658 21.9264 9.43416C22.1357 9.90666 22.6812 10.1488 23.1695 9.98552C24.1162 9.66806 24.6867 10.1612 24.941 10.2265C25.4492 10.3569 25.9653 10.0845 26.1421 9.59283C26.5091 8.57201 27.5828 7.99052 28.6402 8.24107C29.7212 8.49677 30.431 9.55545 30.2562 10.6511C30.1805 11.1259 30.5002 11.5733 30.9739 11.6556C32.2333 11.8741 32.8578 13.156 32.4397 14.2567C31.4966 14.1255 30.5053 14.3607 29.7121 14.9386C29.0998 14.4926 28.3209 14.2207 27.5036 14.2207C25.1824 14.2207 23.4056 16.3183 23.8041 18.6186L20.237 18.6378C19.8816 18.6355 19.5311 18.4904 19.286 18.2278C16.4335 15.1742 16.2857 15.026 16.1523 14.8463C15.8268 14.3883 15.688 13.7656 15.8745 13.1375Z" fill="#425F60" fill-opacity="0.3"/>
</svg>
