<svg width="60" height="60" viewBox="0 0 60 60" fill="none" xmlns="http://www.w3.org/2000/svg">
<g clip-path="url(#clip0)">
<path d="M60 43.1761C60 41.4799 58.6201 40.1 56.9239 40.1H53.1845C55.052 38.6194 56.2304 36.332 56.2304 33.7736C56.2304 31.1651 54.9641 28.7122 52.8401 27.2003L46.6297 21.6288C46.7705 21.4681 46.8565 21.3701 46.8731 21.3511C46.8756 21.3484 46.8782 21.3455 46.8806 21.3427C46.8806 21.3425 46.8807 21.3425 46.8809 21.3424C47.394 20.7519 47.4749 19.8873 47.093 19.169L49.6438 17.6963C50.84 19.0118 52.8925 19.4044 54.5551 18.381C57.2654 16.7121 56.9201 12.5838 53.8989 11.4372C54.4152 8.25645 51.0393 5.91552 48.2571 7.3738C46.6236 8.2302 45.8481 10.0988 46.2997 11.8124L43.7058 13.3099C43.2656 12.6691 42.5058 12.3386 41.7657 12.4827L36.3339 13.5368C33.4487 12.197 30.139 11.4881 26.7382 11.4881C24.7891 11.4881 22.8518 11.7175 20.98 12.1697C20.5082 12.2837 20.2181 12.7586 20.3321 13.2305C20.4462 13.7024 20.9209 13.9927 21.3929 13.8783C23.1296 13.4586 24.9281 13.2459 26.7382 13.2459C28.9294 13.2459 31.0765 13.5613 33.0748 14.1693C29.1291 14.935 29.0561 14.8923 28.0161 15.3377C27.9841 15.3515 27.9524 15.3656 27.9206 15.3797C25.2449 16.5636 23.3569 18.9877 22.8004 21.9239C22.3116 24.4228 22.8627 26.9218 24.1361 28.9802C25.8328 31.7286 28.6209 33.4243 31.7272 33.6125C31.7297 33.6127 31.7321 33.613 31.7346 33.6131C31.7537 33.6143 31.7726 33.6148 31.7917 33.6158C34.8563 33.7804 37.5677 32.4955 39.3285 30.1657C39.3527 30.1336 39.3798 30.0983 39.4085 30.0614C39.4136 30.055 39.4187 30.0484 39.4237 30.0418C40.4896 28.6736 44.332 24.2605 45.4726 22.9527L51.685 28.5258C51.7158 28.5549 51.7489 28.5819 51.7846 28.607C53.4676 29.7874 54.4725 31.7189 54.4725 33.7737C54.4725 37.2769 51.6635 40.0842 48.162 40.0842H41.3125C41.31 37.2499 38.6569 34.9449 35.3958 34.9449C33.6432 34.9449 32.0175 35.6118 30.9086 36.7357C29.5518 35.3671 27.5475 34.757 25.5926 34.9957C25.3036 34.6819 24.9512 34.438 24.5849 34.2768C24.4021 31.9283 21.8891 30.5514 19.8145 31.5996C19.243 27.8913 14.2895 26.8881 12.339 30.1356C11.7816 29.9591 11.1937 29.917 10.6091 30.0133C10.0556 29.153 9.20637 28.5568 8.27145 28.3014C8.69883 26.9018 9.13863 25.4104 9.6068 23.7736C10.6577 20.1 13.5231 17.0379 17.675 15.1512C18.117 14.9503 18.3124 14.4293 18.1117 13.9874C17.9108 13.5455 17.3898 13.3501 16.9479 13.5508C12.3191 15.6541 9.1118 19.1131 7.91684 23.2901C7.4018 25.0906 6.9218 26.7121 6.4548 28.2292C6.30223 28.2581 6.14977 28.2954 5.99824 28.3427C4.24172 28.8905 3.10125 30.5586 3.15504 32.3388C2.19059 32.7976 1.46566 33.634 1.15395 34.6832C0.761836 36.0032 1.10039 37.4463 2.03766 38.4497L3.57973 40.1005H3.07617C1.37988 40.1 0 41.48 0 43.1761C0 44.565 0.92543 45.7412 2.19199 46.1221L2.71699 50.1604C2.93262 51.8189 4.35645 53.0697 6.02894 53.0697H47.6269C48.1124 53.0697 48.5058 52.6763 48.5058 52.1908C48.5058 51.7052 48.1124 51.3118 47.6269 51.3118H6.02883C5.23664 51.3118 4.56223 50.7193 4.46004 49.9337L3.98145 46.2522H56.0184L55.5398 49.9337C55.4377 50.7193 54.7632 51.3118 53.9709 51.3118H51.7282C51.2427 51.3118 50.8493 51.7052 50.8493 52.1908C50.8493 52.6763 51.2427 53.0697 51.7282 53.0697H53.9709C55.6434 53.0697 57.0674 51.8189 57.283 50.1604L57.808 46.1221C59.0746 45.7413 60 44.565 60 43.1761ZM47.8252 12.9615C48.2319 12.7267 48.3821 12.2136 48.1664 11.7967C47.63 10.7597 48.037 9.47415 49.0734 8.93075C50.7271 8.06356 52.6675 9.63563 52.0911 11.4613C51.8801 12.13 52.2898 12.8394 52.9744 12.9911C54.8448 13.4047 55.2482 15.8902 53.6334 16.8843C52.601 17.5204 51.2503 17.174 50.6551 16.1109C50.4158 15.6836 49.8729 15.5345 49.4488 15.7792L46.2164 17.6454C44.9614 15.4717 45.38 16.1968 44.5904 14.8291L47.8252 12.9615ZM42.2704 14.3259C45.5995 20.0922 45.6537 20.0752 45.5541 20.1893C45.3606 20.4111 39.1577 27.4765 37.9262 29.1058C37.9252 29.1072 37.9241 29.1084 37.923 29.1099C36.5312 30.9485 34.3172 32.0099 31.8332 31.858C29.3081 31.6984 27.0077 30.2827 25.6295 28.0531C24.2648 25.8438 23.992 23.1519 24.9704 20.783C25.6093 19.2362 26.7262 17.998 28.1381 17.2307C28.1387 17.2303 28.1394 17.23 28.14 17.2296C29.3402 16.5779 30.1712 16.5234 31.6739 16.2318C42.918 14.0496 42.1557 14.1273 42.2704 14.3259ZM35.3959 36.7024C37.6876 36.7024 39.5522 38.2191 39.5548 40.084H32.3438C32.3438 39.4262 32.1913 38.7786 31.9373 38.2126C32.7056 37.2713 33.987 36.7024 35.3959 36.7024ZM30.5856 40.1H23.8669C23.7735 39.4082 23.5059 38.722 23.052 38.1168C25.3983 35.4727 30.6091 36.7772 30.5856 40.1ZM16.7482 30.1341C16.7548 30.137 16.761 30.1403 16.7674 30.1432C17.6063 30.5303 18.2179 31.4052 18.0712 32.6168C17.889 32.6007 17.6517 32.602 17.4415 32.6274C16.5998 31.4308 15.0553 30.9331 13.6659 31.4153C14.1362 30.1704 15.5566 29.5978 16.7482 30.1341ZM22.8223 34.3311C22.8233 34.339 22.8244 34.3467 22.8253 34.3546C22.8764 34.7708 22.7085 34.9637 22.9171 35.3419C23.01 35.5102 23.1476 35.6333 23.3044 35.7089C23.3065 35.71 23.3082 35.7114 23.3104 35.7123C22.7033 36.0387 22.1666 36.4624 21.7259 36.9654C21.1179 36.6268 20.4187 36.4331 19.6748 36.4331C18.8517 36.4331 18.0544 36.6744 17.3756 37.1142C16.397 35.8764 14.8661 35.1745 13.245 35.2969C13.2818 35.1574 13.2816 35.0016 13.2516 34.8723C13.0709 34.094 13.5274 33.2978 14.2913 33.0598C15.0363 32.8273 15.8366 33.1893 16.1522 33.9017C16.3561 34.3622 16.8881 34.5976 17.3634 34.4382C17.8439 34.2774 18.2262 34.4066 18.4624 34.5437C18.9418 34.8224 19.638 34.6208 19.8554 34.0172C19.9252 33.8235 20.0343 33.6464 20.1802 33.4911C20.3261 33.3359 20.1802 33.4911 20.1803 33.491C21.066 32.547 22.6446 33.0546 22.8223 34.3311ZM10.5596 40.1C10.5537 38.406 11.9309 37.041 13.6062 37.041C15.2911 37.041 16.6587 38.4164 16.6527 40.1H10.5596ZM18.2006 38.6797C18.6238 38.3651 19.1404 38.1909 19.675 38.1909C20.33 38.1909 20.9262 38.4474 21.369 38.8648C21.3749 38.8703 21.3805 38.8761 21.3864 38.8816C21.7189 39.2013 21.9689 39.6237 22.0808 40.1H18.4109C18.4107 39.6413 18.3438 39.1447 18.2006 38.6797ZM3.32215 37.2492C2.80113 36.6914 2.62043 35.9191 2.83898 35.1834C3.05063 34.4713 3.5918 33.9594 4.32387 33.7787C4.79051 33.6636 5.07832 33.195 4.96957 32.7266C4.6998 31.5647 5.3816 30.3759 6.5216 30.0205C7.72477 29.6449 8.92219 30.3333 9.29988 31.2774C9.51633 31.7663 10.0819 31.9949 10.5514 31.8328C11.56 31.4947 12.1812 32.0175 12.4425 32.0852C12.4426 32.0852 12.4455 32.0859 12.4454 32.0859C12.4664 32.0913 12.4978 32.0983 12.5217 32.1025C11.8461 32.7273 11.4647 33.6111 11.455 34.4971C10.491 35.0118 9.85254 36.0172 9.81187 37.1402C9.1793 37.9533 8.80137 38.9833 8.80137 40.1H5.985L3.32215 37.2492ZM56.9989 44.4906C56.9923 44.4907 56.9857 44.4901 56.979 44.4904C56.9609 44.4913 56.9427 44.4925 56.9246 44.4936L56.9139 44.4943C56.7084 44.4943 3.27645 44.4965 3.00094 44.4906C2.30906 44.4513 1.75781 43.8777 1.75781 43.1761C1.75781 42.4492 2.34914 41.8579 3.07605 41.8579H56.9239C57.6509 41.8579 58.2422 42.4492 58.2422 43.1761C58.2422 43.8778 57.6909 44.4513 56.9989 44.4906Z" fill="#425F60" fill-opacity="0.3"/>
</g>
<defs>
<clipPath id="clip0">
<rect width="60" height="60" fill="white"/>
</clipPath>
</defs>
</svg>
