<svg width="60" height="60" viewBox="0 0 60 60" fill="none" xmlns="http://www.w3.org/2000/svg">
<g clip-path="url(#clip0)">
<path d="M26.8616 18.5489C27.5855 18.5489 28.2445 18.2678 28.7366 17.8095C29.2287 18.2678 29.8877 18.5489 30.6116 18.5489C32.1301 18.5489 33.3655 17.3135 33.3655 15.795V14.6453H35.2625C36.053 14.6453 36.8164 14.3146 37.3569 13.738L42.6639 8.0781C42.7191 8.01939 42.7969 7.98564 42.8775 7.98564H58.418C59.2903 7.98564 60 7.27595 60 6.40361V3.74744C60 2.87509 59.2903 2.16541 58.418 2.16541H42.7583C41.9289 2.16541 41.1408 2.47994 40.5395 3.05099L34.4507 8.83173C34.1769 9.09166 33.9305 9.14416 33.3654 9.14638V8.45451C33.3654 6.93599 32.13 5.7006 30.6115 5.7006C29.8876 5.7006 29.2286 5.98173 28.7365 6.44005C28.2444 5.98173 27.5854 5.7006 26.8615 5.7006C26.1376 5.7006 25.4786 5.98173 24.9865 6.44005C24.4944 5.98173 23.8354 5.7006 23.1115 5.7006C22.3876 5.7006 21.7286 5.98173 21.2365 6.44005C20.7444 5.98173 20.0854 5.7006 19.3615 5.7006C17.843 5.7006 16.6076 6.93599 16.6076 8.45451V22.4178C16.0077 23.3924 15.8135 24.552 16.0555 25.6662C14.7007 26.6983 13.479 27.8936 12.4196 29.228C12.1179 29.6081 12.1814 30.161 12.5616 30.4628C12.9417 30.7646 13.4946 30.701 13.7964 30.3209C14.6784 29.2097 15.683 28.2034 16.791 27.3198C17.6564 28.5247 19.0212 29.1472 20.374 29.1472C22.8218 29.1472 24.797 27.1512 24.797 24.717C24.797 24.3543 24.7504 23.9918 24.6599 23.6392C26.7935 23.2085 28.0955 23.2608 30.2604 23.2608C38.4739 23.2608 42.9773 28.3914 43.3687 28.6075C46.4977 31.694 48.3907 35.7537 48.8064 40.0944C48.8675 40.7458 48.5468 41.3774 47.957 41.6979C47.948 41.7028 47.9393 41.7082 47.9302 41.713C47.1503 42.1183 46.3102 41.8376 45.7267 41.1721C45.7215 41.1661 45.7163 41.16 45.7112 41.1539C45.3882 40.7781 45.1649 40.2583 45.1409 39.721L45.0935 38.659C45.0258 37.1444 43.6474 36.0613 42.1802 36.3146C41.2406 36.472 40.4861 37.1478 40.2178 38.0485C40.0379 38.6417 40.1905 38.7969 39.9847 39.2576C39.9783 39.2694 39.9703 39.2802 39.9643 39.2925C39.7389 39.757 39.2957 40.0662 38.781 40.1113C38.2388 40.1583 37.7314 39.9224 37.4251 39.4881C37.2555 39.2475 37.155 38.9549 37.155 38.6388V36.2814C37.155 35.1333 36.7325 34.2237 36.0077 33.5407C35.8723 33.4131 35.7275 33.2967 35.5757 33.1922C36.4534 32.384 37.0044 31.2262 37.0044 29.9418C37.0044 27.5046 35.0217 25.5219 32.5846 25.5219C30.1474 25.5219 28.1647 27.5046 28.1647 29.9418C28.1647 31.6929 29.1885 33.2094 30.6688 33.9244C30.1954 34.5174 29.9081 35.2479 29.8605 36.0279C29.8598 36.0386 29.8587 36.0491 29.8582 36.0598C29.8506 36.2038 29.8527 36.0305 29.8527 38.8146C29.8527 40.6071 29.8782 40.676 29.7666 40.9873C29.7657 40.9895 29.7649 40.9917 29.7641 40.994C29.5365 41.6188 28.9322 41.9991 28.3147 41.9761C27.5271 41.9481 26.8864 41.2579 26.8864 40.4374V39.3061V34.4152C26.8864 33.2557 25.9431 32.3125 24.7838 32.3125C24.0417 32.3125 18.3179 32.3125 17.4518 32.3125C16.2102 32.3125 15.1475 33.1572 14.8672 34.3668L14.4969 35.9657C14.333 36.6709 13.7575 37.1444 13.0692 37.1747C12.5073 37.199 12.052 37.1844 11.7193 36.7624C11.5645 36.5703 11.4714 36.3258 11.4714 36.0597V36.0147C11.4712 35.1837 11.6053 34.3567 11.8696 33.5569C12.0219 33.096 11.7717 32.5989 11.3108 32.4465C10.8498 32.2943 10.3529 32.5443 10.2005 33.0053C9.87715 33.9835 9.71332 34.9961 9.71344 36.0148V36.0597C9.71344 36.3163 9.74766 36.5651 9.81082 36.8021C6.35156 38.5853 3.76957 41.7526 2.73059 45.496C1.20785 45.5985 0 46.8694 0 48.4179C0 49.9126 1.12547 51.1486 2.57332 51.3251L2.95254 54.3908C3.19535 56.3541 4.87031 57.8346 6.84867 57.8346H45.4679C45.9534 57.8346 46.3468 57.4411 46.3468 56.9557C46.3468 56.4703 45.9534 56.0768 45.4679 56.0768H6.84867C5.75625 56.0768 4.83117 55.2592 4.69711 54.175L4.34742 51.3475H55.6268L55.2771 54.175C55.1429 55.2592 54.218 56.0768 53.1255 56.0768H49.5696C49.0841 56.0768 48.6907 56.4703 48.6907 56.9557C48.6907 57.4411 49.0841 57.8346 49.5696 57.8346H53.1255C55.1039 57.8346 56.7789 56.3541 57.0217 54.3908L57.4005 51.3284C58.8609 51.164 60 49.9218 60 48.4179C60 46.9082 58.852 45.6618 57.3831 45.5051C56.8954 43.1699 55.9189 40.9273 54.5337 38.9801C53.0945 36.9572 51.2074 35.2395 49.0632 33.994C48.0891 31.6758 46.6855 29.5446 44.9091 27.7111C45.2286 27.0913 45.3957 26.4062 45.3957 25.6942C45.3957 23.2572 43.413 21.2744 40.9759 21.2744C39.6589 21.2744 38.4198 21.8686 37.5878 22.8613C35.2729 21.9702 32.7939 21.5029 30.2604 21.5029C28.7879 21.5029 27.4479 21.4653 25.8654 21.6577V18.3618C26.1746 18.4821 26.5104 18.5489 26.8616 18.5489ZM24.6957 34.0699H24.7839C24.9741 34.0699 25.1287 34.2246 25.1287 34.4148V37.5454C24.2747 36.9847 23.3641 36.5214 22.4145 36.1613C23.0277 35.3197 23.8016 34.6089 24.6957 34.0699ZM37.2025 45.4882C37.6972 44.8423 38.4757 44.4321 39.3267 44.4321C39.7451 44.4321 40.9867 44.3196 41.8816 45.4882H37.2025ZM30.5189 44.2278C30.4739 44.1106 30.2972 43.667 30.1017 43.2547C30.0988 43.2487 30.0963 43.2424 30.0934 43.2364C30.8898 42.7341 31.4528 41.8951 31.5817 40.9207C31.582 40.9178 31.5827 40.9149 31.5832 40.9118C31.5838 40.9078 31.5839 40.9038 31.5844 40.8999C31.6178 40.6338 31.6107 40.5839 31.6107 39.2516C32.7553 38.4175 34.0434 37.787 35.3974 37.3958C35.3974 38.7649 35.3715 38.9639 35.5028 39.4582C33.278 40.361 31.5042 42.0724 30.5189 44.2278ZM32.2427 34.8194C32.6575 34.6296 33.0826 34.457 33.51 34.3051C34.3302 34.3051 35.044 34.8471 35.2979 35.6011C34.005 35.934 32.7594 36.4574 31.6106 37.1466V36.2602C31.6106 35.7344 31.8255 35.2106 32.2427 34.8194ZM49.0344 45.4882C48.8304 44.7974 48.5455 44.1298 48.1871 43.5018C49.0134 43.2404 49.708 42.6806 50.1314 41.9359C50.1352 41.9292 50.1389 41.9227 50.1425 41.916C50.9373 43.0016 51.5448 44.2076 51.9407 45.4882H49.0344ZM41.8686 38.749C41.8808 38.3228 42.2634 37.9839 42.6984 38.0415C43.0527 38.0878 43.3214 38.3806 43.3375 38.7374L43.3659 39.3756C42.876 39.1901 42.3707 39.0455 41.8566 38.9444C41.8623 38.8797 41.8668 38.8147 41.8686 38.749ZM38.6508 41.8752C39.6655 41.8752 40.6048 41.4116 41.2125 40.6147C42.1448 40.7585 43.0495 41.0775 43.8654 41.5514C44.3603 42.4779 45.1818 43.1652 46.0586 43.4718C46.5347 44.0846 46.9146 44.7669 47.1836 45.4881H43.8816C43.2251 43.8222 41.5918 42.6742 39.7574 42.6742H39.3266C37.4921 42.6742 35.859 43.8222 35.2025 45.4881H31.898C32.6653 43.4078 34.3076 41.761 36.4118 40.9907C37.0025 41.549 37.802 41.8751 38.6338 41.8751H38.6508V41.8752ZM32.5847 27.2795C34.0525 27.2795 35.2467 28.4737 35.2467 29.9415C35.2467 31.4093 34.0526 32.6036 32.5847 32.6036C31.1168 32.6036 29.9227 31.4094 29.9227 29.9415C29.9227 28.4738 31.1168 27.2795 32.5847 27.2795ZM17.4519 34.0699H21.8859C21.4246 34.542 21.0117 35.062 20.6543 35.6233C19.6139 35.3788 18.5423 35.252 17.4592 35.252H16.4666L16.5798 34.7631C16.6744 34.3551 17.033 34.0699 17.4519 34.0699ZM10.7612 38.29C11.8212 39.1764 13.4412 39.0027 14.1945 38.7099C14.1963 38.7092 14.1981 38.7083 14.1998 38.7076C14.9882 38.3994 15.633 37.7949 15.9892 37.0124C16.1365 37.0091 16.0955 37.0099 17.4593 37.0099C20.2527 37.0099 22.9605 37.9687 25.1289 39.7173C25.1289 40.4962 25.0692 41.1321 25.5064 41.9673C26.0593 43.0232 27.1467 43.7377 28.3782 43.7346C28.6689 44.3096 28.9055 44.8895 29.0984 45.4883H27.2325C25.73 41.5984 21.9628 38.7679 17.4594 38.7679H16.2074C13.9362 38.7679 11.7741 39.4859 9.95496 40.8442C8.37328 42.0252 7.14152 43.6573 6.4343 45.4883H4.56633C5.57109 42.3731 7.81219 39.7603 10.7612 38.29ZM22.3273 45.4882C21.4227 43.4548 19.4156 42.1288 17.1462 42.1288H16.5202C14.2507 42.1288 12.2436 43.4547 11.3392 45.4882H8.34316C9.77227 42.477 12.7964 40.5256 16.2071 40.5256H17.4592C20.8699 40.5256 23.8941 42.477 25.3232 45.4882H22.3273ZM20.3071 45.4882H13.3595C14.0814 44.4986 15.24 43.8866 16.5203 43.8866H17.1463C18.4263 43.8867 19.5851 44.4986 20.3071 45.4882ZM58.2422 48.4179C58.2422 49.0641 57.7165 49.5898 57.0703 49.5898C56.7118 49.5898 4.02457 49.5898 2.92969 49.5898C2.28352 49.5898 1.75781 49.0641 1.75781 48.4179C1.75781 47.7717 2.28352 47.246 2.92969 47.246H57.0703C57.7165 47.246 58.2422 47.7717 58.2422 48.4179ZM55.5823 45.4882H53.7671C53.1853 43.3065 52.0752 41.2971 50.5248 39.6252C50.4154 38.6346 50.2269 37.6377 49.9915 36.7343C52.8007 38.9262 54.7697 41.9935 55.5823 45.4882ZM39.3129 23.6179C41.315 22.016 44.244 23.916 43.5388 26.4189C42.2862 25.3417 40.8277 24.3689 39.3129 23.6179ZM35.6611 10.1064L41.75 4.32552C42.0232 4.06607 42.3814 3.9231 42.7583 3.9231H58.2422V6.22783H42.8776C42.3129 6.22783 41.7675 6.46408 41.3816 6.87587L36.0746 12.5357C35.6497 12.989 35.3039 12.8875 33.3655 12.8875V10.9043C34.1628 10.901 34.9243 10.8056 35.6611 10.1064ZM30.6116 7.4583C31.1609 7.4583 31.6077 7.90513 31.6077 8.45439V10.0164V13.7664V15.795C31.6077 16.3443 31.1609 16.7911 30.6116 16.7911C30.0623 16.7911 29.6155 16.3443 29.6155 15.795V8.45439C29.6155 7.90513 30.0623 7.4583 30.6116 7.4583ZM26.8616 7.4583C27.4109 7.4583 27.8577 7.90513 27.8577 8.45439V15.795C27.8577 16.3443 27.4109 16.7911 26.8616 16.7911C26.3123 16.7911 25.8655 16.3443 25.8655 15.795V8.45439C25.8655 7.90513 26.3123 7.4583 26.8616 7.4583ZM23.0361 24.7273C23.0361 26.0801 21.9717 27.31 20.5137 27.3856C18.9657 27.4606 17.7122 26.2321 17.7122 24.7273C17.7122 23.3617 18.7525 22.2176 20.1006 22.0793C20.1023 22.0791 20.1042 22.079 20.106 22.0788C21.6833 21.9203 23.0361 23.1661 23.0361 24.7273ZM18.3655 8.45439C18.3655 7.90513 18.8123 7.4583 19.3616 7.4583C19.9109 7.4583 20.3577 7.90513 20.3577 8.45439V20.3052C19.659 20.306 18.9778 20.4724 18.3655 20.7858V8.45439ZM23.8604 22.0111C23.4271 21.4562 22.8397 20.9869 22.1579 20.6849C22.1436 20.6786 22.1299 20.6712 22.1155 20.6651V8.45439C22.1155 7.90513 22.5623 7.4583 23.1116 7.4583C23.6609 7.4583 24.1077 7.90513 24.1077 8.45439V21.9549C24.0265 21.9724 23.943 21.9921 23.8604 22.0111Z" fill="#425F60" fill-opacity="0.3"/>
</g>
<defs>
<clipPath id="clip0">
<rect width="60" height="60" fill="white"/>
</clipPath>
</defs>
</svg>
