<svg width="60" height="60" viewBox="0 0 60 60" fill="none" xmlns="http://www.w3.org/2000/svg">
<g clip-path="url(#clip0)">
<path d="M59.1786 21.1096C57.3099 17.5121 53.0845 16.3537 50.1424 17.5568L48.0053 18.4357C48.0115 18.0325 48.0098 18.355 48.0098 12.8337C48.0098 11.8937 47.245 11.1289 46.305 11.1289H2.29862C1.35862 11.1289 0.593821 11.8936 0.593821 12.8337V17.8623C0.593821 18.8102 0.630737 19.7663 0.703513 20.7046C0.741015 21.1886 1.16326 21.5506 1.64785 21.5128C2.13174 21.4753 2.49374 21.0525 2.45612 20.5685C2.38686 19.6754 2.35171 18.7648 2.35171 17.8622V12.8867H10.7864V15.1206H5.01221C4.52679 15.1206 4.13326 15.514 4.13326 15.9995C4.13326 18.5244 3.95021 23.1016 6.06717 28.7107V31.4009C6.06717 31.8865 6.4607 32.2799 6.94611 32.2799H7.70739C9.70119 35.9063 12.5586 39.0697 16.1458 41.064C16.2765 41.1367 16.4235 41.1748 16.573 41.1748C33.2829 41.1748 32.1692 41.2246 32.4578 41.064C40.3194 36.6931 44.4704 27.1151 44.4704 17.8623V15.9995C44.4704 15.514 44.0769 15.1206 43.5914 15.1206H20.6051V12.8867H46.2519V17.8622C46.2519 28.0441 41.6238 38.768 32.607 43.4086H15.9966C9.53079 40.0786 4.67868 33.0379 2.9972 24.5275C2.9031 24.0513 2.44054 23.7406 1.9645 23.8357C1.48823 23.9298 1.17849 24.3921 1.2726 24.8684C2.82891 32.7449 6.97998 39.4506 12.6178 43.4087H1.46972C0.497255 43.4087 -0.211993 44.3412 0.0577838 45.2821C0.663316 47.3951 2.6216 48.8709 4.81966 48.8709H32.2238C32.7092 48.8709 33.1027 48.4775 33.1027 47.992C33.1027 47.5064 32.7092 47.113 32.2238 47.113H4.81966C3.53324 47.113 2.37421 46.3296 1.87837 45.1666H45.7218C45.2259 46.3296 44.0669 47.113 42.7806 47.113H36.3255C35.8401 47.113 35.4466 47.5064 35.4466 47.992C35.4466 48.4775 35.8401 48.8709 36.3255 48.8709H42.7806C45.8206 48.8709 47.5998 46.1728 47.5998 44.8763C47.5998 44.0671 46.9407 43.4087 46.1305 43.4087H35.9942C37.6703 42.2338 39.2192 40.8128 40.6132 39.1749H45.0696C45.6211 39.1749 46.1635 38.9872 46.5971 38.6464L56.9747 30.4891C59.9013 28.3545 60.8491 24.3255 59.1786 21.1096ZM13.7973 16.8786H18.8472V20.3082H17.2118C17.1156 20.0376 17.2633 20.229 13.7973 16.8786ZM19.7262 24.5995C20.2116 24.5995 20.6051 24.206 20.6051 23.7205V22.066H24.5634C24.7293 22.066 24.8642 22.2009 24.8642 22.3668V34.8961C24.8642 35.062 24.7292 35.1969 24.5634 35.1969H14.8889C14.723 35.1969 14.5881 35.062 14.5881 34.8961V32.2799H16.3847C16.8701 32.2799 17.2636 31.8865 17.2636 31.4009V22.066H18.8473V23.7205C18.8472 24.206 19.2408 24.5995 19.7262 24.5995ZM7.82506 30.5221C7.82506 29.3803 7.82506 22.1183 7.82506 20.9751L10.7864 18.1124V20.1779C10.7864 20.6634 11.1799 21.0569 11.6653 21.0569C12.1507 21.0569 12.5443 20.6634 12.5443 20.1779V18.1124L15.5056 20.9751V30.5221C14.7304 30.5221 8.75205 30.5221 7.82506 30.5221ZM5.89115 16.8786H9.53337L6.33519 19.9702C6.00025 20.2939 6.06717 20.6538 6.06717 21.1553C5.86994 19.3356 5.89115 18.0711 5.89115 16.8786ZM42.7125 16.8786V17.8624C42.7125 26.4802 38.8987 35.3433 31.7996 39.4171H16.804C14.03 37.8253 11.6037 35.3728 9.73611 32.2801H12.8301V34.8963C12.8301 36.0316 13.7537 36.955 14.8888 36.955H24.5633C25.6985 36.955 26.622 36.0314 26.622 34.8963V22.3669C26.622 21.2317 25.6984 20.3082 24.5633 20.3082H20.605V16.8786H42.7125ZM18.8472 15.1207H12.5443V12.8868H18.8472V15.1207ZM47.5039 23.9276C47.917 23.8481 48.5877 23.5418 51.9258 22.1687C53.0492 21.8357 54.2496 22.3449 54.7919 23.3883C55.3493 24.4615 55.0286 25.8024 54.0439 26.5083C53.9756 26.5575 44.2808 34.1796 44.2146 34.2316H43.9866C45.6963 31.0844 46.8828 27.5956 47.5039 23.9276ZM55.9282 29.0768C55.919 29.0834 55.9101 29.09 55.9013 29.0971L45.5107 37.2644C45.2517 37.468 45.328 37.4171 41.9907 37.4171C42.3234 36.9553 42.6444 36.4788 42.9544 35.9895C44.6111 35.9895 44.7526 36.0446 45.0617 35.8015L55.0459 27.9536C55.0544 27.9469 55.0629 27.9405 55.0698 27.9356C56.7583 26.7251 57.3095 24.4218 56.3517 22.5778C55.2702 20.4968 52.8171 19.9051 51.2954 20.5269C49.3791 21.3154 48.3743 21.7373 47.7781 21.9774C47.8384 21.4445 47.8869 20.9086 47.9237 20.3701C47.9626 20.3542 50.8199 19.1778 50.8597 19.1645C53.4968 18.298 56.3391 19.4568 57.6185 21.9199C58.8938 24.3748 58.1671 27.4516 55.9282 29.0768Z" fill="#425F60" fill-opacity="0.3"/>
</g>
<defs>
<clipPath id="clip0">
<rect width="60" height="60" fill="white"/>
</clipPath>
</defs>
</svg>
