<svg width="60" height="60" viewBox="0 0 60 60" fill="none" xmlns="http://www.w3.org/2000/svg">
<g clip-path="url(#clip0)">
<path d="M57.1145 39.7758C57.2142 39.4706 57.2672 39.1498 57.2672 38.8247C57.2672 24.5047 57.3759 25.1843 56.9805 24.4274C57.6832 23.9787 58.1514 23.1937 58.1514 22.3C58.1514 15.8009 55.1992 9.79079 50.0517 5.81075C49.6678 5.51368 49.1157 5.58446 48.8188 5.96837C48.5218 6.35239 48.5924 6.90434 48.9764 7.2013C53.69 10.8459 56.3934 16.3493 56.3934 22.3C56.3934 22.7227 56.0495 23.0666 55.6268 23.0666H54.7425H5.2766H4.37297C3.95027 23.0666 3.60633 22.7227 3.60633 22.2998C3.60633 11.7824 12.1629 3.22583 22.6804 3.22583H37.3198C40.242 3.22583 43.0455 3.86895 45.6527 5.13727C46.089 5.34962 46.6151 5.16798 46.8275 4.73145C47.0399 4.29493 46.8582 3.76899 46.4217 3.55665C43.5729 2.17079 40.5105 1.46802 37.3198 1.46802H22.6804C11.1936 1.46802 1.84852 10.8131 1.84852 22.3C1.84852 23.2 2.32348 23.9893 3.03434 24.4364C2.85516 24.7829 2.75215 25.1749 2.75215 25.5912V26.6883C2.75215 27.768 3.43477 28.6889 4.39008 29.049C3.36797 30.0548 2.73281 31.4527 2.73281 32.9965C2.73281 34.5471 3.37383 35.9502 4.40379 36.9569C3.43828 37.3338 2.75215 38.2733 2.75215 39.3707V39.7863C1.20785 39.9473 0 41.2564 0 42.8424C0 44.124 0.788789 45.2243 1.90605 45.6847C2.32348 50.3803 5.10879 54.6241 9.2925 56.8672C9.72035 57.0967 10.253 56.9356 10.4824 56.5079C10.7119 56.0801 10.5509 55.5473 10.1231 55.318C6.60012 53.4292 4.20832 49.9206 3.70594 45.9985C4.73344 46.2793 5.65395 47.2869 8.45824 47.2869C10.4382 47.2869 11.466 46.7925 12.3165 46.3738C15.1787 44.9653 14.9163 47.2869 19.2287 47.2869C22.5334 47.2869 23.1439 45.9156 24.6132 45.9156C26.0885 45.9156 26.6905 47.2869 29.9985 47.2869C32.127 47.2869 33.1018 46.7332 34.1048 46.2533C34.537 46.0466 34.8805 45.9156 35.3837 45.9156C36.8618 45.9156 37.4586 47.2869 40.7693 47.2869C42.6506 47.2869 43.6472 46.8564 44.6276 46.3738C47.3065 45.0557 47.2364 47.0035 50.7741 47.2594C54.0236 47.4943 55.1937 46.3316 56.228 46.0179C55.4536 52.1277 50.2661 56.7739 43.9922 56.7739H15.9425C15.1961 56.7739 14.4484 56.7068 13.7205 56.5745C13.2432 56.4878 12.7855 56.8044 12.6987 57.2821C12.6118 57.7596 12.9286 58.2171 13.4062 58.3039C14.2376 58.4551 15.0909 58.5317 15.9427 58.5317H43.9924C47.6491 58.5317 51.1151 57.1374 53.7519 54.6056C56.2223 52.2335 57.726 49.0956 58.0287 45.7105C59.1804 45.2666 60.0001 44.1487 60.0001 42.8423C60 41.2111 58.722 39.873 57.1145 39.7758ZM4.50984 25.5912C4.50984 25.1685 4.85379 24.8245 5.27648 24.8245H54.7426C55.1653 24.8245 55.5093 25.1685 55.5093 25.5912V38.8246C55.5093 39.5892 54.8702 40.1715 54.1294 40.1382C53.4398 40.1058 52.8789 39.4887 52.8789 38.7626V37.6589V37.6502V30.61C52.8789 28.8702 51.4635 27.4549 49.7237 27.4549C47.9839 27.4549 46.5687 28.8703 46.5687 30.61C46.5687 31.1624 46.6702 31.8557 45.9496 32.3074C45.0448 32.8747 43.9382 32.1741 43.9382 31.129V28.3338C43.9382 27.8484 43.5446 27.4549 43.0593 27.4549H8.27414H5.27648C4.85379 27.4549 4.50984 27.111 4.50984 26.6883V25.5912ZM52.1134 41.0739C51.0898 41.3242 50.3673 40.847 49.6936 40.5267C48.9165 40.1572 47.9105 39.7694 46.1548 39.7694C44.1519 39.7694 43.1231 40.2757 42.2965 40.6826C39.8509 41.8862 39.71 40.3744 36.9975 39.8993C35.8117 39.6916 34.0372 39.6841 32.5815 40.2149C30.8418 40.8492 30.4987 41.6789 28.4699 40.6822C27.6423 40.2756 26.6123 39.7694 24.6134 39.7694C22.6105 39.7694 21.5817 40.2758 20.7552 40.6826C17.763 42.1551 18.0294 39.4684 13.1367 39.7919C10.4231 39.9714 9.82934 41.1408 8.45836 41.1408C7.20176 41.1408 6.6518 40.1964 4.50996 39.8708V39.3707C4.50996 38.9115 4.88355 38.5379 5.3427 38.5379H8.27426H51.1212C51.1212 39.5168 51.3507 40.3591 52.1134 41.0739ZM8.27414 29.2129H42.1805V31.1291C42.1805 32.8648 43.5526 34.2695 45.2646 34.2641C46.8652 34.26 48.1689 33.0346 48.313 31.4694C48.3304 31.2811 48.3265 31.2313 48.3265 30.6101C48.3265 29.8396 48.9533 29.2129 49.7238 29.2129C50.4943 29.2129 51.1212 29.8397 51.1212 30.6101V36.7801H8.27414C6.18785 36.7801 4.49051 35.0828 4.49051 32.9965C4.49051 30.9102 6.18785 29.2129 8.27414 29.2129ZM57.0947 44.1458C57.0923 44.146 57.09 44.146 57.0877 44.1463C57.0627 44.1493 57.0405 44.1512 57.0187 44.1531C56.9898 44.1551 56.961 44.1574 56.9316 44.1575C56.9302 44.1575 56.9284 44.1578 56.927 44.1578C55.9213 44.1578 55.2619 44.4825 54.624 44.7967C54.0261 45.0912 52.8997 45.7015 50.726 45.4924C49.6617 45.39 49.052 45.0894 48.4587 44.797C47.8212 44.4827 47.1619 44.1578 46.1548 44.1578C44.3682 44.1578 43.7998 45.1335 42.0431 45.4317C41.3095 45.5563 40.3988 45.5551 39.72 45.4652C37.7711 45.2072 37.2401 44.1576 35.3838 44.1576C33.2235 44.1576 32.96 45.529 29.9986 45.529C27.0348 45.529 26.78 44.1576 24.6134 44.1576C22.4423 44.1576 22.2025 45.529 19.2288 45.529C16.2649 45.529 16.0102 44.1576 13.8437 44.1576C11.6796 44.1576 11.4246 45.529 8.45836 45.529C5.49539 45.529 5.23816 44.1576 3.07313 44.1576C3.0675 44.1576 3.06082 44.1569 3.05496 44.1568C3.02906 44.1565 3.00352 44.1547 2.97797 44.153C2.94586 44.15 2.91141 44.1458 2.87297 44.14C2.86746 44.1391 2.86184 44.1391 2.85633 44.1383C2.23406 44.0345 1.75781 43.4938 1.75781 42.8424C1.75781 42.1173 2.34785 41.5273 3.07301 41.5273C6.27949 41.5273 6.68379 43.3582 9.30926 42.8137C10.8485 42.4945 11.2908 41.5273 13.8436 41.5273C15.4339 41.5273 16.1918 41.8996 16.9248 42.2598C17.5643 42.574 18.2251 42.8986 19.2287 42.8986C21.3932 42.8986 21.647 41.5273 24.6132 41.5273C27.5771 41.5273 27.832 42.8986 29.9985 42.8986C32.1674 42.8986 32.413 41.5273 35.3837 41.5273C36.9743 41.5273 37.7323 41.8996 38.4654 42.2598C40.0372 43.0319 41.153 43.2043 43.0725 42.2597C43.2097 42.1922 43.3478 42.1242 43.492 42.0583C44.1173 41.773 44.8597 41.5273 46.1546 41.5273C47.7514 41.5273 48.5066 41.8994 49.2369 42.2594C49.8744 42.5737 50.5337 42.8987 51.5408 42.8987C53.7047 42.8987 53.9665 41.5274 56.927 41.5274C57.6521 41.5274 58.2422 42.1174 58.2422 42.8426C58.2422 43.5108 57.7409 44.0631 57.0947 44.1458Z" fill="#425F60" fill-opacity="0.3"/>
<path d="M30.9744 7.79476V5.72241C30.9744 5.23702 30.5808 4.84351 30.0955 4.84351C29.6101 4.84351 29.2166 5.23702 29.2166 5.72241V7.79476C29.2166 8.28015 29.6101 8.67366 30.0955 8.67366C30.5808 8.67366 30.9744 8.28015 30.9744 7.79476Z" fill="#425F60" fill-opacity="0.3"/>
<path d="M39.3622 6.1459C38.9342 6.37489 38.7729 6.90751 39.0017 7.33547L40.0064 9.21364C40.1648 9.50966 40.4683 9.67817 40.7822 9.67817C40.9221 9.67817 41.064 9.64466 41.1959 9.57411C41.6239 9.34512 41.7853 8.81251 41.5564 8.38454L40.5518 6.50637C40.3227 6.07829 39.7901 5.9168 39.3622 6.1459Z" fill="#425F60" fill-opacity="0.3"/>
<path d="M19.221 6.54767L18.4079 8.49498C18.2209 8.94287 18.4324 9.45768 18.8803 9.64471C18.9909 9.691 19.1057 9.7128 19.2186 9.7128C19.5626 9.7128 19.8892 9.50959 20.03 9.17233L20.8431 7.22502C21.0301 6.77713 20.8186 6.26232 20.3707 6.07529C19.9229 5.88826 19.408 6.09978 19.221 6.54767Z" fill="#425F60" fill-opacity="0.3"/>
<path d="M46.8237 9.85544C46.5183 10.2327 46.5767 10.7861 46.9539 11.0915L48.7643 12.5568C48.927 12.6886 49.1225 12.7527 49.3167 12.7527C49.5729 12.7527 49.8267 12.6412 50.0004 12.4266C50.3058 12.0494 50.2474 11.4959 49.8702 11.1906L48.0598 9.72524C47.6827 9.41985 47.1291 9.47798 46.8237 9.85544Z" fill="#425F60" fill-opacity="0.3"/>
<path d="M11.5515 9.72521L9.74102 11.1905C9.36368 11.4959 9.30544 12.0494 9.61083 12.4266C9.7845 12.6413 10.0383 12.7526 10.2945 12.7526C10.4887 12.7526 10.6843 12.6885 10.8469 12.5568L12.6574 11.0915C13.0347 10.7861 13.0929 10.2326 12.7875 9.8554C12.4822 9.47806 11.9287 9.41982 11.5515 9.72521Z" fill="#425F60" fill-opacity="0.3"/>
<path d="M25.5379 10.4743L24.0726 11.9396C23.5173 12.495 23.9183 13.44 24.6941 13.44C25.1652 13.44 25.2216 13.2764 26.7808 11.7172C27.1241 11.374 27.1241 10.8174 26.7808 10.4743C26.4377 10.1311 25.8812 10.1312 25.5379 10.4743Z" fill="#425F60" fill-opacity="0.3"/>
<path d="M34.4786 10.4743L33.0133 11.9396C32.4579 12.495 32.859 13.44 33.6347 13.44C34.1058 13.44 34.1623 13.2764 35.7215 11.7172C36.0647 11.374 36.0647 10.8174 35.7215 10.4743C35.3784 10.1311 34.8218 10.1312 34.4786 10.4743Z" fill="#425F60" fill-opacity="0.3"/>
<path d="M45.0433 13.8955C44.5804 13.7483 44.0863 14.0037 43.9392 14.4663L43.2977 16.4809C43.1167 17.0492 43.5425 17.6268 44.1353 17.6268C44.5078 17.6268 44.8536 17.3882 44.9726 17.0144L45.6141 14.9998C45.7614 14.5371 45.5058 14.0428 45.0433 13.8955Z" fill="#425F60" fill-opacity="0.3"/>
<path d="M14.697 13.965C14.2503 14.1549 14.042 14.6709 14.2319 15.1177L15.0532 17.0504C15.1954 17.3849 15.5205 17.5857 15.8625 17.5857C16.4888 17.5857 16.9179 16.9437 16.671 16.3627L15.8496 14.43C15.6597 13.9836 15.1438 13.7751 14.697 13.965Z" fill="#425F60" fill-opacity="0.3"/>
<path d="M28.1763 16.835C28.1763 17.3204 28.5698 17.7139 29.0552 17.7139H31.1275C31.6129 17.7139 32.0064 17.3204 32.0064 16.835C32.0064 16.3496 31.6129 15.9561 31.1275 15.9561H29.0552C28.5698 15.9561 28.1763 16.3496 28.1763 16.835Z" fill="#425F60" fill-opacity="0.3"/>
</g>
<defs>
<clipPath id="clip0">
<rect width="60" height="60" fill="white"/>
</clipPath>
</defs>
</svg>
