<svg width="60" height="60" viewBox="0 0 60 60" fill="none" xmlns="http://www.w3.org/2000/svg">
<path d="M48.9963 25.5264C52.0914 25.5264 54.6094 22.8676 54.6094 19.5997C54.6094 16.3317 52.0914 13.6731 48.9963 13.6731C45.9013 13.6731 43.3833 16.3318 43.3833 19.5997C43.3833 22.8676 45.9013 25.5264 48.9963 25.5264ZM48.9963 15.4309C51.1221 15.4309 52.8516 17.301 52.8516 19.5997C52.8516 21.8984 51.1221 23.7685 48.9963 23.7685C46.8706 23.7685 45.1411 21.8985 45.1411 19.5997C45.1411 17.301 46.8706 15.4309 48.9963 15.4309Z" fill="#425F60" fill-opacity="0.3"/>
<path d="M58.4787 28.2251C58.4787 27.4832 57.8751 26.8795 57.1332 26.8795H56.6273C57.9862 24.964 58.7412 22.5784 58.7412 20.0883C58.7412 16.4413 57.7647 13.0012 55.9916 10.4017C54.1483 7.69922 51.6641 6.21094 48.9963 6.21094C46.8335 6.21094 44.811 7.15793 43.1478 8.94961C42.3793 9.77742 41.7038 10.7769 41.1394 11.8849C40.5963 9.04757 38.0975 6.89636 35.1042 6.89636C33.5066 6.89636 32.0497 7.50949 30.9556 8.51238C30.5669 8.16562 30.3373 7.66195 30.3373 7.1141V6.14613C30.3373 2.75707 27.5802 0 24.1912 0C20.8023 0 18.0452 2.75707 18.0452 6.14601V7.68246C18.0452 8.05863 17.8262 8.39847 17.485 8.56769C16.3845 7.53246 14.9048 6.89625 13.2782 6.89625C11.484 6.89625 9.78395 7.67754 8.61407 9.03984C8.29778 9.40804 8.33996 9.96293 8.70817 10.2792C9.07637 10.5955 9.63125 10.5534 9.94754 10.1851C10.7832 9.21222 11.9971 8.65418 13.2782 8.65418C14.638 8.65418 15.8552 9.27586 16.6607 10.2499C16.6632 10.253 16.6657 10.256 16.6681 10.2591C17.7984 11.6331 17.6664 12.9759 17.6664 14.0105C17.6664 15.3852 18.4188 16.6226 19.63 17.2397C19.8141 17.3334 19.9895 17.4388 20.1555 17.5544C21.3177 18.3644 22.021 19.684 22.0286 21.1269L21.9184 23.0856C21.3991 24.2988 21.2637 25.6568 21.4647 26.8795H14.1571V24.9616L18.8825 19.1965C19.1901 18.821 19.1353 18.2673 18.7599 17.9596C18.3845 17.6518 17.8307 17.7068 17.523 18.0821L14.1573 22.1886V13.7979C14.1573 13.3125 13.7638 12.919 13.2784 12.919C12.793 12.919 12.3995 13.3125 12.3995 13.7979V22.1921L9.0241 18.0816C8.71614 17.7064 8.16231 17.6522 7.78707 17.96C7.41196 18.2681 7.35758 18.8219 7.66555 19.1971L12.3995 24.962V26.8794H4.96344L4.52785 21.1187C4.54028 19.3665 5.58793 17.7955 7.20383 17.1101C8.22817 16.6757 8.89004 15.682 8.89004 14.5786V13.4069C8.89004 12.9216 8.49653 12.528 8.01114 12.528C7.52574 12.528 7.13223 12.9216 7.13223 13.4069V14.5786C7.13223 14.9749 6.89094 15.3334 6.51758 15.4917C4.24098 16.4572 2.77004 18.6784 2.77004 21.1503C2.77004 21.1724 2.77086 21.1945 2.7725 21.2166L3.20071 26.8793H2.60469C1.86278 26.8793 1.25914 27.4829 1.25914 28.2248C1.25914 31.7754 1.25598 31.6626 1.26418 31.7399C1.26418 31.7405 1.26418 31.7409 1.2643 31.7415C1.74629 36.1942 1.90555 41.6821 6.3091 47.7301C8.79395 51.1429 12.1288 53.8864 15.953 55.6637C16.3524 55.8493 16.76 56.0256 17.1702 56.1902V58.0263C17.1702 59.1145 18.0555 59.9997 19.1437 59.9997H40.5943C41.6825 59.9997 42.5678 59.1144 42.5678 58.0263V56.1903C44.7391 55.3195 46.7743 54.147 48.6251 52.7001C49.0075 52.4012 49.0753 51.8488 48.7763 51.4664C48.4775 51.084 47.9249 51.0164 47.5426 51.3152C45.672 52.7775 43.5993 53.938 41.3819 54.7644C41.038 54.8926 40.81 55.221 40.81 55.588V58.0263C40.81 58.1452 40.7132 58.2419 40.5943 58.2419H19.1437C19.0248 58.2419 18.928 58.1451 18.928 58.0263V55.588C18.928 55.221 18.6999 54.8925 18.3559 54.7644C17.7963 54.5559 17.2371 54.3222 16.6939 54.0697C13.4676 52.5703 10.6773 50.3509 8.49149 47.6515H51.2728C51.0029 47.9837 50.7236 48.3098 50.4341 48.6289C50.1078 48.9883 50.1346 49.5443 50.4941 49.8704C50.8535 50.1968 51.4094 50.1697 51.7355 49.8103C55.2877 45.8969 57.4664 41.047 58.036 35.7847C58.6039 30.5381 58.4787 32.9207 58.4787 28.2251ZM41.7229 26.8795H31.9994C31.2417 23.5251 34.0393 20.4538 37.4232 20.8342C40.3333 21.1628 42.3791 23.9613 41.7229 26.8795ZM24.7531 22.1079C26.6459 20.4568 29.3363 20.3299 31.306 21.9664C30.294 23.4366 29.9344 25.213 30.2087 26.8794H23.2559C22.8727 25.1766 23.371 23.3367 24.7531 22.1079ZM44.436 10.1455C45.7769 8.70105 47.3112 7.96875 48.9963 7.96875C51.065 7.96875 53.0336 9.18457 54.5395 11.3923C56.1155 13.7028 56.9834 16.7912 56.9834 20.0884C56.9834 22.6864 56.0286 25.1408 54.3525 26.8795H43.6418C43.604 26.8406 43.5669 26.8015 43.5303 26.7623C43.8862 24.3364 42.8905 21.9464 41.0166 20.4778C40.9025 17.9759 41.5784 15.6377 41.598 15.5205C42.1808 13.4275 43.1647 11.515 44.436 10.1455ZM35.1042 8.65418C37.5239 8.65418 39.4924 10.6227 39.4924 13.0424V14.0103C39.4924 14.5141 39.5977 15.0135 39.7992 15.4737C39.7909 15.5077 39.7836 15.5421 39.7754 15.5761C39.4877 16.7375 39.3119 17.9374 39.2612 19.129C38.6898 19.0358 38.1087 19.0182 37.5239 19.0766C36.9853 19.0237 36.493 19.0359 35.983 19.1026V13.7978C35.983 13.3124 35.5894 12.9189 35.1041 12.9189C34.6187 12.9189 34.2252 13.3124 34.2252 13.7978V19.5805C33.6223 19.8375 33.0513 20.1901 32.5609 20.5971C32.5379 20.6161 32.5141 20.634 32.4914 20.6534C30.9575 19.3255 28.9593 18.7542 26.8291 19.1679C27.3182 18.2052 28.1158 17.4977 29.0296 17.1101C30.054 16.6757 30.7159 15.682 30.7159 14.5786C30.7159 13.0034 30.6178 12.1937 31.1889 11.064C31.9453 9.57339 33.4611 8.65418 35.1042 8.65418ZM19.4243 14.0103C19.4243 12.9496 19.5328 11.5753 18.592 9.95589C19.3412 9.44929 19.803 8.60414 19.803 7.68258V6.14601C19.803 3.72633 21.7715 1.75781 24.1912 1.75781C26.6109 1.75781 28.5794 3.72633 28.5794 6.14601V7.11398C28.5794 8.19797 29.0472 9.19664 29.8392 9.87316C28.8263 11.5557 28.958 12.9274 28.958 14.5787C28.958 15.9507 26.5013 15.3626 25.07 18.7847V6.56484C25.07 6.07945 24.6765 5.68594 24.1911 5.68594C23.7057 5.68594 23.3122 6.07945 23.3122 6.56484V18.7758C22.7539 17.4381 21.7368 16.3404 20.428 15.6734C19.8089 15.3579 19.4243 14.7206 19.4243 14.0103ZM3.01696 28.6373H56.7208V30.7683H3.01696V28.6373ZM5.23192 42.2852H54.526C53.9819 43.5425 53.3254 44.7508 52.565 45.8939H7.19844C6.43918 44.7534 5.78106 43.5452 5.23192 42.2852ZM4.54907 40.5274C4.00707 38.9422 3.63301 37.2901 3.44961 35.5959L3.11727 32.5261H56.6206C56.276 35.7095 56.1712 37.6669 55.2059 40.5274H4.54907Z" fill="#425F60" fill-opacity="0.3"/>
</svg>
