<svg width="80" height="80" viewBox="0 0 80 80" fill="none" xmlns="http://www.w3.org/2000/svg">
<g clip-path="url(#clip0)">
<path d="M80 40.0043C80 18.3423 62.4542 0.78125 40.8105 0.78125C19.1669 0.78125 1.62109 18.3423 1.62109 40.0043C1.62109 61.6663 19.1669 79.2273 40.8105 79.2273C62.4542 79.2273 80 61.6663 80 40.0043Z" fill="#393991"/>
<path d="M25.8075 44.2065C26.0864 41.0175 27.3132 38.1 29.2041 35.7379C28.4918 33.8855 28.0994 31.875 28.0994 29.7717C28.0994 27.2827 28.6462 24.9219 29.6259 22.8015C29.5831 22.8168 29.5404 22.8308 29.4983 22.8467C29.1553 22.9755 28.7708 22.8485 28.5492 22.5568C26.4453 19.7858 23.1165 17.9974 19.3707 18.0011C13.3618 18.0066 8.43628 22.6215 7.92176 28.501C7.88697 28.9026 7.58301 29.2322 7.18262 29.2743C3.1427 29.6985 -0.00365892 33.1177 3.19352e-06 37.2723C0.00427566 41.712 3.60291 45.307 8.03833 45.3033L24.6191 45.2881C24.6777 45.2814 24.7357 45.2716 24.7943 45.2655C25.343 45.2081 25.7593 44.7565 25.8075 44.2065Z" fill="#5DC1D8"/>
<path d="M3.89283 37.4243C3.88916 33.1049 7.16065 29.5502 11.3605 29.1089C11.7767 29.0649 12.0923 28.7225 12.1289 28.3051C12.5482 23.5132 15.7861 19.53 20.1758 18.0292C19.9097 18.0109 19.6417 18.0011 19.3707 18.0011C13.3618 18.0066 8.43628 22.6215 7.92176 28.501C7.88697 28.9026 7.58301 29.2322 7.18262 29.2743C3.1427 29.6985 -0.00365892 33.1177 3.19352e-06 37.2723C0.00427566 41.712 3.60291 45.307 8.03833 45.3034L9.47571 45.3021C6.22681 44.1602 3.89649 41.0663 3.89283 37.4243Z" fill="#399FAA"/>
<path d="M24.7942 45.2655C25.3429 45.2081 25.7592 44.7565 25.8074 44.2065C26.0863 41.0175 27.3131 38.1 29.204 35.7379C28.4917 33.8855 28.0992 31.875 28.0992 29.7717C28.0992 27.2827 28.6467 24.9219 29.6257 22.8015C29.5836 22.8168 29.5403 22.8308 29.4982 22.8467C29.1552 22.9755 28.7706 22.8485 28.5491 22.5568C27.4773 21.1456 26.0881 19.9902 24.4878 19.1956C23.297 21.8994 22.6342 24.8883 22.6342 28.0328C22.6342 30.5005 23.0431 32.8723 23.7944 35.0854C21.9255 37.829 20.7219 41.0626 20.4167 44.5544C20.3929 44.8273 20.2965 45.0806 20.147 45.2924L24.619 45.2881C24.6776 45.2814 24.7356 45.2716 24.7942 45.2655Z" fill="#399FAA"/>
<path d="M41.6364 30.285C46.6406 30.2802 51.0883 32.6697 53.8989 36.3715C54.1956 36.7621 54.7089 36.9305 55.1672 36.759C56.2006 36.3715 57.3193 36.1584 58.4875 36.1572C59.7571 36.1566 60.968 36.4069 62.0752 36.8585C62.97 34.6722 63.4644 32.2803 63.4644 29.7717C63.4644 19.4318 55.0818 11.0492 44.7418 11.0492C34.4019 11.0492 26.0193 19.4318 26.0193 29.7717C26.0193 32.8772 26.7761 35.8057 28.1146 38.3844C30.7068 33.5675 35.7861 30.2899 41.6364 30.285Z" fill="#FDD33A"/>
<path d="M60.6482 33.9124C59.2676 33.9136 57.9456 34.165 56.7249 34.6228C56.1829 34.826 55.5762 34.6265 55.2264 34.1656C51.9049 29.7906 46.6492 26.9678 40.7361 26.9727C38.8824 26.9745 37.0941 27.2552 35.4102 27.7734C36.2427 19.9316 41.9128 13.5339 49.3823 11.629C49.2102 11.5851 49.0375 11.5448 48.8641 11.5057C48.8251 11.4966 48.7866 11.4886 48.7476 11.4801C48.6096 11.4502 48.4705 11.4215 48.3307 11.394C48.2855 11.3855 48.2404 11.3763 48.1952 11.3684C48.0511 11.3416 47.9059 11.3165 47.7606 11.2927C47.7264 11.2872 47.6923 11.2811 47.6575 11.2756C47.475 11.2469 47.2913 11.2207 47.1069 11.1975C47.1051 11.1975 47.1027 11.1969 47.1008 11.1969C46.9257 11.1749 46.7499 11.156 46.5729 11.1383C46.5204 11.1334 46.4679 11.1292 46.4154 11.1243C46.2866 11.1133 46.1578 11.1029 46.0278 11.0938C45.9674 11.0901 45.9064 11.0858 45.8453 11.0822C45.7166 11.0748 45.5878 11.0687 45.4584 11.0638C45.4028 11.062 45.3473 11.0596 45.2917 11.0577C45.1093 11.0522 44.9255 11.0492 44.7418 11.0492C34.4019 11.0492 26.0193 19.4318 26.0193 29.7717C26.0193 29.9518 26.0223 30.1306 26.0272 30.3094C26.0291 30.3656 26.0315 30.4218 26.0339 30.4773C26.0382 30.6012 26.0437 30.7245 26.051 30.8472C26.0547 30.9113 26.0583 30.9747 26.0632 31.0382C26.0706 31.156 26.0797 31.2732 26.0901 31.3904C26.095 31.452 26.1005 31.5131 26.106 31.5741C26.1188 31.7029 26.1322 31.8304 26.1469 31.958C26.1523 32.005 26.1572 32.052 26.1633 32.0996C26.2073 32.4536 26.261 32.8046 26.3245 33.1519C26.3312 33.1903 26.3391 33.2275 26.3464 33.2654C26.3721 33.4015 26.3989 33.5376 26.4276 33.6731C26.4374 33.7189 26.4471 33.764 26.4575 33.8098C26.4862 33.941 26.5167 34.0717 26.5479 34.2023C26.5582 34.2432 26.568 34.2841 26.5784 34.325C26.5918 34.3787 26.6064 34.4312 26.6199 34.4849C26.6229 34.4946 26.6254 34.5044 26.6278 34.5142C26.6498 34.599 26.6711 34.6844 26.6949 34.7687C26.7004 34.7882 26.7053 34.8077 26.7108 34.8273C26.731 34.8999 26.7535 34.9713 26.7743 35.0433C26.7816 35.0671 26.7883 35.0909 26.7957 35.1147C26.8433 35.2759 26.8939 35.4364 26.9458 35.5963C26.9562 35.6274 26.9666 35.6586 26.9763 35.6897C26.9952 35.7465 27.0129 35.8032 27.0325 35.86C27.0367 35.8722 27.041 35.8844 27.0453 35.8972C27.074 35.9796 27.1045 36.0608 27.1344 36.1426C27.1478 36.1798 27.1613 36.217 27.1747 36.2549C27.1869 36.2885 27.1985 36.322 27.2113 36.3556C27.2205 36.38 27.2296 36.4044 27.2394 36.4288C27.2705 36.5118 27.3035 36.593 27.3364 36.6754C27.3541 36.7194 27.3712 36.7639 27.3889 36.8079C27.3962 36.8262 27.403 36.8439 27.4103 36.8622C27.4182 36.8823 27.4268 36.9025 27.4347 36.922C27.4524 36.9647 27.4719 37.0056 27.4896 37.0477C27.5604 37.2156 27.6337 37.3822 27.7094 37.5476C27.738 37.6105 27.7661 37.6733 27.7954 37.735C27.8979 37.9529 28.0035 38.1696 28.114 38.3832C28.114 38.3832 28.1146 38.3838 28.1146 38.3844C28.1146 38.3844 28.1146 38.3838 28.1152 38.3832C28.2074 38.2129 28.3032 38.0444 28.4015 37.8772C28.432 37.8253 28.4637 37.774 28.4949 37.7228C28.5651 37.6062 28.6365 37.4908 28.7097 37.3761C28.7463 37.3199 28.783 37.2638 28.8196 37.2076C28.8947 37.0941 28.9709 36.9824 29.0485 36.8713C29.0826 36.8219 29.1162 36.7725 29.1516 36.7236C29.2566 36.5765 29.364 36.4313 29.4739 36.2885C29.4812 36.2787 29.4885 36.2689 29.4958 36.2592C29.6161 36.1035 29.74 35.9503 29.8663 35.7996C29.8956 35.7642 29.9261 35.73 29.9554 35.6952C30.0537 35.5804 30.1526 35.4669 30.2539 35.3546C30.2917 35.3131 30.3296 35.2716 30.3674 35.2307C30.4681 35.1221 30.5701 35.0146 30.6732 34.9091C30.7074 34.8743 30.741 34.8389 30.7751 34.8047C30.9094 34.6698 31.0461 34.5374 31.1853 34.4073C31.1877 34.4055 31.1896 34.4031 31.192 34.4006C31.3422 34.2609 31.4954 34.1241 31.6516 33.9905C31.6656 33.9783 31.6803 33.9661 31.6949 33.9539C31.8311 33.8379 31.969 33.7244 32.1094 33.6133C32.1405 33.5883 32.1722 33.5638 32.2034 33.5388C32.334 33.4375 32.4658 33.3374 32.5989 33.2397C32.6276 33.219 32.6562 33.1976 32.6855 33.1769C33.1781 32.8217 33.6926 32.4951 34.2261 32.1991C34.2505 32.1857 34.2749 32.1729 34.2993 32.1594C34.4556 32.074 34.613 31.9916 34.7723 31.9116C34.7986 31.8988 34.8242 31.8854 34.8505 31.8719C35.0299 31.7834 35.2106 31.6974 35.3937 31.6156C37.3004 30.7629 39.4128 30.2869 41.637 30.285C46.6412 30.2808 51.0889 32.6697 53.8995 36.3721C54.1956 36.7621 54.7089 36.9312 55.1678 36.759C56.2012 36.3715 57.3193 36.1584 58.4882 36.1578C59.7577 36.1566 60.968 36.4069 62.0752 36.8585C62.4323 35.9863 62.724 35.0812 62.948 34.1492C62.2052 33.9948 61.4368 33.9111 60.6482 33.9124Z" fill="#E8BB2A"/>
<path d="M61.6729 28.4705C61.6729 30.6329 59.9193 32.3865 57.7568 32.3865C55.5938 32.3865 53.8408 30.6329 53.8408 28.4705C53.8408 26.308 55.5938 24.5544 57.7568 24.5544C59.9193 24.5544 61.6729 26.308 61.6729 28.4705Z" fill="#FFDC7B"/>
<path d="M55.7111 21.7493C55.7111 23.1049 54.6124 24.2041 53.2562 24.2041C51.9006 24.2041 50.802 23.1049 50.802 21.7493C50.802 20.3937 51.9006 19.2944 53.2562 19.2944C54.6124 19.2944 55.7111 20.3937 55.7111 21.7493Z" fill="#FFDC7B"/>
<path d="M78.963 49.0021C77.0313 46.7749 74.2871 45.2728 71.1908 44.9628C70.6335 44.9066 70.1831 44.4696 70.1074 43.9148C69.4055 38.7866 65.0104 34.8383 59.6954 34.8431C58.4027 34.8444 57.1649 35.0794 56.0217 35.5084C55.5145 35.6989 54.9463 35.5121 54.6185 35.08C51.5088 30.9839 46.5881 28.3405 41.0516 28.346C32.1686 28.3539 24.8871 35.1758 24.1266 43.8672C24.0747 44.4605 23.6261 44.9475 23.0341 45.0098C17.063 45.6378 12.4115 50.6915 12.417 56.8335C12.4231 63.3954 17.7429 68.7103 24.2993 68.7048L67.5604 68.6658C73.1189 63.4668 77.1649 56.6687 78.963 49.0021Z" fill="#AEF7FF"/>
<path d="M21.1237 57.3676C21.1188 51.8329 25.0879 47.2254 30.3345 46.2439C31.416 46.0419 32.2223 45.1453 32.3834 44.0564C33.5419 36.2518 40.257 30.2594 48.3789 30.2521C48.5559 30.2521 48.7329 30.2551 48.9087 30.2606C46.5576 29.0357 43.8855 28.3429 41.0516 28.3453C32.1643 28.3533 24.8798 35.1831 24.126 43.8812C24.0747 44.469 23.6206 44.9481 23.0347 45.0098C17.0636 45.6372 12.4115 50.6915 12.417 56.8329C12.4231 63.3954 17.7429 68.7097 24.2999 68.7042L32.4335 68.6664C26.1926 68.6725 21.1292 63.6139 21.1237 57.3676Z" fill="#5DC1D8"/>
<path d="M30.4993 14.0497V13.8861C30.4993 12.9761 29.762 12.2388 28.8525 12.2388H25.3125C24.3579 12.2388 23.5834 11.4648 23.5834 10.5103C23.5834 9.65759 24.201 8.95081 25.0128 8.80859H36.0205C37.3016 8.80859 38.3405 7.76978 38.3405 6.48804C38.3405 5.20691 37.3016 4.16809 36.0205 4.16809H26.0889C25.802 4.16809 25.5322 4.09912 25.2924 3.97949C19.2865 6.5741 14.057 10.6281 10.0525 15.697H28.8525C29.762 15.697 30.4993 14.9597 30.4993 14.0497Z" fill="#4848AA"/>
<path d="M71.228 23.9819C70.3186 23.9819 69.5807 24.7198 69.5807 25.6293V25.7928C69.5807 26.7029 70.3186 27.4402 71.228 27.4402H74.7681C75.7227 27.4402 76.4972 28.2141 76.4972 29.1693C76.4972 30.022 75.8795 30.7281 75.0677 30.8704H68.7006C67.4194 30.8704 66.3806 31.9092 66.3806 33.1909C66.3806 34.472 67.4194 35.5109 68.7006 35.5109H79.7424C79.2792 31.4478 78.1976 27.572 76.5906 23.9819H71.228Z" fill="#4848AA"/>
</g>
<defs>
<clipPath id="clip0">
<rect width="80" height="80" fill="white"/>
</clipPath>
</defs>
</svg>
