<svg width="30" height="30" viewBox="0 0 30 30" fill="none" xmlns="http://www.w3.org/2000/svg">
<path d="M4.22157 0C1.88307 0 0 1.88307 0 4.22157V25.7785C0 28.117 1.88307 30 4.22157 30H25.7785C28.117 30 30 28.117 30 25.7785V4.22157C30 1.88307 28.117 0 25.7785 0H4.22157ZM15.6722 3.06564C19.0767 3.06564 21.8447 5.83476 21.8447 9.23907C21.8447 12.6431 19.0767 15.4106 15.6722 15.4106C12.2676 15.4106 9.49782 12.6431 9.49782 9.23907C9.49782 5.83476 12.2676 3.06564 15.6722 3.06564ZM15.6066 6.68253C14.2275 6.71763 13.1156 7.85205 13.1156 9.2391C13.1156 10.6476 14.2628 11.7938 15.6722 11.7938C17.0813 11.7938 18.2269 10.6476 18.2269 9.2391C18.2269 7.83006 17.0813 6.68253 15.6722 6.68253C15.6502 6.68253 15.6285 6.68196 15.6066 6.68253ZM10.5609 15.6207C10.8879 15.6218 11.2178 15.7117 11.5153 15.8991C14.0422 17.488 17.2996 17.489 19.8272 15.8991C20.6735 15.3661 21.7889 15.622 22.3219 16.4682C22.8542 17.3129 22.5985 18.4298 21.7528 18.9619C20.6502 19.6549 19.4385 20.1567 18.1687 20.446L21.6206 23.8979C22.3273 24.6031 22.3273 25.7491 21.6206 26.4554C20.9136 27.1619 19.7698 27.1619 19.0641 26.4554L15.6703 23.0635L12.2803 26.4554C11.9273 26.8085 11.4641 26.9851 11.0016 26.9851C10.5385 26.9851 10.0769 26.8081 9.72282 26.4554C9.01629 25.7487 9.0165 24.6046 9.72282 23.8979L13.1728 20.446C11.9165 20.1595 10.7042 19.6623 9.58782 18.9619C8.7438 18.4298 8.49 17.3141 9.0225 16.4682C9.35436 15.9393 9.915 15.6406 10.4953 15.6216C10.5172 15.6209 10.5391 15.6206 10.561 15.6207H10.5609Z" fill="url(#paint0_linear)"/>
<path d="M4.22157 0C1.88307 0 0 1.88307 0 4.22157V25.7785C0 28.117 1.88307 30 4.22157 30H25.7785C28.117 30 30 28.117 30 25.7785V4.22157C30 1.88307 28.117 0 25.7785 0H4.22157ZM15.6722 3.06564C19.0767 3.06564 21.8447 5.83476 21.8447 9.23907C21.8447 12.6431 19.0767 15.4106 15.6722 15.4106C12.2676 15.4106 9.49782 12.6431 9.49782 9.23907C9.49782 5.83476 12.2676 3.06564 15.6722 3.06564ZM15.6066 6.68253C14.2275 6.71763 13.1156 7.85205 13.1156 9.2391C13.1156 10.6476 14.2628 11.7938 15.6722 11.7938C17.0813 11.7938 18.2269 10.6476 18.2269 9.2391C18.2269 7.83006 17.0813 6.68253 15.6722 6.68253C15.6502 6.68253 15.6285 6.68196 15.6066 6.68253ZM10.5609 15.6207C10.8879 15.6218 11.2178 15.7117 11.5153 15.8991C14.0422 17.488 17.2996 17.489 19.8272 15.8991C20.6735 15.3661 21.7889 15.622 22.3219 16.4682C22.8542 17.3129 22.5985 18.4298 21.7528 18.9619C20.6502 19.6549 19.4385 20.1567 18.1687 20.446L21.6206 23.8979C22.3273 24.6031 22.3273 25.7491 21.6206 26.4554C20.9136 27.1619 19.7698 27.1619 19.0641 26.4554L15.6703 23.0635L12.2803 26.4554C11.9273 26.8085 11.4641 26.9851 11.0016 26.9851C10.5385 26.9851 10.0769 26.8081 9.72282 26.4554C9.01629 25.7487 9.0165 24.6046 9.72282 23.8979L13.1728 20.446C11.9165 20.1595 10.7042 19.6623 9.58782 18.9619C8.7438 18.4298 8.49 17.3141 9.0225 16.4682C9.35436 15.9393 9.915 15.6406 10.4953 15.6216C10.5172 15.6209 10.5391 15.6206 10.561 15.6207H10.5609Z" fill="#E45363"/>
<path d="M4.22157 0C1.88307 0 0 1.88307 0 4.22157V25.7785C0 28.117 1.88307 30 4.22157 30H25.7785C28.117 30 30 28.117 30 25.7785V4.22157C30 1.88307 28.117 0 25.7785 0H4.22157ZM15.6722 3.06564C19.0767 3.06564 21.8447 5.83476 21.8447 9.23907C21.8447 12.6431 19.0767 15.4106 15.6722 15.4106C12.2676 15.4106 9.49782 12.6431 9.49782 9.23907C9.49782 5.83476 12.2676 3.06564 15.6722 3.06564ZM15.6066 6.68253C14.2275 6.71763 13.1156 7.85205 13.1156 9.2391C13.1156 10.6476 14.2628 11.7938 15.6722 11.7938C17.0813 11.7938 18.2269 10.6476 18.2269 9.2391C18.2269 7.83006 17.0813 6.68253 15.6722 6.68253C15.6502 6.68253 15.6285 6.68196 15.6066 6.68253ZM10.5609 15.6207C10.8879 15.6218 11.2178 15.7117 11.5153 15.8991C14.0422 17.488 17.2996 17.489 19.8272 15.8991C20.6735 15.3661 21.7889 15.622 22.3219 16.4682C22.8542 17.3129 22.5985 18.4298 21.7528 18.9619C20.6502 19.6549 19.4385 20.1567 18.1687 20.446L21.6206 23.8979C22.3273 24.6031 22.3273 25.7491 21.6206 26.4554C20.9136 27.1619 19.7698 27.1619 19.0641 26.4554L15.6703 23.0635L12.2803 26.4554C11.9273 26.8085 11.4641 26.9851 11.0016 26.9851C10.5385 26.9851 10.0769 26.8081 9.72282 26.4554C9.01629 25.7487 9.0165 24.6046 9.72282 23.8979L13.1728 20.446C11.9165 20.1595 10.7042 19.6623 9.58782 18.9619C8.7438 18.4298 8.49 17.3141 9.0225 16.4682C9.35436 15.9393 9.915 15.6406 10.4953 15.6216C10.5172 15.6209 10.5391 15.6206 10.561 15.6207H10.5609Z" fill="#344445"/>
<defs>
<linearGradient id="paint0_linear" x1="0" y1="0" x2="32.9533" y2="7.81298" gradientUnits="userSpaceOnUse">
<stop stop-color="#FF785A"/>
<stop offset="1" stop-color="#DA4453"/>
</linearGradient>
</defs>
</svg>
