<svg width="80" height="80" viewBox="0 0 80 80" fill="none" xmlns="http://www.w3.org/2000/svg">
<path d="M80 40C80 62.0917 62.0917 80 40 80C17.9083 80 0 62.0917 0 40C0 17.9083 17.9083 0 40 0C62.0917 0 80 17.9083 80 40Z" fill="#7CCD3D"/>
<path d="M70.05 34.4111C72.3901 44.8517 69.4976 56.2293 61.372 64.3549C48.8793 76.8476 28.7023 76.9721 16.0564 64.7284C3.06328 52.1479 2.86186 31.5418 15.6176 18.7208C23.673 10.6238 34.9462 7.69048 45.3338 9.91948C46.2035 10.1063 46.7345 10.9907 46.5026 11.8494L38.4789 41.5534L68.4698 33.4522C69.1735 33.2624 69.8907 33.7 70.05 34.4111ZM77.81 23.3436C76.3006 18.5358 73.6419 14.0113 69.8315 10.2009C66.0216 6.39104 61.4965 3.73174 56.6888 2.22295C55.9795 2.00017 55.227 2.41033 55.0335 3.12749L47.3089 31.7231C47.1447 32.331 47.7013 32.8876 48.3092 32.7234L76.9048 24.9988C77.6226 24.8053 78.0322 24.0528 77.81 23.3436Z" fill="#FDBF43"/>
<path d="M41.1806 42.2193L40.4689 39.5637L47.4837 13.18C47.8658 11.7444 46.974 10.2802 45.5232 9.96038L45.4964 9.95427L37.8133 38.852L16.6719 17.7106C16.3356 18.0195 16.0036 18.335 15.6776 18.6609C15.3517 18.9863 15.0368 19.3189 14.7279 19.6546L35.8693 40.7966L10.041 47.8467C7.72354 41.1896 7.49466 34.0668 9.38675 27.5306C6.01395 34.5612 5.33279 42.5593 7.34146 49.9805C7.34207 49.9842 7.34268 49.9878 7.34329 49.9909C7.34573 49.9994 7.34818 50.0086 7.35062 50.0178C7.35184 50.0214 7.35306 50.0245 7.35428 50.0281C8.7825 55.2759 11.5559 60.2338 15.6776 64.3549C19.7932 68.4705 24.7426 71.2421 29.9818 72.6728C29.9855 72.6734 29.9892 72.6752 29.9934 72.6764C30.002 72.6783 30.0111 72.6807 30.0197 72.6832C30.0233 72.6844 30.0276 72.685 30.0313 72.6856C37.4586 74.701 45.4646 74.0217 52.502 70.6464C45.959 72.5403 38.8295 72.309 32.1669 69.9854L39.2366 44.1633L60.378 65.3052C60.7136 64.9958 61.0463 64.6808 61.3722 64.3549C61.6975 64.029 62.0131 63.6969 62.3219 63.3613L41.1806 42.2193ZM29.5937 68.9722C25.627 67.2284 21.8837 64.7126 18.6018 61.4307C15.3145 58.1434 12.7968 54.394 11.0524 50.42L36.581 43.4522L29.5937 68.9722ZM47.3091 31.7231L55.0337 3.12749C55.2272 2.41033 55.9798 2.00017 56.689 2.22295C57.3909 2.44329 58.0855 2.69109 58.774 2.96026L50.9254 32.0173L48.3095 32.7241C47.7016 32.8876 47.1449 32.331 47.3091 31.7231Z" fill="#FDA800"/>
<path d="M64.6214 38.3575C64.0483 39.2706 63.7169 40.3503 63.7169 41.5076C63.7169 42.4341 63.9293 43.3112 64.3077 44.0924C64.5268 44.5447 64.4591 45.0732 64.1344 45.4559C63.5722 46.1175 63.1474 46.9134 62.9155 47.8107C62.7043 48.6285 62.6744 49.4501 62.8001 50.2338C62.8721 50.6818 62.6994 51.1279 62.3442 51.4105C61.7235 51.9055 61.1925 52.533 60.7976 53.2794C60.2568 54.303 60.045 55.4126 60.125 56.4874C60.1683 57.0691 59.7746 57.6031 59.2052 57.7332C58.1547 57.9736 57.1568 58.5028 56.3383 59.3213C55.6828 59.9768 55.2128 60.7471 54.9278 61.5668C54.763 62.0416 54.3419 62.3675 53.842 62.4084C52.9765 62.4792 52.1129 62.7417 51.3145 63.2117C50.5876 63.6407 49.9852 64.2004 49.5201 64.8431C49.254 65.2112 48.8164 65.4047 48.3647 65.3534C47.5761 65.2643 46.757 65.332 45.9501 65.5811C44.8442 65.9222 43.9097 66.5576 43.206 67.3737C42.8252 67.8162 42.169 67.915 41.6746 67.605C40.7616 67.0319 39.6818 66.7004 38.5246 66.7004C37.5981 66.7004 36.721 66.9128 35.9398 67.2906C35.4875 67.5098 34.9589 67.4426 34.5763 67.1179C33.9146 66.5558 33.1187 66.131 32.2215 65.899C31.4036 65.6879 30.5821 65.658 29.7984 65.7837C29.3504 65.8557 28.9043 65.683 28.6217 65.3278C28.1267 64.707 27.4992 64.1754 26.7528 63.7811C25.7292 63.2404 24.6196 63.0286 23.5448 63.1085C22.9631 63.1519 22.429 62.7576 22.299 62.1887C22.0586 61.1377 21.5294 60.1404 20.7109 59.3219C20.0554 58.6664 19.2857 58.1964 18.4654 57.9114C17.9912 57.7466 17.6646 57.3254 17.6237 56.8249C17.5529 55.9595 17.2905 55.0964 16.8205 54.2981C16.3914 53.5706 15.8317 52.9687 15.189 52.503C14.821 52.2369 14.6275 51.7999 14.6788 51.3483C14.7685 50.5597 14.7002 49.7406 14.4511 48.9337C14.1099 47.8271 13.4752 46.8933 12.6585 46.1896C12.216 45.8087 12.1178 45.1526 12.4278 44.6582C13.0003 43.7451 13.3317 42.6654 13.3317 41.5076C13.3317 40.5811 13.12 39.704 12.7415 38.9227C12.5224 38.4711 12.5896 37.9425 12.9143 37.5598C13.4764 36.8976 13.9012 36.1017 14.1331 35.2045C14.3443 34.3872 14.3742 33.5651 14.2485 32.782C14.1765 32.3334 14.3492 31.8872 14.7044 31.6046C15.3252 31.1102 15.8568 30.4828 16.2511 29.7357C16.7918 28.7128 17.0036 27.6031 16.9237 26.5283C16.8803 25.946 17.2746 25.4126 17.8435 25.282C18.8939 25.0415 19.8918 24.5123 20.7103 23.6938C21.3658 23.0389 21.8358 22.2687 22.1208 21.4484C22.2856 20.9741 22.7067 20.6482 23.2072 20.6073C24.0727 20.5365 24.9357 20.274 25.7341 19.8035C26.4616 19.375 27.0634 18.8147 27.5291 18.172C27.7952 17.804 28.2323 17.6111 28.6839 17.6617C29.4725 17.7515 30.2916 17.6831 31.0985 17.4347C32.205 17.0935 33.1389 16.4581 33.8426 15.6415C34.2235 15.1996 34.8796 15.1007 35.374 15.4108C36.2871 15.9839 37.3668 16.3153 38.5246 16.3153C39.4511 16.3153 40.3276 16.1029 41.1095 15.7245C41.5611 15.506 42.0897 15.5731 42.4724 15.8978C43.1346 16.46 43.9299 16.8848 44.8271 17.1167C44.9065 17.1368 44.9858 17.1539 45.0645 17.1716L38.4788 41.554L62.9417 34.9457C63.3 35.6787 63.7962 36.3141 64.3901 36.8262C64.8326 37.207 64.9315 37.8632 64.6214 38.3575ZM48.3092 32.7234L71.4018 26.4856C71.2669 26.2109 71.1503 25.9235 71.0576 25.6226C70.8085 24.8151 70.7408 23.996 70.8299 23.2074C70.8812 22.7563 70.6883 22.3187 70.3203 22.0526C69.677 21.5869 69.1173 20.9851 68.6882 20.2576C68.2182 19.4592 67.9558 18.5962 67.885 17.7307C67.8441 17.2333 67.5151 16.8079 67.0439 16.6443C66.2236 16.3593 65.4533 15.8893 64.7984 15.2338C63.9799 14.4159 63.4508 13.4174 63.2097 12.3669C63.0784 11.7932 62.5511 11.4038 61.9639 11.4478C60.8885 11.5271 59.7795 11.3159 58.7559 10.7751C58.0162 10.3839 57.393 9.8584 56.9005 9.24438C56.6173 8.8916 56.1766 8.69568 55.7304 8.76892C55.0163 8.88611 54.2705 8.87207 53.5246 8.71155L47.3088 31.723C47.1446 32.3309 47.7012 32.8876 48.3092 32.7234Z" fill="#FFF2B4"/>
<path d="M42.1538 43.1934L57.4254 58.465C57.0397 58.703 56.6735 58.9868 56.3384 59.3213C56.0039 59.6564 55.7183 60.0214 55.4796 60.4071L40.5675 45.4944C39.9736 44.9011 38.9604 45.1697 38.7389 45.979L33.1914 66.2408C32.8838 66.1017 32.5597 65.9863 32.2216 65.899C31.6393 65.7483 31.0558 65.6915 30.4851 65.7159L36.0741 45.3003C36.2981 44.4836 35.5486 43.7335 34.7313 43.9563L14.5854 49.4556C14.5482 49.281 14.5049 49.1071 14.4512 48.9337C14.2192 48.1805 13.8488 47.5098 13.3794 46.9348L34.0514 41.2921C34.8613 41.0712 35.1305 40.0574 34.5366 39.4635L19.6233 24.5508C20.0096 24.3127 20.3759 24.0289 20.7109 23.6938C21.0454 23.3594 21.3311 22.9944 21.5691 22.608L36.4702 37.5098C37.0665 38.1055 38.0846 37.8314 38.3013 37.0172L43.7029 16.6998C44.0569 16.8719 44.4316 17.0142 44.8278 17.1167C45.3496 17.2516 45.8727 17.312 46.3866 17.3053L40.8214 38.2379C40.5901 39.1064 40.5913 40.0208 40.8239 40.8893C41.057 41.7609 41.516 42.5555 42.1538 43.1934ZM48.3092 32.7234L50.8672 32.0325L56.9933 9.35425C56.9622 9.31763 56.9304 9.28162 56.9005 9.24438C56.6173 8.8916 56.1766 8.69568 55.7305 8.76892C55.0164 8.88611 54.2705 8.87207 53.5247 8.71155L47.3088 31.723C47.1447 32.3309 47.7013 32.8876 48.3092 32.7234Z" fill="#FFDF8E"/>
<path d="M38.2325 28.349C39.0399 29.1565 39.0399 30.4657 38.2325 31.2732C37.425 32.0807 36.1158 32.0807 35.3083 31.2732C34.5008 30.4657 34.5008 29.1565 35.3083 28.349C36.1158 27.5415 37.425 27.5415 38.2325 28.349ZM26.5357 22.5006C25.7282 23.3081 25.7282 24.6173 26.5357 25.4248C27.3432 26.2323 28.6524 26.2323 29.4599 25.4248C30.2674 24.6173 30.2674 23.3081 29.4599 22.5006C28.6524 21.6931 27.3432 21.6931 26.5357 22.5006ZM36.7701 50.2808C37.5775 49.4733 37.5775 48.1635 36.7701 47.356C35.9626 46.5485 34.6534 46.5485 33.8459 47.356C33.0384 48.1635 33.0384 49.4733 33.8459 50.2808C34.6534 51.0883 35.9626 51.0883 36.7701 50.2808ZM25.0733 41.5076C24.2658 42.3151 24.2658 43.6243 25.0733 44.4318C25.8808 45.2393 27.19 45.2393 27.9975 44.4318C28.805 43.6243 28.805 42.3151 27.9975 41.5076C27.19 40.7001 25.8808 40.7001 25.0733 41.5076ZM19.2249 32.735C18.4174 31.9275 17.1082 31.9275 16.3007 32.735C15.4932 33.5425 15.4932 34.8517 16.3007 35.6592C17.1082 36.4667 18.4174 36.4667 19.2249 35.6592C20.0324 34.8517 20.0324 33.5425 19.2249 32.735ZM35.3083 57.591C34.5008 58.3985 34.5008 59.7077 35.3083 60.5152C36.1158 61.3227 37.425 61.3227 38.2325 60.5152C39.0399 59.7077 39.0399 58.3985 38.2325 57.591C37.425 56.7835 36.1158 56.7835 35.3083 57.591ZM19.2249 47.356C18.4174 48.1635 18.4174 49.4733 19.2249 50.2808C20.0324 51.0883 21.3416 51.0883 22.1491 50.2808C22.9566 49.4733 22.9566 48.1635 22.1491 47.356C21.3416 46.5485 20.0324 46.5485 19.2249 47.356ZM49.9292 42.97C49.1217 42.1625 47.8125 42.1625 47.005 42.97C46.1975 43.7775 46.1975 45.0867 47.005 45.8942C47.8125 46.7017 49.1217 46.7017 49.9292 45.8942C50.7367 45.0867 50.7367 43.7775 49.9292 42.97ZM49.9292 57.591C49.1217 58.3985 49.1217 59.7077 49.9292 60.5152C50.7367 61.3227 52.0459 61.3227 52.8534 60.5152C53.6609 59.7077 53.6609 58.3985 52.8534 57.591C52.0459 56.7835 50.7367 56.7835 49.9292 57.591ZM54.2371 24.0406C53.4296 24.8481 53.4296 26.1573 54.2371 26.9648C55.0446 27.7722 56.3538 27.7722 57.1619 26.9648C57.9694 26.1573 57.9694 24.8481 57.1619 24.0406C56.3538 23.2331 55.0446 23.2331 54.2371 24.0406ZM71.1261 20.4602C70.3186 19.6527 69.0094 19.6527 68.2019 20.4602C67.3944 21.2677 67.3944 22.5769 68.2019 23.3844C69.0094 24.1919 70.3186 24.1919 71.1261 23.3844C71.9336 22.5769 71.9336 21.2677 71.1261 20.4602Z" fill="#73D37A"/>
<path d="M22.149 35.6592C20.534 34.0443 20.534 31.4258 22.149 29.8109C23.7639 28.1959 26.3824 28.1959 27.9973 29.8109C29.6123 31.4258 29.6123 34.0443 27.9973 35.6592C26.3824 37.2742 23.7639 37.2742 22.149 35.6592ZM23.6114 51.7426C21.9964 53.3576 21.9964 55.976 23.6114 57.591C25.2263 59.206 27.8448 59.206 29.4597 57.591C31.0747 55.976 31.0747 53.3576 29.4597 51.7426C27.8448 50.1276 25.2263 50.1276 23.6114 51.7426ZM11.9146 40.0458C10.299 41.6608 10.299 44.2792 11.9146 45.8942C13.5296 47.5092 16.148 47.5092 17.763 45.8942C19.378 44.2792 19.378 41.6608 17.763 40.0458C16.148 38.4308 13.5296 38.4308 11.9146 40.0458ZM30.9215 15.1899C29.3065 16.8049 29.3065 19.4233 30.9215 21.0383C32.5365 22.6533 35.1549 22.6533 36.7699 21.0383C38.3849 19.4233 38.3849 16.8049 36.7699 15.1899C35.1549 13.5749 32.5365 13.5749 30.9215 15.1899ZM52.8533 42.97C51.2383 44.585 51.2383 47.2034 52.8533 48.8184C54.4683 50.4334 57.0867 50.4334 58.7017 48.8184C60.3167 47.2034 60.3167 44.585 58.7017 42.97C57.0867 41.355 54.4683 41.355 52.8533 42.97ZM61.5478 13.8062C59.9328 12.1912 57.3144 12.1912 55.6994 13.8062C54.0844 15.4212 54.0844 18.0396 55.6994 19.6546C57.3144 21.2696 59.9328 21.2696 61.5478 19.6546C63.1628 18.0396 63.1628 15.4212 61.5478 13.8062ZM39.6941 61.9776C38.0791 63.5926 38.0791 66.211 39.6941 67.826C41.3091 69.441 43.9275 69.441 45.5425 67.826C47.1575 66.211 47.1575 63.5926 45.5425 61.9776C43.9275 60.3626 41.3091 60.3626 39.6941 61.9776ZM41.1565 48.8184C39.5415 50.4334 39.5415 53.0518 41.1565 54.6668C42.7715 56.2818 45.3899 56.2818 47.0049 54.6668C48.6199 53.0518 48.6199 50.4334 47.0049 48.8184C45.3899 47.2034 42.7715 47.2034 41.1565 48.8184Z" fill="#E84444"/>
</svg>
