<svg width="25" height="25" viewBox="0 0 25 25" fill="none" xmlns="http://www.w3.org/2000/svg">
<g clip-path="url(#clip0)">
<path d="M12.3217 12.0426C13.9761 12.0426 15.4085 11.4492 16.5793 10.2785C17.7496 9.10798 18.3432 7.67576 18.3432 6.02114C18.3432 4.36709 17.7498 2.93467 16.5791 1.76375C15.4083 0.593405 13.9759 3.05176e-05 12.3217 3.05176e-05C10.667 3.05176e-05 9.23482 0.593405 8.06428 1.76394C6.89374 2.93448 6.30017 4.3669 6.30017 6.02114C6.30017 7.67576 6.89374 9.10817 8.06428 10.2787C9.2352 11.4491 10.6676 12.0426 12.3217 12.0426ZM9.10035 2.79982C9.99852 1.90165 11.0521 1.46506 12.3217 1.46506C13.591 1.46506 14.6448 1.90165 15.5432 2.79982C16.4414 3.69818 16.8781 4.75199 16.8781 6.02114C16.8781 7.29067 16.4414 8.34428 15.5432 9.24264C14.6448 10.141 13.591 10.5776 12.3217 10.5776C11.0525 10.5776 9.9989 10.1408 9.10035 9.24264C8.20199 8.34447 7.76521 7.29067 7.76521 6.02114C7.76521 4.75199 8.20199 3.69818 9.10035 2.79982Z" fill="url(#paint0_linear)"/>
<path d="M12.3217 12.0426C13.9761 12.0426 15.4085 11.4492 16.5793 10.2785C17.7496 9.10798 18.3432 7.67576 18.3432 6.02114C18.3432 4.36709 17.7498 2.93467 16.5791 1.76375C15.4083 0.593405 13.9759 3.05176e-05 12.3217 3.05176e-05C10.667 3.05176e-05 9.23482 0.593405 8.06428 1.76394C6.89374 2.93448 6.30017 4.3669 6.30017 6.02114C6.30017 7.67576 6.89374 9.10817 8.06428 10.2787C9.2352 11.4491 10.6676 12.0426 12.3217 12.0426ZM9.10035 2.79982C9.99852 1.90165 11.0521 1.46506 12.3217 1.46506C13.591 1.46506 14.6448 1.90165 15.5432 2.79982C16.4414 3.69818 16.8781 4.75199 16.8781 6.02114C16.8781 7.29067 16.4414 8.34428 15.5432 9.24264C14.6448 10.141 13.591 10.5776 12.3217 10.5776C11.0525 10.5776 9.9989 10.1408 9.10035 9.24264C8.20199 8.34447 7.76521 7.29067 7.76521 6.02114C7.76521 4.75199 8.20199 3.69818 9.10035 2.79982Z" fill="#E45363"/>
<path d="M22.8577 19.2238C22.824 18.7367 22.7557 18.2053 22.6552 17.6441C22.5537 17.0788 22.423 16.5444 22.2666 16.0559C22.1049 15.551 21.8854 15.0524 21.6136 14.5746C21.3319 14.0787 21.0007 13.6469 20.6292 13.2916C20.2407 12.9198 19.765 12.6209 19.2149 12.4029C18.6667 12.1861 18.0592 12.0762 17.4094 12.0762C17.1542 12.0762 16.9074 12.1809 16.4307 12.4912C16.1374 12.6826 15.7942 12.9038 15.4113 13.1485C15.0838 13.3572 14.6401 13.5527 14.0921 13.7297C13.5575 13.9027 13.0147 13.9904 12.4787 13.9904C11.9431 13.9904 11.4003 13.9027 10.8653 13.7297C10.3179 13.5529 9.87403 13.3574 9.54711 13.1487C9.16774 12.9063 8.82442 12.685 8.52668 12.4911C8.05041 12.1807 7.8036 12.076 7.5484 12.076C6.89838 12.076 6.29108 12.1861 5.7431 12.4031C5.1934 12.6208 4.71751 12.9196 4.32861 13.2918C3.95705 13.6473 3.62594 14.0789 3.34441 14.5746C3.073 15.0524 2.85327 15.5508 2.69153 16.0561C2.53532 16.5445 2.40466 17.0788 2.30319 17.6441C2.20248 18.2045 2.13439 18.7361 2.10063 19.2244C2.06744 19.7018 2.05066 20.1986 2.05066 20.7007C2.05066 22.0057 2.46551 23.0621 3.28357 23.8413C4.09152 24.6101 5.1604 25 6.46064 25H18.4983C19.7982 25 20.867 24.6101 21.6752 23.8413C22.4934 23.0627 22.9083 22.0058 22.9083 20.7005C22.9081 20.1967 22.8911 19.6999 22.8577 19.2238ZM20.665 22.7798C20.1312 23.288 19.4224 23.535 18.4981 23.535H6.46064C5.53615 23.535 4.82738 23.288 4.2937 22.78C3.77013 22.2816 3.51569 21.6013 3.51569 20.7007C3.51569 20.2322 3.53114 19.7697 3.56204 19.3256C3.59218 18.89 3.65379 18.4115 3.74515 17.903C3.83537 17.4008 3.95019 16.9294 4.08675 16.5028C4.21779 16.0937 4.39651 15.6885 4.61814 15.2983C4.82967 14.9264 5.07304 14.6073 5.3416 14.3501C5.5928 14.1096 5.90942 13.9128 6.28249 13.7652C6.62753 13.6286 7.0153 13.5538 7.43625 13.5426C7.48756 13.5699 7.57892 13.6219 7.72693 13.7184C8.0281 13.9147 8.37524 14.1386 8.75899 14.3837C9.19158 14.6595 9.74891 14.9086 10.4148 15.1236C11.0955 15.3437 11.7898 15.4555 12.4789 15.4555C13.168 15.4555 13.8625 15.3437 14.5428 15.1238C15.2093 14.9084 15.7664 14.6595 16.1996 14.3833C16.5923 14.1323 16.9297 13.9149 17.2309 13.7184C17.3789 13.6221 17.4702 13.5699 17.5215 13.5426C17.9427 13.5538 18.3305 13.6286 18.6757 13.7652C19.0486 13.9128 19.3652 14.1098 19.6164 14.3501C19.8849 14.6071 20.1283 14.9262 20.3398 15.2985C20.5617 15.6885 20.7406 16.0938 20.8714 16.5026C21.0082 16.9298 21.1232 17.4009 21.2132 17.9028C21.3044 18.4122 21.3662 18.891 21.3963 19.3258V19.3262C21.4274 19.7685 21.4431 20.2309 21.4432 20.7007C21.4431 21.6015 21.1886 22.2816 20.665 22.7798Z" fill="url(#paint1_linear)"/>
<path d="M22.8577 19.2238C22.824 18.7367 22.7557 18.2053 22.6552 17.6441C22.5537 17.0788 22.423 16.5444 22.2666 16.0559C22.1049 15.551 21.8854 15.0524 21.6136 14.5746C21.3319 14.0787 21.0007 13.6469 20.6292 13.2916C20.2407 12.9198 19.765 12.6209 19.2149 12.4029C18.6667 12.1861 18.0592 12.0762 17.4094 12.0762C17.1542 12.0762 16.9074 12.1809 16.4307 12.4912C16.1374 12.6826 15.7942 12.9038 15.4113 13.1485C15.0838 13.3572 14.6401 13.5527 14.0921 13.7297C13.5575 13.9027 13.0147 13.9904 12.4787 13.9904C11.9431 13.9904 11.4003 13.9027 10.8653 13.7297C10.3179 13.5529 9.87403 13.3574 9.54711 13.1487C9.16774 12.9063 8.82442 12.685 8.52668 12.4911C8.05041 12.1807 7.8036 12.076 7.5484 12.076C6.89838 12.076 6.29108 12.1861 5.7431 12.4031C5.1934 12.6208 4.71751 12.9196 4.32861 13.2918C3.95705 13.6473 3.62594 14.0789 3.34441 14.5746C3.073 15.0524 2.85327 15.5508 2.69153 16.0561C2.53532 16.5445 2.40466 17.0788 2.30319 17.6441C2.20248 18.2045 2.13439 18.7361 2.10063 19.2244C2.06744 19.7018 2.05066 20.1986 2.05066 20.7007C2.05066 22.0057 2.46551 23.0621 3.28357 23.8413C4.09152 24.6101 5.1604 25 6.46064 25H18.4983C19.7982 25 20.867 24.6101 21.6752 23.8413C22.4934 23.0627 22.9083 22.0058 22.9083 20.7005C22.9081 20.1967 22.8911 19.6999 22.8577 19.2238ZM20.665 22.7798C20.1312 23.288 19.4224 23.535 18.4981 23.535H6.46064C5.53615 23.535 4.82738 23.288 4.2937 22.78C3.77013 22.2816 3.51569 21.6013 3.51569 20.7007C3.51569 20.2322 3.53114 19.7697 3.56204 19.3256C3.59218 18.89 3.65379 18.4115 3.74515 17.903C3.83537 17.4008 3.95019 16.9294 4.08675 16.5028C4.21779 16.0937 4.39651 15.6885 4.61814 15.2983C4.82967 14.9264 5.07304 14.6073 5.3416 14.3501C5.5928 14.1096 5.90942 13.9128 6.28249 13.7652C6.62753 13.6286 7.0153 13.5538 7.43625 13.5426C7.48756 13.5699 7.57892 13.6219 7.72693 13.7184C8.0281 13.9147 8.37524 14.1386 8.75899 14.3837C9.19158 14.6595 9.74891 14.9086 10.4148 15.1236C11.0955 15.3437 11.7898 15.4555 12.4789 15.4555C13.168 15.4555 13.8625 15.3437 14.5428 15.1238C15.2093 14.9084 15.7664 14.6595 16.1996 14.3833C16.5923 14.1323 16.9297 13.9149 17.2309 13.7184C17.3789 13.6221 17.4702 13.5699 17.5215 13.5426C17.9427 13.5538 18.3305 13.6286 18.6757 13.7652C19.0486 13.9128 19.3652 14.1098 19.6164 14.3501C19.8849 14.6071 20.1283 14.9262 20.3398 15.2985C20.5617 15.6885 20.7406 16.0938 20.8714 16.5026C21.0082 16.9298 21.1232 17.4009 21.2132 17.9028C21.3044 18.4122 21.3662 18.891 21.3963 19.3258V19.3262C21.4274 19.7685 21.4431 20.2309 21.4432 20.7007C21.4431 21.6015 21.1886 22.2816 20.665 22.7798Z" fill="#E45363"/>
</g>
<defs>
<linearGradient id="paint0_linear" x1="6.30017" y1="3.05176e-05" x2="19.5287" y2="3.13651" gradientUnits="userSpaceOnUse">
<stop stop-color="#FF785A"/>
<stop offset="1" stop-color="#DA4453"/>
</linearGradient>
<linearGradient id="paint1_linear" x1="2.05066" y1="12.076" x2="23.159" y2="20.1528" gradientUnits="userSpaceOnUse">
<stop stop-color="#FF785A"/>
<stop offset="1" stop-color="#DA4453"/>
</linearGradient>
<clipPath id="clip0">
<rect width="25" height="25" fill="white" transform="translate(-0.00012207)"/>
</clipPath>
</defs>
</svg>
