<svg width="18" height="19" viewBox="0 0 18 19" fill="none" xmlns="http://www.w3.org/2000/svg">
<g clip-path="url(#clip0)">
<path d="M8.1137 18.5C8.11187 18.5 8.11021 18.5 8.10838 18.5C6.36058 18.4986 4.7147 17.8145 3.47394 16.5737C2.82211 15.9219 2.27862 15.1347 1.90213 14.2971C1.487 13.3734 1.26946 12.3984 1.25558 11.3992C1.22364 9.09951 2.28939 6.80127 4.33772 4.75298C5.15578 3.93492 7.1393 2.28689 9.38464 1.29911C12.1473 0.0837124 14.4239 0.257447 15.9682 1.80168C16.351 2.18458 16.6307 2.79764 16.7162 3.44158C16.7894 3.99268 16.7603 4.83832 16.2062 5.73696C14.9157 7.82966 14.4287 9.49783 14.6273 11.1459C14.8706 13.1654 14.1848 15.1465 12.7458 16.581C11.5045 17.8185 9.85953 18.5 8.1137 18.5ZM12.7128 1.55149C11.8624 1.55149 10.8933 1.7896 9.81004 2.26618C7.70794 3.19096 5.85075 4.73403 5.08478 5.50004C1.21969 9.36513 1.86596 13.4715 4.22104 15.8266C6.3641 17.9696 9.85364 17.9725 11.9999 15.8327C13.2071 14.6292 13.7824 12.9669 13.5783 11.2722C13.3492 9.37062 13.8823 7.49244 15.3068 5.18237C16.0339 4.00324 15.5524 2.88005 15.221 2.54874C14.5563 1.8841 13.7175 1.55149 12.7128 1.55149Z" fill="url(#paint0_linear)"/>
<path d="M8.1137 18.5C8.11187 18.5 8.11021 18.5 8.10838 18.5C6.36058 18.4986 4.7147 17.8145 3.47394 16.5737C2.82211 15.9219 2.27862 15.1347 1.90213 14.2971C1.487 13.3734 1.26946 12.3984 1.25558 11.3992C1.22364 9.09951 2.28939 6.80127 4.33772 4.75298C5.15578 3.93492 7.1393 2.28689 9.38464 1.29911C12.1473 0.0837124 14.4239 0.257447 15.9682 1.80168C16.351 2.18458 16.6307 2.79764 16.7162 3.44158C16.7894 3.99268 16.7603 4.83832 16.2062 5.73696C14.9157 7.82966 14.4287 9.49783 14.6273 11.1459C14.8706 13.1654 14.1848 15.1465 12.7458 16.581C11.5045 17.8185 9.85953 18.5 8.1137 18.5ZM12.7128 1.55149C11.8624 1.55149 10.8933 1.7896 9.81004 2.26618C7.70794 3.19096 5.85075 4.73403 5.08478 5.50004C1.21969 9.36513 1.86596 13.4715 4.22104 15.8266C6.3641 17.9696 9.85364 17.9725 11.9999 15.8327C13.2071 14.6292 13.7824 12.9669 13.5783 11.2722C13.3492 9.37062 13.8823 7.49244 15.3068 5.18237C16.0339 4.00324 15.5524 2.88005 15.221 2.54874C14.5563 1.8841 13.7175 1.55149 12.7128 1.55149Z" fill="#E45363"/>
<path d="M8.11355 16.3868C6.92822 16.3868 5.81112 15.9225 4.96809 15.0795C3.97037 14.0818 3.38733 12.7297 3.36841 11.3698C3.35743 10.5781 3.52986 9.77391 3.88092 8.97962C4.29167 8.05024 4.94808 7.13089 5.83186 6.24714C7.34152 4.73745 10.4766 2.61133 12.72 2.61133C13.1992 2.61133 13.6031 2.70596 13.9548 2.90062C14.2469 3.0623 14.464 3.34011 14.5503 3.66271C14.6374 3.98768 14.59 4.32479 14.4171 4.61197L14.4088 4.62553C12.87 7.12102 12.2732 9.2725 12.5293 11.3986C12.6943 12.7685 12.2294 14.1119 11.2539 15.0845C10.4115 15.9243 9.29623 16.3868 8.11355 16.3868ZM12.72 3.66789C10.8834 3.66789 7.97345 5.59971 6.57892 6.99424C5.78773 7.78543 5.20511 8.59711 4.84729 9.40676C4.55814 10.061 4.416 10.7165 4.42487 11.3551C4.43998 12.4423 4.91029 13.5275 5.71518 14.3324C6.35867 14.9759 7.21043 15.3302 8.11355 15.3302C9.01459 15.3302 9.86494 14.9772 10.5079 14.3362C11.2518 13.5947 11.6062 12.57 11.4803 11.5249C11.194 9.14875 11.8384 6.78088 13.5081 4.07319L13.5112 4.06815C13.5422 4.0167 13.5383 3.96796 13.5297 3.93591C13.5223 3.9083 13.5012 3.85716 13.4431 3.82497C13.2495 3.71783 13.0197 3.66789 12.72 3.66789Z" fill="url(#paint1_linear)"/>
<path d="M8.11355 16.3868C6.92822 16.3868 5.81112 15.9225 4.96809 15.0795C3.97037 14.0818 3.38733 12.7297 3.36841 11.3698C3.35743 10.5781 3.52986 9.77391 3.88092 8.97962C4.29167 8.05024 4.94808 7.13089 5.83186 6.24714C7.34152 4.73745 10.4766 2.61133 12.72 2.61133C13.1992 2.61133 13.6031 2.70596 13.9548 2.90062C14.2469 3.0623 14.464 3.34011 14.5503 3.66271C14.6374 3.98768 14.59 4.32479 14.4171 4.61197L14.4088 4.62553C12.87 7.12102 12.2732 9.2725 12.5293 11.3986C12.6943 12.7685 12.2294 14.1119 11.2539 15.0845C10.4115 15.9243 9.29623 16.3868 8.11355 16.3868ZM12.72 3.66789C10.8834 3.66789 7.97345 5.59971 6.57892 6.99424C5.78773 7.78543 5.20511 8.59711 4.84729 9.40676C4.55814 10.061 4.416 10.7165 4.42487 11.3551C4.43998 12.4423 4.91029 13.5275 5.71518 14.3324C6.35867 14.9759 7.21043 15.3302 8.11355 15.3302C9.01459 15.3302 9.86494 14.9772 10.5079 14.3362C11.2518 13.5947 11.6062 12.57 11.4803 11.5249C11.194 9.14875 11.8384 6.78088 13.5081 4.07319L13.5112 4.06815C13.5422 4.0167 13.5383 3.96796 13.5297 3.93591C13.5223 3.9083 13.5012 3.85716 13.4431 3.82497C13.2495 3.71783 13.0197 3.66789 12.72 3.66789Z" fill="#E45363"/>
<path d="M8.15305 13.718C7.21828 13.718 6.45776 12.9575 6.45776 12.0227C6.45776 11.0879 7.21828 10.3274 8.15305 10.3274C9.08783 10.3274 9.84835 11.0879 9.84835 12.0227C9.84835 12.9575 9.08783 13.718 8.15305 13.718ZM8.15305 11.384C7.80087 11.384 7.51433 11.6705 7.51433 12.0227C7.51433 12.3749 7.80087 12.6614 8.15305 12.6614C8.50524 12.6614 8.79178 12.3749 8.79178 12.0227C8.79178 11.6705 8.50524 11.384 8.15305 11.384Z" fill="url(#paint2_linear)"/>
<path d="M8.15305 13.718C7.21828 13.718 6.45776 12.9575 6.45776 12.0227C6.45776 11.0879 7.21828 10.3274 8.15305 10.3274C9.08783 10.3274 9.84835 11.0879 9.84835 12.0227C9.84835 12.9575 9.08783 13.718 8.15305 13.718ZM8.15305 11.384C7.80087 11.384 7.51433 11.6705 7.51433 12.0227C7.51433 12.3749 7.80087 12.6614 8.15305 12.6614C8.50524 12.6614 8.79178 12.3749 8.79178 12.0227C8.79178 11.6705 8.50524 11.384 8.15305 11.384Z" fill="#E45363"/>
</g>
<defs>
<linearGradient id="paint0_linear" x1="1.25488" y1="0.5" x2="18.5085" y2="4.02039" gradientUnits="userSpaceOnUse">
<stop stop-color="#FF785A"/>
<stop offset="1" stop-color="#DA4453"/>
</linearGradient>
<linearGradient id="paint1_linear" x1="3.36792" y1="2.61133" x2="15.9225" y2="5.03681" gradientUnits="userSpaceOnUse">
<stop stop-color="#FF785A"/>
<stop offset="1" stop-color="#DA4453"/>
</linearGradient>
<linearGradient id="paint2_linear" x1="6.45776" y1="10.3274" x2="10.1821" y2="11.2104" gradientUnits="userSpaceOnUse">
<stop stop-color="#FF785A"/>
<stop offset="1" stop-color="#DA4453"/>
</linearGradient>
<clipPath id="clip0">
<rect width="18" height="18" fill="white" transform="translate(0 0.5)"/>
</clipPath>
</defs>
</svg>
