<svg width="18" height="19" viewBox="0 0 18 19" fill="none" xmlns="http://www.w3.org/2000/svg">
<path d="M17.9939 11.108C17.3792 7.10243 15.2551 4.05168 11.2767 3.28131C11.0016 2.74463 10.4912 1.95676 9.65338 1.35672C8.16555 0.291111 6.37873 0.309842 4.63046 0.919718C4.10556 1.10281 4.17469 1.8327 4.69168 1.93694C5.93522 2.21661 6.45738 2.83934 6.75937 3.38185C5.69657 3.61886 5.04888 3.90974 4.30563 4.40093C0.576445 6.86261 -0.489415 10.2007 0.197917 13.0027C0.197987 13.003 0.198092 13.0032 0.198163 13.0035C1.00382 16.2845 4.37219 18.3389 4.51519 18.4248C4.59549 18.473 4.68767 18.5 4.79096 18.5C4.93867 18.5 5.8661 18.4688 6.50985 17.7105C7.07882 17.0404 7.24076 16.0428 6.99103 14.7455C6.92778 14.4165 6.57265 14.2262 6.26062 14.3628C6.2519 14.3666 5.37715 14.7436 4.31041 14.7036C3.02884 14.6553 2.02129 14.0383 1.31189 12.8683C1.49491 12.5502 1.87854 11.9606 2.45292 11.4593C3.50033 10.5452 4.6939 10.3361 6.00052 10.8378C6.11157 10.8818 7.861 11.5678 10.1483 12.0235C12.4965 12.4913 15.2915 12.701 17.5041 11.7536C17.6878 11.6748 17.8186 11.6289 17.9176 11.4739C17.987 11.3651 18.014 11.2353 17.9939 11.108ZM6.03841 15.5466C6.08757 16.1984 5.97789 16.7013 5.71358 17.0193C5.4609 17.3233 5.11207 17.4106 4.92531 17.4357C4.56763 17.199 3.55255 16.4814 2.65552 15.4149C3.72784 15.8561 4.92795 15.8477 6.03841 15.5466ZM11.6581 11.2071C11.2059 10.3608 10.4772 8.65252 10.9237 7.07776C11.1784 6.17946 11.797 5.43351 12.764 4.85751C15.1679 5.97429 16.3909 8.24209 16.8828 10.8682C15.2919 11.478 13.3399 11.4364 11.6581 11.2071ZM9.94461 3.11662C9.14837 3.07122 8.4246 3.11937 7.84702 3.19232C7.62593 2.73131 7.27316 2.08573 6.51818 1.57155C8.28712 1.42553 9.34732 2.2968 9.94461 3.11662ZM6.38717 9.85699C4.52957 9.11395 2.58031 9.55591 1.07045 11.375C1.08546 9.79942 1.72183 7.3698 4.88669 5.28067C5.2629 5.03203 5.5782 4.86275 5.9089 4.73191C6.6985 4.41956 7.68462 4.24644 8.52802 4.18305C9.5393 4.10882 10.5727 4.17134 11.5388 4.42118C9.4428 6.07547 9.32788 8.5427 10.3863 10.9933C8.16123 10.5519 6.42154 9.87062 6.38717 9.85699Z" fill="url(#paint0_linear)"/>
<path d="M17.9939 11.108C17.3792 7.10243 15.2551 4.05168 11.2767 3.28131C11.0016 2.74463 10.4912 1.95676 9.65338 1.35672C8.16555 0.291111 6.37873 0.309842 4.63046 0.919718C4.10556 1.10281 4.17469 1.8327 4.69168 1.93694C5.93522 2.21661 6.45738 2.83934 6.75937 3.38185C5.69657 3.61886 5.04888 3.90974 4.30563 4.40093C0.576445 6.86261 -0.489415 10.2007 0.197917 13.0027C0.197987 13.003 0.198092 13.0032 0.198163 13.0035C1.00382 16.2845 4.37219 18.3389 4.51519 18.4248C4.59549 18.473 4.68767 18.5 4.79096 18.5C4.93867 18.5 5.8661 18.4688 6.50985 17.7105C7.07882 17.0404 7.24076 16.0428 6.99103 14.7455C6.92778 14.4165 6.57265 14.2262 6.26062 14.3628C6.2519 14.3666 5.37715 14.7436 4.31041 14.7036C3.02884 14.6553 2.02129 14.0383 1.31189 12.8683C1.49491 12.5502 1.87854 11.9606 2.45292 11.4593C3.50033 10.5452 4.6939 10.3361 6.00052 10.8378C6.11157 10.8818 7.861 11.5678 10.1483 12.0235C12.4965 12.4913 15.2915 12.701 17.5041 11.7536C17.6878 11.6748 17.8186 11.6289 17.9176 11.4739C17.987 11.3651 18.014 11.2353 17.9939 11.108ZM6.03841 15.5466C6.08757 16.1984 5.97789 16.7013 5.71358 17.0193C5.4609 17.3233 5.11207 17.4106 4.92531 17.4357C4.56763 17.199 3.55255 16.4814 2.65552 15.4149C3.72784 15.8561 4.92795 15.8477 6.03841 15.5466ZM11.6581 11.2071C11.2059 10.3608 10.4772 8.65252 10.9237 7.07776C11.1784 6.17946 11.797 5.43351 12.764 4.85751C15.1679 5.97429 16.3909 8.24209 16.8828 10.8682C15.2919 11.478 13.3399 11.4364 11.6581 11.2071ZM9.94461 3.11662C9.14837 3.07122 8.4246 3.11937 7.84702 3.19232C7.62593 2.73131 7.27316 2.08573 6.51818 1.57155C8.28712 1.42553 9.34732 2.2968 9.94461 3.11662ZM6.38717 9.85699C4.52957 9.11395 2.58031 9.55591 1.07045 11.375C1.08546 9.79942 1.72183 7.3698 4.88669 5.28067C5.2629 5.03203 5.5782 4.86275 5.9089 4.73191C6.6985 4.41956 7.68462 4.24644 8.52802 4.18305C9.5393 4.10882 10.5727 4.17134 11.5388 4.42118C9.4428 6.07547 9.32788 8.5427 10.3863 10.9933C8.16123 10.5519 6.42154 9.87062 6.38717 9.85699Z" fill="#E45363"/>
<defs>
<linearGradient id="paint0_linear" x1="0.00219727" y1="0.5" x2="19.7724" y2="5.1869" gradientUnits="userSpaceOnUse">
<stop stop-color="#FF785A"/>
<stop offset="1" stop-color="#DA4453"/>
</linearGradient>
</defs>
</svg>
