<svg width="18" height="19" viewBox="0 0 18 19" fill="none" xmlns="http://www.w3.org/2000/svg">
<g clip-path="url(#clip0)">
<path d="M17.471 9.21957C16.4126 9.21957 16.2768 9.00603 15.8735 8.37225C15.588 7.92346 15.2089 7.32787 14.4126 6.65166C14.4516 6.55676 14.4879 6.46008 14.5212 6.36189C14.9707 5.03667 14.1993 3.62918 14.1662 3.56999C14.0339 3.33269 13.7435 3.23436 13.4942 3.34203C13.4382 3.36633 12.2417 3.89409 11.676 4.96677C11.1627 4.72424 10.5995 4.4846 9.99481 4.25156C8.92886 3.84067 7.83751 3.70746 6.75124 3.85564C5.7637 3.99036 4.81256 4.36266 4.0004 4.93216C3.53458 5.25887 3.12891 5.63762 2.79176 6.0529C2.69604 5.95897 2.60335 5.86778 2.51395 5.77824C3.02811 5.54822 3.38736 5.03214 3.38736 4.43338C3.38736 3.62122 2.72653 2.96039 1.91423 2.96039C1.60524 2.96039 1.31808 3.05624 1.08092 3.21967C1.06609 3.07217 1.05812 2.91699 1.05812 2.75165C1.05812 2.45955 0.821228 2.22266 0.528992 2.22266C0.236893 2.22266 0 2.45955 0 2.75165C0 4.79689 0.98053 5.75847 2.11583 6.87207C2.14288 6.89857 2.17076 6.92618 2.19823 6.95309C1.83032 7.65759 1.63792 8.42348 1.65289 9.19485C1.67047 12.2291 2.77982 16.1974 2.82706 16.3649C2.89133 16.5929 3.09938 16.7504 3.33627 16.7504H4.80569C4.96115 16.7504 5.10878 16.682 5.2093 16.5634C5.30983 16.4447 5.35309 16.2878 5.32755 16.1344C5.32535 16.121 5.14709 15.0452 4.99713 13.7329C5.09752 13.7793 5.20024 13.8227 5.30406 13.865C5.58875 15.2516 5.87659 16.2808 5.90034 16.3649C5.96461 16.5929 6.17267 16.7504 6.40942 16.7504H7.87885C8.03444 16.7504 8.18207 16.682 8.28259 16.5632C8.38312 16.4446 8.42638 16.2878 8.4007 16.1344C8.39795 16.1171 8.2841 15.4281 8.16202 14.4841C8.51262 14.5073 8.87434 14.5166 9.24815 14.5102C9.48793 15.5921 9.69516 16.3302 9.70491 16.3649C9.76932 16.5929 9.97723 16.7504 10.2141 16.7504H11.6835C11.839 16.7504 11.9868 16.682 12.0872 16.5634C12.1877 16.4447 12.2309 16.2878 12.2054 16.1344C12.2039 16.1252 12.069 15.3127 11.9357 14.2413C12.0407 14.223 12.1451 14.2041 12.2489 14.1844C12.5103 15.4073 12.7564 16.2875 12.7782 16.3649C12.8425 16.5929 13.0505 16.7504 13.2874 16.7504H14.7568C14.9123 16.7504 15.0599 16.682 15.1604 16.5634C15.261 16.4447 15.3042 16.2879 15.2787 16.1344C15.2748 16.1117 15.0786 14.9231 14.9247 13.521C16.5245 13.0338 17.6164 12.5436 17.6892 12.5107C17.8785 12.425 18 12.2366 18 12.0288V9.7487C18 9.45647 17.7631 9.21957 17.471 9.21957ZM16.9419 11.6794C16.1296 12.0149 13.8296 12.8978 11.2725 13.2764C10.9903 13.3182 10.792 13.5763 10.8244 13.8598C10.9074 14.5856 10.9992 15.2421 11.0661 15.6923H10.6202C10.5189 15.3023 10.3556 14.6454 10.1897 13.858C10.1361 13.6039 9.90527 13.4261 9.64682 13.4387C7.57356 13.5373 5.8965 13.1664 4.66246 12.3364C4.49313 12.2225 4.27354 12.2161 4.0979 12.3201C3.92239 12.4239 3.82214 12.6193 3.84027 12.8225C3.94038 13.9401 4.0909 15.0361 4.18826 15.6923H3.74249C3.4655 14.6233 2.72392 11.5461 2.71088 9.1851C2.71088 9.1825 2.71088 9.18002 2.71074 9.17741C2.6852 7.91261 3.39436 6.64946 4.60794 5.79843C6.06377 4.77753 7.88846 4.57359 9.61427 5.23882C10.3972 5.54066 11.1047 5.8524 11.7171 6.16551C11.8575 6.23734 12.0228 6.24269 12.1675 6.18021C12.3124 6.11758 12.4218 5.99371 12.4659 5.84224C12.4827 5.78429 12.4991 5.73183 12.516 5.68198C12.685 5.18402 13.1104 4.81145 13.448 4.58156C13.5761 4.97006 13.6875 5.52597 13.5192 6.02214C13.4558 6.20918 13.3787 6.38881 13.2902 6.5558C13.1692 6.78432 13.231 7.0668 13.4364 7.22377C14.3167 7.89668 14.6849 8.47525 14.9808 8.94025C15.2141 9.30692 15.4346 9.65326 15.8184 9.9032C16.1142 10.0957 16.4718 10.209 16.942 10.2545V11.6794H16.9419ZM1.49936 4.43338C1.49936 4.20459 1.68558 4.01851 1.91437 4.01851C2.14316 4.01851 2.32924 4.20459 2.32924 4.43338C2.32924 4.66217 2.14316 4.84839 1.91437 4.84839C1.68558 4.84839 1.49936 4.66217 1.49936 4.43338ZM7.26086 15.6923H6.81578C6.73146 15.367 6.60402 14.8556 6.46738 14.2351C6.66595 14.2825 6.86989 14.3234 7.07849 14.3586C7.14386 14.8848 7.20964 15.3487 7.26086 15.6923ZM14.1387 15.6923H13.6936C13.5974 15.3208 13.4449 14.7064 13.2865 13.964C13.4927 13.9154 13.6946 13.8651 13.8917 13.8135C13.9764 14.5624 14.0705 15.2342 14.1387 15.6923Z" fill="url(#paint0_linear)"/>
<path d="M17.471 9.21957C16.4126 9.21957 16.2768 9.00603 15.8735 8.37225C15.588 7.92346 15.2089 7.32787 14.4126 6.65166C14.4516 6.55676 14.4879 6.46008 14.5212 6.36189C14.9707 5.03667 14.1993 3.62918 14.1662 3.56999C14.0339 3.33269 13.7435 3.23436 13.4942 3.34203C13.4382 3.36633 12.2417 3.89409 11.676 4.96677C11.1627 4.72424 10.5995 4.4846 9.99481 4.25156C8.92886 3.84067 7.83751 3.70746 6.75124 3.85564C5.7637 3.99036 4.81256 4.36266 4.0004 4.93216C3.53458 5.25887 3.12891 5.63762 2.79176 6.0529C2.69604 5.95897 2.60335 5.86778 2.51395 5.77824C3.02811 5.54822 3.38736 5.03214 3.38736 4.43338C3.38736 3.62122 2.72653 2.96039 1.91423 2.96039C1.60524 2.96039 1.31808 3.05624 1.08092 3.21967C1.06609 3.07217 1.05812 2.91699 1.05812 2.75165C1.05812 2.45955 0.821228 2.22266 0.528992 2.22266C0.236893 2.22266 0 2.45955 0 2.75165C0 4.79689 0.98053 5.75847 2.11583 6.87207C2.14288 6.89857 2.17076 6.92618 2.19823 6.95309C1.83032 7.65759 1.63792 8.42348 1.65289 9.19485C1.67047 12.2291 2.77982 16.1974 2.82706 16.3649C2.89133 16.5929 3.09938 16.7504 3.33627 16.7504H4.80569C4.96115 16.7504 5.10878 16.682 5.2093 16.5634C5.30983 16.4447 5.35309 16.2878 5.32755 16.1344C5.32535 16.121 5.14709 15.0452 4.99713 13.7329C5.09752 13.7793 5.20024 13.8227 5.30406 13.865C5.58875 15.2516 5.87659 16.2808 5.90034 16.3649C5.96461 16.5929 6.17267 16.7504 6.40942 16.7504H7.87885C8.03444 16.7504 8.18207 16.682 8.28259 16.5632C8.38312 16.4446 8.42638 16.2878 8.4007 16.1344C8.39795 16.1171 8.2841 15.4281 8.16202 14.4841C8.51262 14.5073 8.87434 14.5166 9.24815 14.5102C9.48793 15.5921 9.69516 16.3302 9.70491 16.3649C9.76932 16.5929 9.97723 16.7504 10.2141 16.7504H11.6835C11.839 16.7504 11.9868 16.682 12.0872 16.5634C12.1877 16.4447 12.2309 16.2878 12.2054 16.1344C12.2039 16.1252 12.069 15.3127 11.9357 14.2413C12.0407 14.223 12.1451 14.2041 12.2489 14.1844C12.5103 15.4073 12.7564 16.2875 12.7782 16.3649C12.8425 16.5929 13.0505 16.7504 13.2874 16.7504H14.7568C14.9123 16.7504 15.0599 16.682 15.1604 16.5634C15.261 16.4447 15.3042 16.2879 15.2787 16.1344C15.2748 16.1117 15.0786 14.9231 14.9247 13.521C16.5245 13.0338 17.6164 12.5436 17.6892 12.5107C17.8785 12.425 18 12.2366 18 12.0288V9.7487C18 9.45647 17.7631 9.21957 17.471 9.21957ZM16.9419 11.6794C16.1296 12.0149 13.8296 12.8978 11.2725 13.2764C10.9903 13.3182 10.792 13.5763 10.8244 13.8598C10.9074 14.5856 10.9992 15.2421 11.0661 15.6923H10.6202C10.5189 15.3023 10.3556 14.6454 10.1897 13.858C10.1361 13.6039 9.90527 13.4261 9.64682 13.4387C7.57356 13.5373 5.8965 13.1664 4.66246 12.3364C4.49313 12.2225 4.27354 12.2161 4.0979 12.3201C3.92239 12.4239 3.82214 12.6193 3.84027 12.8225C3.94038 13.9401 4.0909 15.0361 4.18826 15.6923H3.74249C3.4655 14.6233 2.72392 11.5461 2.71088 9.1851C2.71088 9.1825 2.71088 9.18002 2.71074 9.17741C2.6852 7.91261 3.39436 6.64946 4.60794 5.79843C6.06377 4.77753 7.88846 4.57359 9.61427 5.23882C10.3972 5.54066 11.1047 5.8524 11.7171 6.16551C11.8575 6.23734 12.0228 6.24269 12.1675 6.18021C12.3124 6.11758 12.4218 5.99371 12.4659 5.84224C12.4827 5.78429 12.4991 5.73183 12.516 5.68198C12.685 5.18402 13.1104 4.81145 13.448 4.58156C13.5761 4.97006 13.6875 5.52597 13.5192 6.02214C13.4558 6.20918 13.3787 6.38881 13.2902 6.5558C13.1692 6.78432 13.231 7.0668 13.4364 7.22377C14.3167 7.89668 14.6849 8.47525 14.9808 8.94025C15.2141 9.30692 15.4346 9.65326 15.8184 9.9032C16.1142 10.0957 16.4718 10.209 16.942 10.2545V11.6794H16.9419ZM1.49936 4.43338C1.49936 4.20459 1.68558 4.01851 1.91437 4.01851C2.14316 4.01851 2.32924 4.20459 2.32924 4.43338C2.32924 4.66217 2.14316 4.84839 1.91437 4.84839C1.68558 4.84839 1.49936 4.66217 1.49936 4.43338ZM7.26086 15.6923H6.81578C6.73146 15.367 6.60402 14.8556 6.46738 14.2351C6.66595 14.2825 6.86989 14.3234 7.07849 14.3586C7.14386 14.8848 7.20964 15.3487 7.26086 15.6923ZM14.1387 15.6923H13.6936C13.5974 15.3208 13.4449 14.7064 13.2865 13.964C13.4927 13.9154 13.6946 13.8651 13.8917 13.8135C13.9764 14.5624 14.0705 15.2342 14.1387 15.6923Z" fill="#E45363"/>
<path d="M13.2314 9.22517C13.2186 8.93843 12.9989 8.69604 12.7024 8.69604C12.4257 8.69604 12.1605 8.93939 12.1733 9.22517C12.1862 9.51178 12.4058 9.75417 12.7024 9.75417C12.9791 9.75417 13.2442 9.51082 13.2314 9.22517Z" fill="url(#paint1_linear)"/>
<path d="M13.2314 9.22517C13.2186 8.93843 12.9989 8.69604 12.7024 8.69604C12.4257 8.69604 12.1605 8.93939 12.1733 9.22517C12.1862 9.51178 12.4058 9.75417 12.7024 9.75417C12.9791 9.75417 13.2442 9.51082 13.2314 9.22517Z" fill="#E45363"/>
<line x1="15.782" y1="2.1392" x2="0.35345" y2="17.5678" stroke="url(#paint2_linear)"/>
<line x1="15.782" y1="2.1392" x2="0.35345" y2="17.5678" stroke="#E45363"/>
<line x1="16.3608" y1="17.5679" x2="0.932232" y2="2.13934" stroke="url(#paint3_linear)"/>
<line x1="16.3608" y1="17.5679" x2="0.932232" y2="2.13934" stroke="#E45363"/>
</g>
<defs>
<linearGradient id="paint0_linear" x1="0" y1="2.22266" x2="19.2245" y2="7.87001" gradientUnits="userSpaceOnUse">
<stop stop-color="#FF785A"/>
<stop offset="1" stop-color="#DA4453"/>
</linearGradient>
<linearGradient id="paint1_linear" x1="12.1729" y1="8.69604" x2="13.336" y2="8.97205" gradientUnits="userSpaceOnUse">
<stop stop-color="#FF785A"/>
<stop offset="1" stop-color="#DA4453"/>
</linearGradient>
<linearGradient id="paint2_linear" x1="15.4285" y1="1.78564" x2="11.4482" y2="-0.90511" gradientUnits="userSpaceOnUse">
<stop stop-color="#FF785A"/>
<stop offset="1" stop-color="#DA4453"/>
</linearGradient>
<linearGradient id="paint3_linear" x1="16.7144" y1="17.2144" x2="19.4051" y2="13.2341" gradientUnits="userSpaceOnUse">
<stop stop-color="#FF785A"/>
<stop offset="1" stop-color="#DA4453"/>
</linearGradient>
<clipPath id="clip0">
<rect width="18" height="18" fill="white" transform="translate(0 0.5)"/>
</clipPath>
</defs>
</svg>
