<svg width="18" height="19" viewBox="0 0 18 19" fill="none" xmlns="http://www.w3.org/2000/svg">
<g clip-path="url(#clip0)">
<path d="M17.8073 14.2342C18.0561 13.5302 18.0641 12.7496 17.8305 11.9768C17.5667 11.1045 17.0108 10.2668 16.2651 9.61812C15.724 9.14738 15.1278 8.8231 14.5606 8.68202L15.4711 7.76704C16.1202 8.09062 16.9342 7.98097 17.4709 7.44167C18.1447 6.76449 18.1447 5.66263 17.4709 4.98545C17.2121 4.7254 16.8839 4.55861 16.5337 4.49955C16.4753 4.14803 16.3096 3.8184 16.0509 3.55845C15.7237 3.22967 15.2886 3.04858 14.8256 3.04858C14.3626 3.04858 13.9274 3.22967 13.6003 3.55845C13.0763 4.08506 12.9569 4.87245 13.2541 5.51708L12.3103 6.46563C12.1075 6.42903 11.894 6.41043 11.671 6.41043C11.3183 6.41043 10.9517 6.45758 10.5842 6.54621C8.46492 5.54116 6.51916 5.23291 4.79834 5.63011C3.25747 5.98578 1.98165 6.89566 1.10872 8.26134C0.319324 9.49631 -0.0711914 11.0487 0.0372656 12.5204C0.116367 13.5936 0.445887 14.5587 0.987223 15.3361H0V16.3903H0.557578C0.85616 16.3903 1.09909 16.6271 1.09909 16.9181C1.09909 17.7904 1.81466 18.5001 2.69423 18.5001H15.2865C16.1661 18.5001 16.8816 17.7904 16.8816 16.9181C16.8816 16.627 17.1246 16.3903 17.4232 16.3903H17.9813V15.3361H17.1777C17.4578 14.9955 17.6683 14.6275 17.8073 14.2342ZM14.6469 5.61147L14.319 5.24093C14.0798 4.97065 14.0921 4.55833 14.3469 4.30222C14.4748 4.17362 14.6448 4.10278 14.8255 4.10278C15.0062 4.10278 15.1762 4.17362 15.3042 4.30226C15.4659 4.46471 15.5353 4.69685 15.4899 4.92318L15.334 5.70084L16.1109 5.54348C16.3342 5.49827 16.5635 5.56774 16.7242 5.72928C16.99 5.99633 16.99 6.4309 16.7242 6.69794C16.4646 6.9588 16.0389 6.96221 15.7752 6.70568L15.402 6.34248L14.0893 7.66168C13.9868 7.48548 13.8627 7.32179 13.7153 7.17371C13.6108 7.0687 13.497 6.97409 13.3747 6.89018L14.6469 5.61147ZM11.671 7.46466C12.0574 7.46466 12.5961 7.5432 12.9685 7.91744C13.3842 8.33517 13.5211 9.07138 13.344 9.93727C13.1623 10.8258 12.6705 11.7415 12.0285 12.3867C11.4472 12.9709 10.7963 13.2796 10.1461 13.2796C9.52611 13.2796 8.92888 13.0087 8.41894 12.4963C7.57121 11.6444 7.15468 10.2423 8.52789 8.86223C9.35968 8.02629 10.6228 7.46463 11.671 7.46466ZM15.828 16.9181C15.828 17.2092 15.585 17.4459 15.2865 17.4459H2.6942C2.39562 17.4459 2.15269 17.2092 2.15269 16.9181C2.15269 16.7331 2.12048 16.5554 2.06139 16.3903H15.9193C15.8602 16.5554 15.828 16.7331 15.828 16.9181ZM15.6316 15.3361H2.38018C1.63311 14.6591 1.17622 13.6396 1.08805 12.4429C0.995977 11.1935 1.32701 9.87645 1.99631 8.82936C2.49933 8.04239 3.43484 7.02676 5.03515 6.65737C6.26502 6.37352 7.65295 6.51935 9.17336 7.09032C8.66145 7.36524 8.18374 7.71396 7.78124 8.11846C6.98748 8.91616 6.57387 9.84158 6.58505 10.7946C6.59542 11.6774 6.98154 12.5459 7.67225 13.24C8.37411 13.9454 9.25267 14.3338 10.1461 14.3338C11.0827 14.3338 11.9918 13.9177 12.7751 13.1305C13.6683 12.2329 14.2959 10.9514 14.4407 9.74163C15.3521 10.0325 16.4466 11.0403 16.822 12.282C17.0745 13.1174 17.0648 14.3148 15.6316 15.3361Z" fill="url(#paint0_linear)"/>
<path d="M17.8073 14.2342C18.0561 13.5302 18.0641 12.7496 17.8305 11.9768C17.5667 11.1045 17.0108 10.2668 16.2651 9.61812C15.724 9.14738 15.1278 8.8231 14.5606 8.68202L15.4711 7.76704C16.1202 8.09062 16.9342 7.98097 17.4709 7.44167C18.1447 6.76449 18.1447 5.66263 17.4709 4.98545C17.2121 4.7254 16.8839 4.55861 16.5337 4.49955C16.4753 4.14803 16.3096 3.8184 16.0509 3.55845C15.7237 3.22967 15.2886 3.04858 14.8256 3.04858C14.3626 3.04858 13.9274 3.22967 13.6003 3.55845C13.0763 4.08506 12.9569 4.87245 13.2541 5.51708L12.3103 6.46563C12.1075 6.42903 11.894 6.41043 11.671 6.41043C11.3183 6.41043 10.9517 6.45758 10.5842 6.54621C8.46492 5.54116 6.51916 5.23291 4.79834 5.63011C3.25747 5.98578 1.98165 6.89566 1.10872 8.26134C0.319324 9.49631 -0.0711914 11.0487 0.0372656 12.5204C0.116367 13.5936 0.445887 14.5587 0.987223 15.3361H0V16.3903H0.557578C0.85616 16.3903 1.09909 16.6271 1.09909 16.9181C1.09909 17.7904 1.81466 18.5001 2.69423 18.5001H15.2865C16.1661 18.5001 16.8816 17.7904 16.8816 16.9181C16.8816 16.627 17.1246 16.3903 17.4232 16.3903H17.9813V15.3361H17.1777C17.4578 14.9955 17.6683 14.6275 17.8073 14.2342ZM14.6469 5.61147L14.319 5.24093C14.0798 4.97065 14.0921 4.55833 14.3469 4.30222C14.4748 4.17362 14.6448 4.10278 14.8255 4.10278C15.0062 4.10278 15.1762 4.17362 15.3042 4.30226C15.4659 4.46471 15.5353 4.69685 15.4899 4.92318L15.334 5.70084L16.1109 5.54348C16.3342 5.49827 16.5635 5.56774 16.7242 5.72928C16.99 5.99633 16.99 6.4309 16.7242 6.69794C16.4646 6.9588 16.0389 6.96221 15.7752 6.70568L15.402 6.34248L14.0893 7.66168C13.9868 7.48548 13.8627 7.32179 13.7153 7.17371C13.6108 7.0687 13.497 6.97409 13.3747 6.89018L14.6469 5.61147ZM11.671 7.46466C12.0574 7.46466 12.5961 7.5432 12.9685 7.91744C13.3842 8.33517 13.5211 9.07138 13.344 9.93727C13.1623 10.8258 12.6705 11.7415 12.0285 12.3867C11.4472 12.9709 10.7963 13.2796 10.1461 13.2796C9.52611 13.2796 8.92888 13.0087 8.41894 12.4963C7.57121 11.6444 7.15468 10.2423 8.52789 8.86223C9.35968 8.02629 10.6228 7.46463 11.671 7.46466ZM15.828 16.9181C15.828 17.2092 15.585 17.4459 15.2865 17.4459H2.6942C2.39562 17.4459 2.15269 17.2092 2.15269 16.9181C2.15269 16.7331 2.12048 16.5554 2.06139 16.3903H15.9193C15.8602 16.5554 15.828 16.7331 15.828 16.9181ZM15.6316 15.3361H2.38018C1.63311 14.6591 1.17622 13.6396 1.08805 12.4429C0.995977 11.1935 1.32701 9.87645 1.99631 8.82936C2.49933 8.04239 3.43484 7.02676 5.03515 6.65737C6.26502 6.37352 7.65295 6.51935 9.17336 7.09032C8.66145 7.36524 8.18374 7.71396 7.78124 8.11846C6.98748 8.91616 6.57387 9.84158 6.58505 10.7946C6.59542 11.6774 6.98154 12.5459 7.67225 13.24C8.37411 13.9454 9.25267 14.3338 10.1461 14.3338C11.0827 14.3338 11.9918 13.9177 12.7751 13.1305C13.6683 12.2329 14.2959 10.9514 14.4407 9.74163C15.3521 10.0325 16.4466 11.0403 16.822 12.282C17.0745 13.1174 17.0648 14.3148 15.6316 15.3361Z" fill="#E45363"/>
<path d="M9.47876 3.78292C9.34207 3.46241 9.33655 3.05301 9.46234 2.56578C9.71975 1.85939 9.72865 1.14564 9.48776 0.5L8.50068 0.868719C8.65452 1.28107 8.64246 1.74938 8.4657 2.22304L8.45666 2.24723L8.45005 2.27219C8.25634 3.00221 8.27642 3.64972 8.50971 4.19668L9.47876 3.78292Z" fill="url(#paint1_linear)"/>
<path d="M9.47876 3.78292C9.34207 3.46241 9.33655 3.05301 9.46234 2.56578C9.71975 1.85939 9.72865 1.14564 9.48776 0.5L8.50068 0.868719C8.65452 1.28107 8.64246 1.74938 8.4657 2.22304L8.45666 2.24723L8.45005 2.27219C8.25634 3.00221 8.27642 3.64972 8.50971 4.19668L9.47876 3.78292Z" fill="#E45363"/>
<path d="M6.64453 3.78292C6.50784 3.46241 6.50236 3.05301 6.62811 2.56578C6.88553 1.85939 6.89442 1.14564 6.65353 0.5L5.66645 0.868719C5.82029 1.28107 5.80823 1.74938 5.63147 2.22304L5.62243 2.24723L5.61582 2.27219C5.42211 3.00221 5.44219 3.64972 5.67548 4.19668L6.64453 3.78292Z" fill="url(#paint2_linear)"/>
<path d="M6.64453 3.78292C6.50784 3.46241 6.50236 3.05301 6.62811 2.56578C6.88553 1.85939 6.89442 1.14564 6.65353 0.5L5.66645 0.868719C5.82029 1.28107 5.80823 1.74938 5.63147 2.22304L5.62243 2.24723L5.61582 2.27219C5.42211 3.00221 5.44219 3.64972 5.67548 4.19668L6.64453 3.78292Z" fill="#E45363"/>
<path d="M12.313 3.78292C12.1763 3.46241 12.1708 3.05301 12.2966 2.56578C12.554 1.85939 12.5629 1.14564 12.322 0.5L11.3349 0.868719C11.4888 1.28107 11.4767 1.74938 11.2999 2.22304L11.2909 2.24723L11.2843 2.27219C11.0906 3.00221 11.1106 3.64972 11.3439 4.19668L12.313 3.78292Z" fill="url(#paint3_linear)"/>
<path d="M12.313 3.78292C12.1763 3.46241 12.1708 3.05301 12.2966 2.56578C12.554 1.85939 12.5629 1.14564 12.322 0.5L11.3349 0.868719C11.4888 1.28107 11.4767 1.74938 11.2999 2.22304L11.2909 2.24723L11.2843 2.27219C11.0906 3.00221 11.1106 3.64972 11.3439 4.19668L12.313 3.78292Z" fill="#E45363"/>
<path d="M10.9199 8.79541H11.9696V9.84961H10.9199V8.79541Z" fill="url(#paint4_linear)"/>
<path d="M10.9199 8.79541H11.9696V9.84961H10.9199V8.79541Z" fill="#E45363"/>
</g>
<defs>
<linearGradient id="paint0_linear" x1="0" y1="3.04858" x2="19.4032" y2="8.4077" gradientUnits="userSpaceOnUse">
<stop stop-color="#FF785A"/>
<stop offset="1" stop-color="#DA4453"/>
</linearGradient>
<linearGradient id="paint1_linear" x1="8.31836" y1="0.5" x2="9.8659" y2="0.633375" gradientUnits="userSpaceOnUse">
<stop stop-color="#FF785A"/>
<stop offset="1" stop-color="#DA4453"/>
</linearGradient>
<linearGradient id="paint2_linear" x1="5.48413" y1="0.5" x2="7.03167" y2="0.633375" gradientUnits="userSpaceOnUse">
<stop stop-color="#FF785A"/>
<stop offset="1" stop-color="#DA4453"/>
</linearGradient>
<linearGradient id="paint3_linear" x1="11.1526" y1="0.5" x2="12.7001" y2="0.633376" gradientUnits="userSpaceOnUse">
<stop stop-color="#FF785A"/>
<stop offset="1" stop-color="#DA4453"/>
</linearGradient>
<linearGradient id="paint4_linear" x1="10.9199" y1="8.79541" x2="12.0735" y2="9.06775" gradientUnits="userSpaceOnUse">
<stop stop-color="#FF785A"/>
<stop offset="1" stop-color="#DA4453"/>
</linearGradient>
<clipPath id="clip0">
<rect width="18" height="18" fill="white" transform="translate(0 0.5)"/>
</clipPath>
</defs>
</svg>
