<svg width="18" height="19" viewBox="0 0 18 19" fill="none" xmlns="http://www.w3.org/2000/svg">
<g clip-path="url(#clip0)">
<path d="M7.24096 8.20372C7.24096 8.20372 7.14576 7.91776 7.03336 7.58078C6.98646 7.44016 6.94456 7.29827 6.90757 7.15529C7.03621 7.18686 7.16959 7.2031 7.30547 7.2031C8.84208 7.2031 10.0922 5.95298 10.0922 4.41637C10.0922 2.2569 8.3353 0.5 6.17579 0.5H3.91641C1.7569 0.5 0 2.2569 0 4.41641C0 5.95302 1.25012 7.20314 2.78673 7.20314C2.92257 7.20314 3.05599 7.18689 3.18463 7.15532C3.14765 7.29827 3.10574 7.44016 3.05884 7.58082L2.851 8.20449C2.41527 9.5122 3.27667 11.1571 5.03814 11.1571C6.81047 11.1571 7.6789 9.52022 7.24177 8.20621C7.24149 8.20537 7.24124 8.20453 7.24096 8.20372ZM6.70314 5.54552C6.70314 5.21371 6.9731 4.94375 7.30547 4.94375C7.5967 4.94375 7.83253 4.70764 7.83253 4.41641C7.83253 4.12517 7.59614 3.88906 7.30491 3.88906C6.39155 3.88906 5.64845 4.63216 5.64845 5.54608C5.64845 6.35253 5.77776 7.14935 6.03281 7.91445C6.1405 8.23715 6.23233 8.51295 6.23981 8.53545C6.24013 8.53633 6.24041 8.53721 6.24069 8.53809C6.45458 9.17923 6.08207 10.1024 5.04468 10.1024C4.0905 10.1024 3.61234 9.25581 3.85154 8.53791L4.05939 7.91435C4.31441 7.14928 4.44375 6.3525 4.44375 5.54556C4.44375 4.6322 3.70065 3.8891 2.78726 3.8891H2.7867C2.49546 3.8891 2.25963 4.12521 2.25963 4.41644C2.25963 4.70768 2.49602 4.94379 2.78726 4.94379C3.1191 4.94379 3.38906 5.21375 3.38906 5.54612C3.38906 5.87993 3.11889 6.14845 2.7867 6.14845C1.83168 6.14845 1.05469 5.37143 1.05469 4.41641C1.05469 2.83845 2.33845 1.55469 3.91641 1.55469H6.17579C7.75375 1.55469 9.03748 2.83845 9.03748 4.41641C9.03748 5.37146 8.26049 6.14845 7.30544 6.14845C6.97194 6.14845 6.70314 5.87817 6.70314 5.54552Z" fill="url(#paint0_linear)"/>
<path d="M7.24096 8.20372C7.24096 8.20372 7.14576 7.91776 7.03336 7.58078C6.98646 7.44016 6.94456 7.29827 6.90757 7.15529C7.03621 7.18686 7.16959 7.2031 7.30547 7.2031C8.84208 7.2031 10.0922 5.95298 10.0922 4.41637C10.0922 2.2569 8.3353 0.5 6.17579 0.5H3.91641C1.7569 0.5 0 2.2569 0 4.41641C0 5.95302 1.25012 7.20314 2.78673 7.20314C2.92257 7.20314 3.05599 7.18689 3.18463 7.15532C3.14765 7.29827 3.10574 7.44016 3.05884 7.58082L2.851 8.20449C2.41527 9.5122 3.27667 11.1571 5.03814 11.1571C6.81047 11.1571 7.6789 9.52022 7.24177 8.20621C7.24149 8.20537 7.24124 8.20453 7.24096 8.20372ZM6.70314 5.54552C6.70314 5.21371 6.9731 4.94375 7.30547 4.94375C7.5967 4.94375 7.83253 4.70764 7.83253 4.41641C7.83253 4.12517 7.59614 3.88906 7.30491 3.88906C6.39155 3.88906 5.64845 4.63216 5.64845 5.54608C5.64845 6.35253 5.77776 7.14935 6.03281 7.91445C6.1405 8.23715 6.23233 8.51295 6.23981 8.53545C6.24013 8.53633 6.24041 8.53721 6.24069 8.53809C6.45458 9.17923 6.08207 10.1024 5.04468 10.1024C4.0905 10.1024 3.61234 9.25581 3.85154 8.53791L4.05939 7.91435C4.31441 7.14928 4.44375 6.3525 4.44375 5.54556C4.44375 4.6322 3.70065 3.8891 2.78726 3.8891H2.7867C2.49546 3.8891 2.25963 4.12521 2.25963 4.41644C2.25963 4.70768 2.49602 4.94379 2.78726 4.94379C3.1191 4.94379 3.38906 5.21375 3.38906 5.54612C3.38906 5.87993 3.11889 6.14845 2.7867 6.14845C1.83168 6.14845 1.05469 5.37143 1.05469 4.41641C1.05469 2.83845 2.33845 1.55469 3.91641 1.55469H6.17579C7.75375 1.55469 9.03748 2.83845 9.03748 4.41641C9.03748 5.37146 8.26049 6.14845 7.30544 6.14845C6.97194 6.14845 6.70314 5.87817 6.70314 5.54552Z" fill="#E45363"/>
<path d="M18.0001 11.7594C18.0001 9.59992 16.2432 7.84302 14.0838 7.84302H11.8244C9.66482 7.84302 7.90796 9.59992 7.90796 11.7594C7.90796 13.296 9.15808 14.5462 10.6947 14.5462C10.8305 14.5462 10.964 14.5299 11.0926 14.4983C11.0556 14.6413 11.0137 14.7832 10.9668 14.9238L10.759 15.5475C10.3232 16.8552 11.1846 18.5 12.9461 18.5C14.7184 18.5 15.5869 16.8632 15.1497 15.5492C15.1494 15.5484 15.1492 15.5475 15.1489 15.5467C15.1489 15.5467 15.0537 15.2607 14.9413 14.9238C14.8944 14.7831 14.8525 14.6413 14.8155 14.4983C14.9442 14.5298 15.0776 14.5461 15.2134 14.5461C16.75 14.5461 18.0001 13.296 18.0001 11.7594ZM14.6111 12.8885C14.6111 12.5567 14.8811 12.2868 15.2134 12.2868C15.5047 12.2868 15.7405 12.0507 15.7405 11.7594C15.7405 11.4682 15.5041 11.2321 15.2129 11.2321C14.2995 11.2321 13.5564 11.9752 13.5564 12.8891C13.5564 13.6956 13.6857 14.4924 13.9408 15.2575C14.0485 15.5802 14.1403 15.856 14.1478 15.8785C14.1481 15.8794 14.1484 15.8802 14.1487 15.8811C14.3625 16.5223 13.99 17.4454 12.9526 17.4454C11.9985 17.4454 11.5203 16.5988 11.7595 15.8809L11.9673 15.2574C12.2224 14.4923 12.3517 13.6955 12.3517 12.8886C12.3517 11.9752 11.6086 11.2321 10.6952 11.2321H10.6947C10.4034 11.2321 10.1676 11.4682 10.1676 11.7595C10.1676 12.0507 10.404 12.2868 10.6952 12.2868C11.0271 12.2868 11.297 12.5568 11.297 12.8891C11.297 13.2229 11.0268 13.4915 10.6947 13.4915C9.7396 13.4915 8.96261 12.7145 8.96261 11.7594C8.96261 10.1815 10.2464 8.89771 11.8243 8.89771H14.0837C15.6617 8.89771 16.9454 10.1815 16.9454 11.7594C16.9454 12.7145 16.1684 13.4915 15.2134 13.4915C14.8799 13.4914 14.6111 13.2212 14.6111 12.8885Z" fill="url(#paint1_linear)"/>
<path d="M18.0001 11.7594C18.0001 9.59992 16.2432 7.84302 14.0838 7.84302H11.8244C9.66482 7.84302 7.90796 9.59992 7.90796 11.7594C7.90796 13.296 9.15808 14.5462 10.6947 14.5462C10.8305 14.5462 10.964 14.5299 11.0926 14.4983C11.0556 14.6413 11.0137 14.7832 10.9668 14.9238L10.759 15.5475C10.3232 16.8552 11.1846 18.5 12.9461 18.5C14.7184 18.5 15.5869 16.8632 15.1497 15.5492C15.1494 15.5484 15.1492 15.5475 15.1489 15.5467C15.1489 15.5467 15.0537 15.2607 14.9413 14.9238C14.8944 14.7831 14.8525 14.6413 14.8155 14.4983C14.9442 14.5298 15.0776 14.5461 15.2134 14.5461C16.75 14.5461 18.0001 13.296 18.0001 11.7594ZM14.6111 12.8885C14.6111 12.5567 14.8811 12.2868 15.2134 12.2868C15.5047 12.2868 15.7405 12.0507 15.7405 11.7594C15.7405 11.4682 15.5041 11.2321 15.2129 11.2321C14.2995 11.2321 13.5564 11.9752 13.5564 12.8891C13.5564 13.6956 13.6857 14.4924 13.9408 15.2575C14.0485 15.5802 14.1403 15.856 14.1478 15.8785C14.1481 15.8794 14.1484 15.8802 14.1487 15.8811C14.3625 16.5223 13.99 17.4454 12.9526 17.4454C11.9985 17.4454 11.5203 16.5988 11.7595 15.8809L11.9673 15.2574C12.2224 14.4923 12.3517 13.6955 12.3517 12.8886C12.3517 11.9752 11.6086 11.2321 10.6952 11.2321H10.6947C10.4034 11.2321 10.1676 11.4682 10.1676 11.7595C10.1676 12.0507 10.404 12.2868 10.6952 12.2868C11.0271 12.2868 11.297 12.5568 11.297 12.8891C11.297 13.2229 11.0268 13.4915 10.6947 13.4915C9.7396 13.4915 8.96261 12.7145 8.96261 11.7594C8.96261 10.1815 10.2464 8.89771 11.8243 8.89771H14.0837C15.6617 8.89771 16.9454 10.1815 16.9454 11.7594C16.9454 12.7145 16.1684 13.4915 15.2134 13.4915C14.8799 13.4914 14.6111 13.2212 14.6111 12.8885Z" fill="#E45363"/>
<line x1="17.6464" y1="17.5679" x2="2.21788" y2="2.13934" stroke="url(#paint2_linear)"/>
<line x1="17.6464" y1="17.5679" x2="2.21788" y2="2.13934" stroke="#E45363"/>
<line x1="17.0679" y1="2.1392" x2="1.63934" y2="17.5678" stroke="url(#paint3_linear)"/>
<line x1="17.0679" y1="2.1392" x2="1.63934" y2="17.5678" stroke="#E45363"/>
</g>
<defs>
<linearGradient id="paint0_linear" x1="0" y1="0.5" x2="11.1469" y2="3.00277" gradientUnits="userSpaceOnUse">
<stop stop-color="#FF785A"/>
<stop offset="1" stop-color="#DA4453"/>
</linearGradient>
<linearGradient id="paint1_linear" x1="7.90796" y1="7.84302" x2="19.0549" y2="10.3458" gradientUnits="userSpaceOnUse">
<stop stop-color="#FF785A"/>
<stop offset="1" stop-color="#DA4453"/>
</linearGradient>
<linearGradient id="paint2_linear" x1="18" y1="17.2144" x2="20.6908" y2="13.2341" gradientUnits="userSpaceOnUse">
<stop stop-color="#FF785A"/>
<stop offset="1" stop-color="#DA4453"/>
</linearGradient>
<linearGradient id="paint3_linear" x1="16.7144" y1="1.78564" x2="12.7341" y2="-0.90511" gradientUnits="userSpaceOnUse">
<stop stop-color="#FF785A"/>
<stop offset="1" stop-color="#DA4453"/>
</linearGradient>
<clipPath id="clip0">
<rect width="18" height="18" fill="white" transform="translate(0 0.5)"/>
</clipPath>
</defs>
</svg>
