<svg width="16" height="19" viewBox="0 0 16 19" fill="none" xmlns="http://www.w3.org/2000/svg">
<path d="M15.6576 14.8792C15.551 14.6886 15.5055 14.5141 15.5055 14.2957V8.21609C15.5055 7.39983 15.2664 6.68629 14.7747 6.03477L14.6172 5.82598C14.2638 5.3578 14.0992 4.86653 14.0992 4.27994V1.47288C14.247 1.37944 14.3453 1.21505 14.3453 1.02735C14.3453 0.73611 14.1092 0.5 13.818 0.5H10.5122C10.221 0.5 9.98489 0.73611 9.98489 1.02735C9.98489 1.2155 10.0837 1.38021 10.232 1.47352V4.27991C10.232 4.86649 10.0675 5.35773 9.71408 5.82595L9.55654 6.0347C9.07652 6.67075 8.83798 7.36611 8.82684 8.15815C8.04809 7.61836 7.11687 7.32027 6.15896 7.32027H4.72567C2.14051 7.32027 0.0373535 9.42343 0.0373535 12.0085V12.4247C0.0373535 12.6132 0.13653 12.7781 0.285206 12.8713C0.127741 13.1493 0.0373535 13.47 0.0373535 13.8117C0.0373535 14.1533 0.127741 14.4741 0.285241 14.7521C0.136565 14.8454 0.0373887 15.0102 0.0373887 15.1987V15.291C0.0373887 17.0604 1.47694 18.5 3.24636 18.5H7.63824C8.24071 18.5 8.83281 18.3271 9.34114 18.0083C9.75641 18.3241 10.2674 18.5 10.812 18.5H13.5191C14.8664 18.5 15.9625 17.4039 15.9625 16.0566C15.9625 15.637 15.8599 15.2409 15.6576 14.8792ZM1.95165 14.6714C1.47764 14.6714 1.09201 14.2857 1.09201 13.8117C1.09201 13.5514 1.20841 13.318 1.39172 13.1602L3.33773 14.6714H1.95165ZM2.84333 12.952H8.04127L5.44233 14.9702L2.84333 12.952ZM8.82575 13.6782V14.2941C8.82575 14.4324 8.80729 14.553 8.76683 14.6713H7.54679L8.82575 13.6782ZM9.88044 8.93746H14.4508V12.5937H9.88044V8.93746ZM13.0445 1.55469V3.03122H11.2867V1.55469H13.0445ZM10.3984 6.67005L10.5559 6.46129C11.0476 5.80974 11.2867 5.0962 11.2867 4.27991V4.08588H13.0445V4.27991C13.0445 5.09617 13.2835 5.8097 13.7753 6.46126L13.9328 6.67005C14.2172 7.04679 14.3791 7.43853 14.4315 7.88273H9.89967C9.95216 7.43857 10.1141 7.04679 10.3984 6.67005ZM4.72567 8.37496H6.15896C7.16703 8.37496 8.1376 8.80148 8.82575 9.54567V11.8973H1.09373C1.15265 9.94497 2.75927 8.37496 4.72567 8.37496ZM3.24636 17.4453C2.20749 17.4453 1.33796 16.7061 1.1362 15.7261H4.66007C4.67146 15.7261 4.68257 15.7251 4.69378 15.7244L5.11886 16.0545C5.21403 16.1283 5.32814 16.1653 5.4423 16.1653C5.55645 16.1653 5.67057 16.1283 5.76574 16.0545L6.18863 15.7261H8.3897C8.32129 16.2212 8.40907 16.7305 8.65211 17.1908C8.34238 17.3579 7.99817 17.4453 7.63827 17.4453H3.24636ZM13.5192 17.4453H10.8121C10.3173 17.4453 9.87084 17.1885 9.61789 16.7585C9.36579 16.3298 9.35791 15.8174 9.5969 15.3876C9.79033 15.0397 9.88044 14.6922 9.88044 14.2941V13.6484H14.4508V14.2957C14.4508 14.6958 14.5418 15.0448 14.7371 15.3941C14.8504 15.5965 14.9078 15.8195 14.9078 16.0566C14.9078 16.8223 14.2849 17.4453 13.5192 17.4453Z" fill="url(#paint0_linear)"/>
<path d="M15.6576 14.8792C15.551 14.6886 15.5055 14.5141 15.5055 14.2957V8.21609C15.5055 7.39983 15.2664 6.68629 14.7747 6.03477L14.6172 5.82598C14.2638 5.3578 14.0992 4.86653 14.0992 4.27994V1.47288C14.247 1.37944 14.3453 1.21505 14.3453 1.02735C14.3453 0.73611 14.1092 0.5 13.818 0.5H10.5122C10.221 0.5 9.98489 0.73611 9.98489 1.02735C9.98489 1.2155 10.0837 1.38021 10.232 1.47352V4.27991C10.232 4.86649 10.0675 5.35773 9.71408 5.82595L9.55654 6.0347C9.07652 6.67075 8.83798 7.36611 8.82684 8.15815C8.04809 7.61836 7.11687 7.32027 6.15896 7.32027H4.72567C2.14051 7.32027 0.0373535 9.42343 0.0373535 12.0085V12.4247C0.0373535 12.6132 0.13653 12.7781 0.285206 12.8713C0.127741 13.1493 0.0373535 13.47 0.0373535 13.8117C0.0373535 14.1533 0.127741 14.4741 0.285241 14.7521C0.136565 14.8454 0.0373887 15.0102 0.0373887 15.1987V15.291C0.0373887 17.0604 1.47694 18.5 3.24636 18.5H7.63824C8.24071 18.5 8.83281 18.3271 9.34114 18.0083C9.75641 18.3241 10.2674 18.5 10.812 18.5H13.5191C14.8664 18.5 15.9625 17.4039 15.9625 16.0566C15.9625 15.637 15.8599 15.2409 15.6576 14.8792ZM1.95165 14.6714C1.47764 14.6714 1.09201 14.2857 1.09201 13.8117C1.09201 13.5514 1.20841 13.318 1.39172 13.1602L3.33773 14.6714H1.95165ZM2.84333 12.952H8.04127L5.44233 14.9702L2.84333 12.952ZM8.82575 13.6782V14.2941C8.82575 14.4324 8.80729 14.553 8.76683 14.6713H7.54679L8.82575 13.6782ZM9.88044 8.93746H14.4508V12.5937H9.88044V8.93746ZM13.0445 1.55469V3.03122H11.2867V1.55469H13.0445ZM10.3984 6.67005L10.5559 6.46129C11.0476 5.80974 11.2867 5.0962 11.2867 4.27991V4.08588H13.0445V4.27991C13.0445 5.09617 13.2835 5.8097 13.7753 6.46126L13.9328 6.67005C14.2172 7.04679 14.3791 7.43853 14.4315 7.88273H9.89967C9.95216 7.43857 10.1141 7.04679 10.3984 6.67005ZM4.72567 8.37496H6.15896C7.16703 8.37496 8.1376 8.80148 8.82575 9.54567V11.8973H1.09373C1.15265 9.94497 2.75927 8.37496 4.72567 8.37496ZM3.24636 17.4453C2.20749 17.4453 1.33796 16.7061 1.1362 15.7261H4.66007C4.67146 15.7261 4.68257 15.7251 4.69378 15.7244L5.11886 16.0545C5.21403 16.1283 5.32814 16.1653 5.4423 16.1653C5.55645 16.1653 5.67057 16.1283 5.76574 16.0545L6.18863 15.7261H8.3897C8.32129 16.2212 8.40907 16.7305 8.65211 17.1908C8.34238 17.3579 7.99817 17.4453 7.63827 17.4453H3.24636ZM13.5192 17.4453H10.8121C10.3173 17.4453 9.87084 17.1885 9.61789 16.7585C9.36579 16.3298 9.35791 15.8174 9.5969 15.3876C9.79033 15.0397 9.88044 14.6922 9.88044 14.2941V13.6484H14.4508V14.2957C14.4508 14.6958 14.5418 15.0448 14.7371 15.3941C14.8504 15.5965 14.9078 15.8195 14.9078 16.0566C14.9078 16.8223 14.2849 17.4453 13.5192 17.4453Z" fill="#E45363"/>
<defs>
<linearGradient id="paint0_linear" x1="0.0373535" y1="0.5" x2="17.7348" y2="4.21228" gradientUnits="userSpaceOnUse">
<stop stop-color="#FF785A"/>
<stop offset="1" stop-color="#DA4453"/>
</linearGradient>
</defs>
</svg>
