<svg width="18" height="19" viewBox="0 0 18 19" fill="none" xmlns="http://www.w3.org/2000/svg">
<path d="M16.9137 5.66006C16.818 5.5432 16.8017 5.37336 16.873 5.23752C16.8992 5.18766 16.9241 5.13602 16.947 5.08385C17.2058 4.49431 17.2195 3.83928 16.9857 3.23941C16.7519 2.63957 16.2984 2.16662 15.7089 1.90783C15.1194 1.64901 14.4644 1.63523 13.8645 1.86909C13.2646 2.10291 12.7917 2.55636 12.533 3.14572C12.5102 3.19754 12.4889 3.25087 12.4699 3.30427C12.4181 3.4488 12.282 3.5517 12.1311 3.56032C12.038 3.56566 11.9452 3.57645 11.8533 3.59255C11.7761 3.5414 11.6956 3.49405 11.6116 3.4513C11.4769 3.38278 11.3937 3.23382 11.4044 3.08071C11.4084 3.02429 11.4104 2.96698 11.4104 2.91035C11.4104 1.5813 10.3291 0.5 8.99997 0.5C7.67086 0.5 6.58959 1.5813 6.58959 2.91038C6.58959 2.96698 6.59159 3.02429 6.59557 3.08079C6.60629 3.23386 6.52304 3.38281 6.38836 3.45133C6.30437 3.49408 6.22386 3.54144 6.14666 3.59259C6.05472 3.57649 5.96191 3.5657 5.86878 3.56035C5.71796 3.55174 5.58184 3.44884 5.53012 3.30441C5.511 3.25094 5.48976 3.19757 5.46705 3.14589C5.20827 2.55636 4.73534 2.10295 4.13547 1.86913C3.53564 1.63523 2.88061 1.64898 2.29104 1.90787C1.70154 2.16665 1.24813 2.63957 1.01427 3.23945C0.780442 3.83928 0.794153 4.49435 1.05308 5.08402C1.07593 5.13605 1.10079 5.1877 1.12698 5.23748C1.19834 5.37336 1.18196 5.5432 1.08627 5.66009C0.508227 6.36582 0.376778 7.32277 0.743282 8.15742C0.947082 8.62166 1.28469 9.00331 1.71978 9.26118C1.87858 9.3553 1.96078 9.52886 1.92439 9.69308C1.80518 10.2309 1.87612 10.7997 2.12408 11.2948C2.45873 11.9628 3.10118 12.4441 3.84269 12.5821C4.94526 12.7874 5.94296 13.1229 6.80812 13.5793L6.84873 13.6007L8.47263 17.2997V18.5H9.52732V17.2997L11.1513 13.6007L11.1919 13.5793C12.057 13.1228 13.0547 12.7873 14.1573 12.5821C14.8988 12.4441 15.5413 11.9628 15.8759 11.2948C16.1239 10.7997 16.1948 10.2309 16.0756 9.69311C16.0392 9.52883 16.1214 9.35526 16.2803 9.26111C16.7153 9.00328 17.0529 8.62166 17.2567 8.15742C17.6232 7.32274 17.4918 6.36582 16.9137 5.66006ZM6.8668 4.3913C7.3817 4.12918 7.68819 3.58588 7.64765 3.0071C7.6454 2.97507 7.64424 2.94255 7.64424 2.91042C7.64428 2.16286 8.25241 1.55469 8.99997 1.55469C9.74754 1.55469 10.3557 2.16286 10.3557 2.91038C10.3557 2.94252 10.3545 2.97503 10.3523 3.00703C10.3117 3.58584 10.6182 4.12914 11.1331 4.39127C11.5906 4.62414 11.8748 5.08736 11.8748 5.60015C11.8748 5.88534 11.7874 6.15801 11.622 6.38867C11.2481 6.91004 11.245 7.59938 11.6143 8.10398C11.7996 8.35718 11.8891 8.65822 11.873 8.97448C11.8518 9.39295 11.6289 9.78593 11.2767 10.0257C10.6265 10.4684 10.0414 10.9481 9.52728 11.4588V5.12466H8.47259V11.4588C7.95847 10.9481 7.37343 10.4683 6.72315 10.0257C6.37095 9.78593 6.14806 9.39295 6.12683 8.97448C6.1108 8.65822 6.20031 8.35718 6.38561 8.10395C6.7549 7.59935 6.75177 6.91004 6.37784 6.38867C6.21243 6.15801 6.12504 5.88538 6.12504 5.60015C6.12511 5.08736 6.40931 4.62418 6.8668 4.3913ZM3.06704 10.8224C2.92522 10.5393 2.88613 10.2276 2.95405 9.92121C3.08933 9.31079 2.80934 8.68086 2.25746 8.35384C2.01327 8.2091 1.82356 7.99454 1.70892 7.73343C1.5028 7.26396 1.5768 6.72554 1.90214 6.32838C2.26822 5.8814 2.33045 5.26068 2.06059 4.74698C2.04575 4.71871 2.03165 4.68939 2.01868 4.65986C1.8731 4.3283 1.8654 3.9599 1.99692 3.62251C2.12844 3.28511 2.3835 3.01912 2.71509 2.87354C3.04665 2.72799 3.41509 2.72022 3.75245 2.85178C4.08988 2.9833 4.35583 3.23832 4.50148 3.57005C4.51432 3.5993 4.52634 3.62943 4.5372 3.65981C4.67618 4.04804 4.96854 4.34922 5.33304 4.50296C5.1633 4.83575 5.07045 5.20978 5.07045 5.60015C5.07045 6.10718 5.22623 6.5924 5.52088 7.00327C5.62845 7.15329 5.63397 7.34531 5.53462 7.48105C5.20929 7.92556 5.04556 8.47491 5.07362 9.02789C5.11145 9.77415 5.50625 10.473 6.12971 10.8975C6.50778 11.1549 6.86068 11.4253 7.18788 11.7069C7.08909 11.9567 7.00064 12.2076 6.92298 12.4579C6.05652 12.0475 5.08743 11.741 4.03566 11.5452C3.61681 11.4672 3.2547 11.197 3.06704 10.8224ZM7.8144 13.1767L7.82614 13.1323C7.88098 12.9244 7.945 12.715 8.017 12.5055C8.1673 12.6684 8.31003 12.834 8.44405 13.0026L8.47263 13.0385V14.6761L7.8144 13.1767ZM9.52732 13.0386L9.5559 13.0026C9.68991 12.834 9.83265 12.6684 9.98294 12.5055C10.0549 12.7151 10.119 12.9244 10.1738 13.1323L10.1855 13.1768L9.52732 14.6761V13.0386ZM16.291 7.73347C16.1764 7.99457 15.9867 8.2091 15.7426 8.35384C15.1906 8.68089 14.9106 9.31082 15.0459 9.92131C15.1138 10.2277 15.0747 10.5393 14.9329 10.8224C14.7452 11.1971 14.3831 11.4673 13.9644 11.5452C12.9125 11.741 11.9435 12.0476 11.077 12.458C10.9993 12.2076 10.9109 11.9568 10.8121 11.707C11.1393 11.4253 11.4922 11.1549 11.8703 10.8976C12.4937 10.4731 12.8885 9.77422 12.9264 9.02796C12.9544 8.47498 12.7907 7.92563 12.4654 7.48115C12.366 7.34538 12.3715 7.15336 12.4791 7.00334C12.7738 6.59244 12.9295 6.10725 12.9295 5.60022C12.9295 5.20985 12.8367 4.83578 12.6669 4.503C13.0315 4.34926 13.3238 4.04804 13.4628 3.65977C13.4736 3.62954 13.4856 3.59938 13.4986 3.56998C13.6441 3.23839 13.9101 2.98337 14.2475 2.85185C14.5849 2.72029 14.9534 2.72803 15.2849 2.87361C15.6165 3.01919 15.8715 3.28518 16.0031 3.62258C16.1346 3.95997 16.1268 4.32837 15.9814 4.65979C15.9683 4.68946 15.9542 4.71879 15.9394 4.74705C15.6695 5.26072 15.7318 5.88147 16.0978 6.32841C16.4231 6.72554 16.4971 7.26392 16.291 7.73347Z" fill="url(#paint0_linear)"/>
<path d="M16.9137 5.66006C16.818 5.5432 16.8017 5.37336 16.873 5.23752C16.8992 5.18766 16.9241 5.13602 16.947 5.08385C17.2058 4.49431 17.2195 3.83928 16.9857 3.23941C16.7519 2.63957 16.2984 2.16662 15.7089 1.90783C15.1194 1.64901 14.4644 1.63523 13.8645 1.86909C13.2646 2.10291 12.7917 2.55636 12.533 3.14572C12.5102 3.19754 12.4889 3.25087 12.4699 3.30427C12.4181 3.4488 12.282 3.5517 12.1311 3.56032C12.038 3.56566 11.9452 3.57645 11.8533 3.59255C11.7761 3.5414 11.6956 3.49405 11.6116 3.4513C11.4769 3.38278 11.3937 3.23382 11.4044 3.08071C11.4084 3.02429 11.4104 2.96698 11.4104 2.91035C11.4104 1.5813 10.3291 0.5 8.99997 0.5C7.67086 0.5 6.58959 1.5813 6.58959 2.91038C6.58959 2.96698 6.59159 3.02429 6.59557 3.08079C6.60629 3.23386 6.52304 3.38281 6.38836 3.45133C6.30437 3.49408 6.22386 3.54144 6.14666 3.59259C6.05472 3.57649 5.96191 3.5657 5.86878 3.56035C5.71796 3.55174 5.58184 3.44884 5.53012 3.30441C5.511 3.25094 5.48976 3.19757 5.46705 3.14589C5.20827 2.55636 4.73534 2.10295 4.13547 1.86913C3.53564 1.63523 2.88061 1.64898 2.29104 1.90787C1.70154 2.16665 1.24813 2.63957 1.01427 3.23945C0.780442 3.83928 0.794153 4.49435 1.05308 5.08402C1.07593 5.13605 1.10079 5.1877 1.12698 5.23748C1.19834 5.37336 1.18196 5.5432 1.08627 5.66009C0.508227 6.36582 0.376778 7.32277 0.743282 8.15742C0.947082 8.62166 1.28469 9.00331 1.71978 9.26118C1.87858 9.3553 1.96078 9.52886 1.92439 9.69308C1.80518 10.2309 1.87612 10.7997 2.12408 11.2948C2.45873 11.9628 3.10118 12.4441 3.84269 12.5821C4.94526 12.7874 5.94296 13.1229 6.80812 13.5793L6.84873 13.6007L8.47263 17.2997V18.5H9.52732V17.2997L11.1513 13.6007L11.1919 13.5793C12.057 13.1228 13.0547 12.7873 14.1573 12.5821C14.8988 12.4441 15.5413 11.9628 15.8759 11.2948C16.1239 10.7997 16.1948 10.2309 16.0756 9.69311C16.0392 9.52883 16.1214 9.35526 16.2803 9.26111C16.7153 9.00328 17.0529 8.62166 17.2567 8.15742C17.6232 7.32274 17.4918 6.36582 16.9137 5.66006ZM6.8668 4.3913C7.3817 4.12918 7.68819 3.58588 7.64765 3.0071C7.6454 2.97507 7.64424 2.94255 7.64424 2.91042C7.64428 2.16286 8.25241 1.55469 8.99997 1.55469C9.74754 1.55469 10.3557 2.16286 10.3557 2.91038C10.3557 2.94252 10.3545 2.97503 10.3523 3.00703C10.3117 3.58584 10.6182 4.12914 11.1331 4.39127C11.5906 4.62414 11.8748 5.08736 11.8748 5.60015C11.8748 5.88534 11.7874 6.15801 11.622 6.38867C11.2481 6.91004 11.245 7.59938 11.6143 8.10398C11.7996 8.35718 11.8891 8.65822 11.873 8.97448C11.8518 9.39295 11.6289 9.78593 11.2767 10.0257C10.6265 10.4684 10.0414 10.9481 9.52728 11.4588V5.12466H8.47259V11.4588C7.95847 10.9481 7.37343 10.4683 6.72315 10.0257C6.37095 9.78593 6.14806 9.39295 6.12683 8.97448C6.1108 8.65822 6.20031 8.35718 6.38561 8.10395C6.7549 7.59935 6.75177 6.91004 6.37784 6.38867C6.21243 6.15801 6.12504 5.88538 6.12504 5.60015C6.12511 5.08736 6.40931 4.62418 6.8668 4.3913ZM3.06704 10.8224C2.92522 10.5393 2.88613 10.2276 2.95405 9.92121C3.08933 9.31079 2.80934 8.68086 2.25746 8.35384C2.01327 8.2091 1.82356 7.99454 1.70892 7.73343C1.5028 7.26396 1.5768 6.72554 1.90214 6.32838C2.26822 5.8814 2.33045 5.26068 2.06059 4.74698C2.04575 4.71871 2.03165 4.68939 2.01868 4.65986C1.8731 4.3283 1.8654 3.9599 1.99692 3.62251C2.12844 3.28511 2.3835 3.01912 2.71509 2.87354C3.04665 2.72799 3.41509 2.72022 3.75245 2.85178C4.08988 2.9833 4.35583 3.23832 4.50148 3.57005C4.51432 3.5993 4.52634 3.62943 4.5372 3.65981C4.67618 4.04804 4.96854 4.34922 5.33304 4.50296C5.1633 4.83575 5.07045 5.20978 5.07045 5.60015C5.07045 6.10718 5.22623 6.5924 5.52088 7.00327C5.62845 7.15329 5.63397 7.34531 5.53462 7.48105C5.20929 7.92556 5.04556 8.47491 5.07362 9.02789C5.11145 9.77415 5.50625 10.473 6.12971 10.8975C6.50778 11.1549 6.86068 11.4253 7.18788 11.7069C7.08909 11.9567 7.00064 12.2076 6.92298 12.4579C6.05652 12.0475 5.08743 11.741 4.03566 11.5452C3.61681 11.4672 3.2547 11.197 3.06704 10.8224ZM7.8144 13.1767L7.82614 13.1323C7.88098 12.9244 7.945 12.715 8.017 12.5055C8.1673 12.6684 8.31003 12.834 8.44405 13.0026L8.47263 13.0385V14.6761L7.8144 13.1767ZM9.52732 13.0386L9.5559 13.0026C9.68991 12.834 9.83265 12.6684 9.98294 12.5055C10.0549 12.7151 10.119 12.9244 10.1738 13.1323L10.1855 13.1768L9.52732 14.6761V13.0386ZM16.291 7.73347C16.1764 7.99457 15.9867 8.2091 15.7426 8.35384C15.1906 8.68089 14.9106 9.31082 15.0459 9.92131C15.1138 10.2277 15.0747 10.5393 14.9329 10.8224C14.7452 11.1971 14.3831 11.4673 13.9644 11.5452C12.9125 11.741 11.9435 12.0476 11.077 12.458C10.9993 12.2076 10.9109 11.9568 10.8121 11.707C11.1393 11.4253 11.4922 11.1549 11.8703 10.8976C12.4937 10.4731 12.8885 9.77422 12.9264 9.02796C12.9544 8.47498 12.7907 7.92563 12.4654 7.48115C12.366 7.34538 12.3715 7.15336 12.4791 7.00334C12.7738 6.59244 12.9295 6.10725 12.9295 5.60022C12.9295 5.20985 12.8367 4.83578 12.6669 4.503C13.0315 4.34926 13.3238 4.04804 13.4628 3.65977C13.4736 3.62954 13.4856 3.59938 13.4986 3.56998C13.6441 3.23839 13.9101 2.98337 14.2475 2.85185C14.5849 2.72029 14.9534 2.72803 15.2849 2.87361C15.6165 3.01919 15.8715 3.28518 16.0031 3.62258C16.1346 3.95997 16.1268 4.32837 15.9814 4.65979C15.9683 4.68946 15.9542 4.71879 15.9394 4.74705C15.6695 5.26072 15.7318 5.88147 16.0978 6.32841C16.4231 6.72554 16.4971 7.26392 16.291 7.73347Z" fill="#E45363"/>
<defs>
<linearGradient id="paint0_linear" x1="0.53833" y1="0.5" x2="19.2432" y2="4.66951" gradientUnits="userSpaceOnUse">
<stop stop-color="#FF785A"/>
<stop offset="1" stop-color="#DA4453"/>
</linearGradient>
</defs>
</svg>
