<svg width="16" height="15" viewBox="0 0 16 15" fill="none" xmlns="http://www.w3.org/2000/svg">
<path d="M15.6799 6.13865C15.5974 5.8951 15.3779 5.71757 15.1138 5.68075L10.6328 5.05608L8.62882 1.16066C8.51067 0.931013 8.26686 0.785645 7.99994 0.785645C7.73303 0.785645 7.48921 0.931057 7.37106 1.16066L5.36712 5.05608L0.886093 5.68075C0.621936 5.71757 0.402476 5.8951 0.320003 6.13865C0.237483 6.3822 0.306304 6.64957 0.497432 6.82831L3.73992 9.86049L2.97447 14.142C2.92935 14.3943 3.03749 14.6495 3.25345 14.8C3.46945 14.9505 3.75572 14.9704 3.99201 14.8512L7.99989 12.8298L12.0078 14.8512C12.1104 14.903 12.2225 14.9285 12.3341 14.9285C12.4795 14.9285 12.6242 14.8852 12.7464 14.8C12.9623 14.6495 13.0705 14.3944 13.0254 14.142L12.2599 9.86049L15.5024 6.82831C15.6936 6.64961 15.7624 6.38224 15.6799 6.13865ZM11.0169 9.14383C10.8516 9.2984 10.7762 9.52109 10.8152 9.73934L11.4027 13.0258L8.32623 11.4742C8.22408 11.4227 8.11196 11.3969 7.99989 11.3969C7.88783 11.3969 7.77571 11.4227 7.67356 11.4742L4.59705 13.0258L5.18459 9.73939C5.22359 9.52113 5.14817 9.29844 4.9829 9.14388L2.49394 6.81637L5.93358 6.3369C6.16197 6.30505 6.35946 6.1674 6.46162 5.96884L7.99989 2.97863L9.53813 5.96879C9.64028 6.16736 9.83777 6.30501 10.0662 6.33685L13.5058 6.81633L11.0169 9.14383Z" fill="white"/>
</svg>
