<svg width="18" height="14" viewBox="0 0 18 14" fill="none" xmlns="http://www.w3.org/2000/svg">
<path d="M17.0457 3.00849C17.9778 1.88693 17.9862 0.153236 17.986 0.0715332L16.9332 0.0737832C16.9341 0.520162 16.7936 1.74103 16.1705 2.40963C15.1732 1.93555 13.8921 1.87382 12.7832 2.29337C10.425 3.18588 9.50025 7.05859 6.79828 7.91588C4.75071 8.5657 2.50556 8.00479 1.25203 8.17371C-1.86468 8.59306 1.01747 13.6235 7.89818 13.6232C17.1999 13.6232 19.5944 5.48763 17.0457 3.00849ZM1.26201 9.93413C1.10782 9.69151 1.04369 9.47625 1.08142 9.32807C1.13745 9.10739 2.76628 9.22917 2.85994 9.23469C7.45616 9.50416 8.64648 8.66379 10.9118 5.54487C11.3079 4.99963 11.692 4.47099 12.0921 4.0514C12.3628 4.72292 12.3601 4.94057 12.4344 5.55092C12.9826 5.44822 13.7146 5.2947 14.4043 5.34233C14.6247 6.15522 14.6136 6.60117 14.6422 7.35598C15.3059 7.12848 15.9845 6.8626 16.7669 6.8845C15.2441 13.7188 3.79576 13.9218 1.26201 9.93413ZM16.917 5.83772C16.4511 5.80657 15.9738 5.87629 15.6065 5.95623C15.5049 5.2588 15.3179 4.72295 15.3077 4.69416C15.1867 4.35121 15.2845 4.4385 14.93 4.35648C14.4235 4.23924 13.7581 4.28241 13.3023 4.33651C13.2071 3.99388 13.0721 3.65276 12.9474 3.37193C14.0643 2.79196 17.1314 2.75322 16.917 5.83772Z" fill="url(#paint0_linear)"/>
<path d="M17.0457 3.00849C17.9778 1.88693 17.9862 0.153236 17.986 0.0715332L16.9332 0.0737832C16.9341 0.520162 16.7936 1.74103 16.1705 2.40963C15.1732 1.93555 13.8921 1.87382 12.7832 2.29337C10.425 3.18588 9.50025 7.05859 6.79828 7.91588C4.75071 8.5657 2.50556 8.00479 1.25203 8.17371C-1.86468 8.59306 1.01747 13.6235 7.89818 13.6232C17.1999 13.6232 19.5944 5.48763 17.0457 3.00849ZM1.26201 9.93413C1.10782 9.69151 1.04369 9.47625 1.08142 9.32807C1.13745 9.10739 2.76628 9.22917 2.85994 9.23469C7.45616 9.50416 8.64648 8.66379 10.9118 5.54487C11.3079 4.99963 11.692 4.47099 12.0921 4.0514C12.3628 4.72292 12.3601 4.94057 12.4344 5.55092C12.9826 5.44822 13.7146 5.2947 14.4043 5.34233C14.6247 6.15522 14.6136 6.60117 14.6422 7.35598C15.3059 7.12848 15.9845 6.8626 16.7669 6.8845C15.2441 13.7188 3.79576 13.9218 1.26201 9.93413ZM16.917 5.83772C16.4511 5.80657 15.9738 5.87629 15.6065 5.95623C15.5049 5.2588 15.3179 4.72295 15.3077 4.69416C15.1867 4.35121 15.2845 4.4385 14.93 4.35648C14.4235 4.23924 13.7581 4.28241 13.3023 4.33651C13.2071 3.99388 13.0721 3.65276 12.9474 3.37193C14.0643 2.79196 17.1314 2.75322 16.917 5.83772Z" fill="#E45363"/>
<defs>
<linearGradient id="paint0_linear" x1="0" y1="0.0715332" x2="18.9992" y2="6.0547" gradientUnits="userSpaceOnUse">
<stop stop-color="#FF785A"/>
<stop offset="1" stop-color="#DA4453"/>
</linearGradient>
</defs>
</svg>
