<svg width="30" height="30" viewBox="0 0 30 30" fill="none" xmlns="http://www.w3.org/2000/svg">
<path d="M17.9492 22.9492V19.8828C17.9492 19.2318 17.7604 18.9062 17.3828 18.9062C17.1615 18.9062 16.9466 19.0104 16.7383 19.2188V23.5938C16.9466 23.8021 17.1615 23.9062 17.3828 23.9062C17.7604 23.9062 17.9492 23.5872 17.9492 22.9492ZM21.543 20.5664H22.832V19.9023C22.832 19.2383 22.6172 18.9062 22.1875 18.9062C21.7578 18.9062 21.543 19.2383 21.543 19.9023V20.5664ZM10.3906 15.3711V16.7383H8.82812V25H7.38281V16.7383H5.85938V15.3711H10.3906ZM14.3164 17.832V25H13.0078V24.2188C12.5 24.8047 12.0052 25.0977 11.5234 25.0977C11.0938 25.0977 10.8203 24.9154 10.7031 24.5508C10.625 24.3294 10.5859 23.9779 10.5859 23.4961V17.832H11.875V23.1055C11.875 23.418 11.8815 23.5872 11.8945 23.6133C11.9076 23.8086 12.0052 23.9062 12.1875 23.9062C12.4479 23.9062 12.7214 23.7044 13.0078 23.3008V17.832H14.3164ZM19.2383 20V22.8516C19.2383 23.5286 19.1927 24.0039 19.1016 24.2773C18.9453 24.8242 18.6003 25.0977 18.0664 25.0977C17.6107 25.0977 17.168 24.8307 16.7383 24.2969V25H15.4297V15.3711H16.7383V18.5156C17.1549 17.9948 17.5977 17.7344 18.0664 17.7344C18.6003 17.7344 18.9453 18.0078 19.1016 18.5547C19.1927 18.8281 19.2383 19.3099 19.2383 20ZM24.1406 22.5195V22.6953C24.1406 23.0729 24.1276 23.3529 24.1016 23.5352C24.0625 23.8216 23.9648 24.082 23.8086 24.3164C23.457 24.8372 22.9362 25.0977 22.2461 25.0977C21.569 25.0977 21.0417 24.8503 20.6641 24.3555C20.3906 24.0039 20.2539 23.444 20.2539 22.6758V20.1562C20.2539 19.388 20.3841 18.8281 20.6445 18.4766C21.0221 17.9818 21.543 17.7344 22.207 17.7344C22.8711 17.7344 23.3789 17.9818 23.7305 18.4766C24.0039 18.8542 24.1406 19.4141 24.1406 20.1562V21.6406H21.543V22.9102C21.543 23.5742 21.7643 23.9062 22.207 23.9062C22.5195 23.9062 22.7148 23.737 22.793 23.3984C22.793 23.3854 22.7962 23.3398 22.8027 23.2617C22.8092 23.1836 22.8125 23.0762 22.8125 22.9395V22.5195H24.1406ZM15.332 6.42578V9.47266C15.332 10.1367 15.1237 10.4688 14.707 10.4688C14.2904 10.4688 14.082 10.1367 14.082 9.47266V6.42578C14.082 5.7487 14.2904 5.41016 14.707 5.41016C15.1237 5.41016 15.332 5.7487 15.332 6.42578ZM25.7422 20.3516C25.7422 18.0469 25.6185 16.3542 25.3711 15.2734C25.2409 14.7005 24.9609 14.222 24.5312 13.8379C24.1016 13.4538 23.6068 13.2292 23.0469 13.1641C21.276 12.9688 18.5938 12.8711 15 12.8711C11.4193 12.8711 8.74349 12.9688 6.97266 13.1641C6.39974 13.2292 5.90169 13.4538 5.47852 13.8379C5.05534 14.222 4.77865 14.7005 4.64844 15.2734C4.38802 16.4062 4.25781 18.099 4.25781 20.3516C4.25781 22.6432 4.38802 24.3359 4.64844 25.4297C4.77865 25.9896 5.05534 26.4648 5.47852 26.8555C5.90169 27.2461 6.39323 27.474 6.95312 27.5391C8.73698 27.7344 11.4193 27.832 15 27.832C18.5807 27.832 21.263 27.7344 23.0469 27.5391C23.6068 27.474 24.0983 27.2461 24.5215 26.8555C24.9447 26.4648 25.2214 25.9896 25.3516 25.4297C25.612 24.3359 25.7422 22.6432 25.7422 20.3516ZM10.9961 7.63672L12.7539 1.85547H11.2891L10.293 5.66406L9.25781 1.85547H7.73438C7.82552 2.15495 7.97526 2.60417 8.18359 3.20312L8.65234 4.55078C9.10807 5.89193 9.40755 6.92057 9.55078 7.63672V11.5625H10.9961V7.63672ZM16.6406 9.21875V6.67969C16.6406 5.92448 16.5039 5.35807 16.2305 4.98047C15.8529 4.48568 15.3451 4.23828 14.707 4.23828C14.043 4.23828 13.5352 4.48568 13.1836 4.98047C12.9102 5.35807 12.7734 5.92448 12.7734 6.67969V9.21875C12.7734 9.97396 12.9102 10.5404 13.1836 10.918C13.5352 11.4128 14.043 11.6602 14.707 11.6602C15.3451 11.6602 15.8529 11.4128 16.2305 10.918C16.5039 10.5664 16.6406 10 16.6406 9.21875ZM20.1758 11.5625H21.4844V4.33594H20.1758V9.86328C19.8893 10.2669 19.6159 10.4688 19.3555 10.4688C19.1602 10.4688 19.056 10.3646 19.043 10.1562C19.0299 10.1302 19.0234 9.96094 19.0234 9.64844V4.33594H17.7148V10.0586C17.7148 10.5404 17.7539 10.8984 17.832 11.1328C17.9753 11.4844 18.2552 11.6602 18.6719 11.6602C19.1406 11.6602 19.6419 11.3672 20.1758 10.7812V11.5625ZM30 5.625V24.375C30 25.9245 29.4499 27.2493 28.3496 28.3496C27.2493 29.4499 25.9245 30 24.375 30H5.625C4.07552 30 2.75065 29.4499 1.65039 28.3496C0.55013 27.2493 0 25.9245 0 24.375V5.625C0 4.07552 0.55013 2.75065 1.65039 1.65039C2.75065 0.55013 4.07552 0 5.625 0H24.375C25.9245 0 27.2493 0.55013 28.3496 1.65039C29.4499 2.75065 30 4.07552 30 5.625Z" fill="url(#paint0_linear)"/>
<path d="M17.9492 22.9492V19.8828C17.9492 19.2318 17.7604 18.9062 17.3828 18.9062C17.1615 18.9062 16.9466 19.0104 16.7383 19.2188V23.5938C16.9466 23.8021 17.1615 23.9062 17.3828 23.9062C17.7604 23.9062 17.9492 23.5872 17.9492 22.9492ZM21.543 20.5664H22.832V19.9023C22.832 19.2383 22.6172 18.9062 22.1875 18.9062C21.7578 18.9062 21.543 19.2383 21.543 19.9023V20.5664ZM10.3906 15.3711V16.7383H8.82812V25H7.38281V16.7383H5.85938V15.3711H10.3906ZM14.3164 17.832V25H13.0078V24.2188C12.5 24.8047 12.0052 25.0977 11.5234 25.0977C11.0938 25.0977 10.8203 24.9154 10.7031 24.5508C10.625 24.3294 10.5859 23.9779 10.5859 23.4961V17.832H11.875V23.1055C11.875 23.418 11.8815 23.5872 11.8945 23.6133C11.9076 23.8086 12.0052 23.9062 12.1875 23.9062C12.4479 23.9062 12.7214 23.7044 13.0078 23.3008V17.832H14.3164ZM19.2383 20V22.8516C19.2383 23.5286 19.1927 24.0039 19.1016 24.2773C18.9453 24.8242 18.6003 25.0977 18.0664 25.0977C17.6107 25.0977 17.168 24.8307 16.7383 24.2969V25H15.4297V15.3711H16.7383V18.5156C17.1549 17.9948 17.5977 17.7344 18.0664 17.7344C18.6003 17.7344 18.9453 18.0078 19.1016 18.5547C19.1927 18.8281 19.2383 19.3099 19.2383 20ZM24.1406 22.5195V22.6953C24.1406 23.0729 24.1276 23.3529 24.1016 23.5352C24.0625 23.8216 23.9648 24.082 23.8086 24.3164C23.457 24.8372 22.9362 25.0977 22.2461 25.0977C21.569 25.0977 21.0417 24.8503 20.6641 24.3555C20.3906 24.0039 20.2539 23.444 20.2539 22.6758V20.1562C20.2539 19.388 20.3841 18.8281 20.6445 18.4766C21.0221 17.9818 21.543 17.7344 22.207 17.7344C22.8711 17.7344 23.3789 17.9818 23.7305 18.4766C24.0039 18.8542 24.1406 19.4141 24.1406 20.1562V21.6406H21.543V22.9102C21.543 23.5742 21.7643 23.9062 22.207 23.9062C22.5195 23.9062 22.7148 23.737 22.793 23.3984C22.793 23.3854 22.7962 23.3398 22.8027 23.2617C22.8092 23.1836 22.8125 23.0762 22.8125 22.9395V22.5195H24.1406ZM15.332 6.42578V9.47266C15.332 10.1367 15.1237 10.4688 14.707 10.4688C14.2904 10.4688 14.082 10.1367 14.082 9.47266V6.42578C14.082 5.7487 14.2904 5.41016 14.707 5.41016C15.1237 5.41016 15.332 5.7487 15.332 6.42578ZM25.7422 20.3516C25.7422 18.0469 25.6185 16.3542 25.3711 15.2734C25.2409 14.7005 24.9609 14.222 24.5312 13.8379C24.1016 13.4538 23.6068 13.2292 23.0469 13.1641C21.276 12.9688 18.5938 12.8711 15 12.8711C11.4193 12.8711 8.74349 12.9688 6.97266 13.1641C6.39974 13.2292 5.90169 13.4538 5.47852 13.8379C5.05534 14.222 4.77865 14.7005 4.64844 15.2734C4.38802 16.4062 4.25781 18.099 4.25781 20.3516C4.25781 22.6432 4.38802 24.3359 4.64844 25.4297C4.77865 25.9896 5.05534 26.4648 5.47852 26.8555C5.90169 27.2461 6.39323 27.474 6.95312 27.5391C8.73698 27.7344 11.4193 27.832 15 27.832C18.5807 27.832 21.263 27.7344 23.0469 27.5391C23.6068 27.474 24.0983 27.2461 24.5215 26.8555C24.9447 26.4648 25.2214 25.9896 25.3516 25.4297C25.612 24.3359 25.7422 22.6432 25.7422 20.3516ZM10.9961 7.63672L12.7539 1.85547H11.2891L10.293 5.66406L9.25781 1.85547H7.73438C7.82552 2.15495 7.97526 2.60417 8.18359 3.20312L8.65234 4.55078C9.10807 5.89193 9.40755 6.92057 9.55078 7.63672V11.5625H10.9961V7.63672ZM16.6406 9.21875V6.67969C16.6406 5.92448 16.5039 5.35807 16.2305 4.98047C15.8529 4.48568 15.3451 4.23828 14.707 4.23828C14.043 4.23828 13.5352 4.48568 13.1836 4.98047C12.9102 5.35807 12.7734 5.92448 12.7734 6.67969V9.21875C12.7734 9.97396 12.9102 10.5404 13.1836 10.918C13.5352 11.4128 14.043 11.6602 14.707 11.6602C15.3451 11.6602 15.8529 11.4128 16.2305 10.918C16.5039 10.5664 16.6406 10 16.6406 9.21875ZM20.1758 11.5625H21.4844V4.33594H20.1758V9.86328C19.8893 10.2669 19.6159 10.4688 19.3555 10.4688C19.1602 10.4688 19.056 10.3646 19.043 10.1562C19.0299 10.1302 19.0234 9.96094 19.0234 9.64844V4.33594H17.7148V10.0586C17.7148 10.5404 17.7539 10.8984 17.832 11.1328C17.9753 11.4844 18.2552 11.6602 18.6719 11.6602C19.1406 11.6602 19.6419 11.3672 20.1758 10.7812V11.5625ZM30 5.625V24.375C30 25.9245 29.4499 27.2493 28.3496 28.3496C27.2493 29.4499 25.9245 30 24.375 30H5.625C4.07552 30 2.75065 29.4499 1.65039 28.3496C0.55013 27.2493 0 25.9245 0 24.375V5.625C0 4.07552 0.55013 2.75065 1.65039 1.65039C2.75065 0.55013 4.07552 0 5.625 0H24.375C25.9245 0 27.2493 0.55013 28.3496 1.65039C29.4499 2.75065 30 4.07552 30 5.625Z" fill="#E45363"/>
<path d="M17.9492 22.9492V19.8828C17.9492 19.2318 17.7604 18.9062 17.3828 18.9062C17.1615 18.9062 16.9466 19.0104 16.7383 19.2188V23.5938C16.9466 23.8021 17.1615 23.9062 17.3828 23.9062C17.7604 23.9062 17.9492 23.5872 17.9492 22.9492ZM21.543 20.5664H22.832V19.9023C22.832 19.2383 22.6172 18.9062 22.1875 18.9062C21.7578 18.9062 21.543 19.2383 21.543 19.9023V20.5664ZM10.3906 15.3711V16.7383H8.82812V25H7.38281V16.7383H5.85938V15.3711H10.3906ZM14.3164 17.832V25H13.0078V24.2188C12.5 24.8047 12.0052 25.0977 11.5234 25.0977C11.0938 25.0977 10.8203 24.9154 10.7031 24.5508C10.625 24.3294 10.5859 23.9779 10.5859 23.4961V17.832H11.875V23.1055C11.875 23.418 11.8815 23.5872 11.8945 23.6133C11.9076 23.8086 12.0052 23.9062 12.1875 23.9062C12.4479 23.9062 12.7214 23.7044 13.0078 23.3008V17.832H14.3164ZM19.2383 20V22.8516C19.2383 23.5286 19.1927 24.0039 19.1016 24.2773C18.9453 24.8242 18.6003 25.0977 18.0664 25.0977C17.6107 25.0977 17.168 24.8307 16.7383 24.2969V25H15.4297V15.3711H16.7383V18.5156C17.1549 17.9948 17.5977 17.7344 18.0664 17.7344C18.6003 17.7344 18.9453 18.0078 19.1016 18.5547C19.1927 18.8281 19.2383 19.3099 19.2383 20ZM24.1406 22.5195V22.6953C24.1406 23.0729 24.1276 23.3529 24.1016 23.5352C24.0625 23.8216 23.9648 24.082 23.8086 24.3164C23.457 24.8372 22.9362 25.0977 22.2461 25.0977C21.569 25.0977 21.0417 24.8503 20.6641 24.3555C20.3906 24.0039 20.2539 23.444 20.2539 22.6758V20.1562C20.2539 19.388 20.3841 18.8281 20.6445 18.4766C21.0221 17.9818 21.543 17.7344 22.207 17.7344C22.8711 17.7344 23.3789 17.9818 23.7305 18.4766C24.0039 18.8542 24.1406 19.4141 24.1406 20.1562V21.6406H21.543V22.9102C21.543 23.5742 21.7643 23.9062 22.207 23.9062C22.5195 23.9062 22.7148 23.737 22.793 23.3984C22.793 23.3854 22.7962 23.3398 22.8027 23.2617C22.8092 23.1836 22.8125 23.0762 22.8125 22.9395V22.5195H24.1406ZM15.332 6.42578V9.47266C15.332 10.1367 15.1237 10.4688 14.707 10.4688C14.2904 10.4688 14.082 10.1367 14.082 9.47266V6.42578C14.082 5.7487 14.2904 5.41016 14.707 5.41016C15.1237 5.41016 15.332 5.7487 15.332 6.42578ZM25.7422 20.3516C25.7422 18.0469 25.6185 16.3542 25.3711 15.2734C25.2409 14.7005 24.9609 14.222 24.5312 13.8379C24.1016 13.4538 23.6068 13.2292 23.0469 13.1641C21.276 12.9688 18.5938 12.8711 15 12.8711C11.4193 12.8711 8.74349 12.9688 6.97266 13.1641C6.39974 13.2292 5.90169 13.4538 5.47852 13.8379C5.05534 14.222 4.77865 14.7005 4.64844 15.2734C4.38802 16.4062 4.25781 18.099 4.25781 20.3516C4.25781 22.6432 4.38802 24.3359 4.64844 25.4297C4.77865 25.9896 5.05534 26.4648 5.47852 26.8555C5.90169 27.2461 6.39323 27.474 6.95312 27.5391C8.73698 27.7344 11.4193 27.832 15 27.832C18.5807 27.832 21.263 27.7344 23.0469 27.5391C23.6068 27.474 24.0983 27.2461 24.5215 26.8555C24.9447 26.4648 25.2214 25.9896 25.3516 25.4297C25.612 24.3359 25.7422 22.6432 25.7422 20.3516ZM10.9961 7.63672L12.7539 1.85547H11.2891L10.293 5.66406L9.25781 1.85547H7.73438C7.82552 2.15495 7.97526 2.60417 8.18359 3.20312L8.65234 4.55078C9.10807 5.89193 9.40755 6.92057 9.55078 7.63672V11.5625H10.9961V7.63672ZM16.6406 9.21875V6.67969C16.6406 5.92448 16.5039 5.35807 16.2305 4.98047C15.8529 4.48568 15.3451 4.23828 14.707 4.23828C14.043 4.23828 13.5352 4.48568 13.1836 4.98047C12.9102 5.35807 12.7734 5.92448 12.7734 6.67969V9.21875C12.7734 9.97396 12.9102 10.5404 13.1836 10.918C13.5352 11.4128 14.043 11.6602 14.707 11.6602C15.3451 11.6602 15.8529 11.4128 16.2305 10.918C16.5039 10.5664 16.6406 10 16.6406 9.21875ZM20.1758 11.5625H21.4844V4.33594H20.1758V9.86328C19.8893 10.2669 19.6159 10.4688 19.3555 10.4688C19.1602 10.4688 19.056 10.3646 19.043 10.1562C19.0299 10.1302 19.0234 9.96094 19.0234 9.64844V4.33594H17.7148V10.0586C17.7148 10.5404 17.7539 10.8984 17.832 11.1328C17.9753 11.4844 18.2552 11.6602 18.6719 11.6602C19.1406 11.6602 19.6419 11.3672 20.1758 10.7812V11.5625ZM30 5.625V24.375C30 25.9245 29.4499 27.2493 28.3496 28.3496C27.2493 29.4499 25.9245 30 24.375 30H5.625C4.07552 30 2.75065 29.4499 1.65039 28.3496C0.55013 27.2493 0 25.9245 0 24.375V5.625C0 4.07552 0.55013 2.75065 1.65039 1.65039C2.75065 0.55013 4.07552 0 5.625 0H24.375C25.9245 0 27.2493 0.55013 28.3496 1.65039C29.4499 2.75065 30 4.07552 30 5.625Z" fill="#344445"/>
<defs>
<linearGradient id="paint0_linear" x1="0" y1="0" x2="32.9533" y2="7.81297" gradientUnits="userSpaceOnUse">
<stop stop-color="#FF785A"/>
<stop offset="1" stop-color="#DA4453"/>
</linearGradient>
</defs>
</svg>
