<svg width="22" height="8" viewBox="0 0 22 8" fill="none" xmlns="http://www.w3.org/2000/svg">
<path d="M1 3.5C0.723858 3.5 0.5 3.72386 0.5 4C0.5 4.27614 0.723858 4.5 1 4.5V3.5ZM21.8536 4.35355C22.0488 4.15829 22.0488 3.84171 21.8536 3.64645L18.6716 0.464466C18.4763 0.269204 18.1597 0.269204 17.9645 0.464466C17.7692 0.659728 17.7692 0.976311 17.9645 1.17157L20.7929 4L17.9645 6.82843C17.7692 7.02369 17.7692 7.34027 17.9645 7.53553C18.1597 7.7308 18.4763 7.7308 18.6716 7.53553L21.8536 4.35355ZM1 4.5H21.5V3.5H1V4.5Z" fill="white"/>
</svg>
