<svg width="8" height="6" viewBox="0 0 8 6" fill="none" xmlns="http://www.w3.org/2000/svg">
<path d="M1.36477 2.65803C1.1759 2.45657 0.859486 2.44637 0.658029 2.63523C0.456573 2.8241 0.446366 3.14051 0.635231 3.34197L1.36477 2.65803ZM2.875 5L2.51023 5.34197C2.60193 5.43978 2.72906 5.49667 2.86309 5.49986C2.99713 5.50305 3.12682 5.45228 3.22307 5.35895L2.875 5ZM7.34807 1.35895C7.54632 1.16671 7.55119 0.85017 7.35895 0.651927C7.16671 0.453684 6.85017 0.448814 6.65193 0.64105L7.34807 1.35895ZM0.635231 3.34197L2.51023 5.34197L3.23977 4.65803L1.36477 2.65803L0.635231 3.34197ZM3.22307 5.35895L7.34807 1.35895L6.65193 0.64105L2.52693 4.64105L3.22307 5.35895Z" fill="#425F60"/>
</svg>
