<svg width="19" height="27" viewBox="0 0 19 27" fill="none" xmlns="http://www.w3.org/2000/svg">
<path fill-rule="evenodd" clip-rule="evenodd" d="M0.0078125 9.49219C0.0078125 4.2582 4.26601 0 9.5 0C14.734 0 18.9922 4.2582 18.9922 9.49219C18.9922 11.2081 18.5292 12.8898 17.6533 14.3554L10.3104 26.6155C10.1687 26.8521 9.91391 26.9978 9.63806 27H9.63178C9.3583 27 9.10402 26.8587 8.95968 26.6261L1.42473 14.4836C0.497662 12.9864 0.0078125 11.2606 0.0078125 9.49219ZM9.61981 24.6895L16.2957 13.5431C17.0246 12.3234 17.4154 10.9224 17.4154 9.49219C17.4154 5.13053 13.8617 1.57148 9.5 1.57148C5.13834 1.57148 1.5793 5.13053 1.5793 9.49219C1.5793 10.9661 1.99769 12.4039 2.76935 13.6501L9.61981 24.6895ZM4.75391 9.49219C4.75391 6.87519 6.883 4.74609 9.5 4.74609C12.117 4.74609 14.2461 6.87519 14.2461 9.49219C14.2461 12.0639 12.1843 14.2383 9.5 14.2383C6.84836 14.2383 4.75391 12.0925 4.75391 9.49219ZM6.32539 9.49219C6.32539 11.2412 7.74621 12.6668 9.5 12.6668C11.2816 12.6668 12.6693 11.2157 12.6693 9.49219C12.6693 7.74752 11.2447 6.31758 9.5 6.31758C7.75534 6.31758 6.32539 7.74752 6.32539 9.49219Z" fill="url(#paint0_linear)"/>
<defs>
<linearGradient id="paint0_linear" x1="18.4582" y1="41.0057" x2="-0.00310147" y2="40.9722" gradientUnits="userSpaceOnUse">
<stop stop-color="#0286FC"/>
<stop offset="1" stop-color="#14C2FB"/>
</linearGradient>
</defs>
</svg>
