<svg width="27" height="28" viewBox="0 0 27 28" fill="none" xmlns="http://www.w3.org/2000/svg">
<path d="M26.3063 20.4143L22.9498 17.0578C22.0244 16.1324 20.5186 16.1324 19.5933 17.0578L18.0676 18.5834C17.3666 19.2845 16.2258 19.2843 15.525 18.5837L8.91214 11.9652C8.20945 11.2625 8.20934 10.1251 8.91214 9.42235C9.15788 9.17661 9.86352 8.47097 10.4378 7.89669C11.3591 6.97542 11.372 5.47434 10.4369 4.53935L7.0813 1.1943C6.15591 0.268971 4.65019 0.268971 3.72728 1.19188C3.03667 1.87648 2.81392 2.09733 2.50426 2.40429C-0.832775 5.74128 -0.832775 11.171 2.5041 14.5079L12.982 24.9913C16.3269 28.3361 21.7406 28.3364 25.0857 24.9913L26.3063 23.7707C27.2317 22.8453 27.2317 21.3397 26.3063 20.4143ZM4.84367 2.31312C5.15211 2.00467 5.65393 2.00462 5.96338 2.31396L9.31898 5.65901C9.62816 5.96819 9.62816 6.46859 9.31898 6.77783L8.75952 7.33723L4.28711 2.86482L4.84367 2.31312ZM14.101 23.8726L3.62308 13.3891C1.0413 10.8073 0.899395 6.75336 3.18665 4.00204L7.64609 8.46148C6.47433 9.78981 6.52316 11.8139 7.79306 13.0838L14.4057 19.702C14.4058 19.7021 14.4059 19.7022 14.406 19.7023C15.6745 20.9708 17.6985 21.0228 19.0285 19.8495L23.488 24.309C20.7454 26.5923 16.7006 26.4721 14.101 23.8726ZM25.1875 22.6519L24.6281 23.2114L20.1528 18.736L20.7121 18.1766C21.0206 17.8681 21.5225 17.8681 21.831 18.1766L25.1875 21.5331C25.496 21.8416 25.496 22.3435 25.1875 22.6519Z" fill="#E45363"/>
</svg>
